<?xml version="1.0" encoding="utf-8"?>
<!-- Generator: Adobe Illustrator 26.3.1, SVG Export Plug-In . SVG Version: 6.00 Build 0)  -->
<svg version="1.1" id="Layer_1" xmlns="http://www.w3.org/2000/svg" xmlns:xlink="http://www.w3.org/1999/xlink" x="0px" y="0px"
	 viewBox="0 0 4095 1268" style="enable-background:new 0 0 4095 1268;" xml:space="preserve">
<style type="text/css">
	.st0{fill:#2E3F6A;}
	.st1{fill:url(#SVGID_1_);}
	.st2{fill:#FFFFFF;}
	.st3{fill:#D7D7D7;}
	.st4{fill:url(#SVGID_00000101075810135818459060000001491031527579605939_);}
	.st5{fill:url(#SVGID_00000124140887147642511480000013799359210243004090_);}
	.st6{fill:url(#SVGID_00000166650554016412504830000016246742874752531101_);}
	.st7{fill:url(#Path_92_00000017478697725994478240000002000964437406010249_);}
	.st8{fill:url(#Path_93_00000118366994538107874430000012120664559821011860_);}
	.st9{fill:url(#Path_94_00000041296080426329689950000002353437205173608840_);}
	.st10{opacity:0.4;fill:url(#Path_95_00000043430104108414520800000018178772599920382642_);}
	.st11{fill:url(#Path_96_00000144313678300002715080000000494580014970256778_);}
	.st12{fill:#5F74B8;}
	.st13{fill:url(#Path_100_00000060728104993540790670000007658605863353890434_);}
	.st14{fill:url(#Path_92_00000037684934478489172380000017476218922977415563_);}
	.st15{fill:url(#Path_93_00000003793531833062663280000012540034089835865779_);}
	.st16{fill:url(#Path_94_00000110458041009713026470000005666491401633574558_);}
	.st17{opacity:0.4;fill:url(#Path_95_00000097466897941612680580000015044938432398601630_);}
	.st18{fill:url(#Path_96_00000017485863313880552510000009956327876492780725_);}
	.st19{fill:url(#Path_100_00000121991620466833236260000014053219061731341222_);}
	.st20{display:none;}
	.st21{display:inline;fill:#FFFFFF;}
	.st22{display:inline;}
	.st23{fill:url(#Path_94_00000067232657740958195450000010414999296830605966_);}
	.st24{fill:url(#Path_96_00000011031404615810711160000005339449927527482540_);}
	.st25{fill:url(#Path_99_00000179630371749139014770000003095204559198473407_);}
	.st26{fill:url(#Path_100_00000009584546561170239390000005877925115678036415_);}
	.st27{fill:url(#Path_92_00000132074744189081119750000001068841046407018906_);}
	.st28{fill:url(#Path_93_00000075136264656094525760000014879233317046530441_);}
	.st29{fill:url(#Path_94_00000060015317611333309740000013912626693424014777_);}
	.st30{opacity:0.4;fill:url(#Path_95_00000112628103481108272260000015665642933305123494_);}
	.st31{fill:url(#Path_96_00000048488212605908828420000014696630709819020947_);}
	.st32{fill:url(#Path_100_00000025418593871461226080000008274654879029018286_);}
	.st33{fill:url(#Path_92_00000073722562843098594650000016547091978205469604_);}
	.st34{fill:url(#Path_93_00000081633485844719465510000009679125797133313434_);}
	.st35{fill:url(#Path_94_00000165950256656841926450000017602366291523597705_);}
	.st36{opacity:0.4;fill:url(#Path_95_00000043456438850329015430000014394535629427311792_);}
	.st37{fill:url(#Path_96_00000132072907639738214230000015335179789749722249_);}
	.st38{fill:url(#Path_100_00000052784654505457938920000006297537526573896326_);}
	.st39{fill:url(#Path_92_00000116950765813319354650000000657978390830719930_);}
	.st40{fill:url(#Path_93_00000075864798296229845950000015364579660501087907_);}
	.st41{fill:url(#Path_94_00000140721112220300738350000009471390121916324509_);}
	.st42{opacity:0.4;fill:url(#Path_95_00000108305315705249259070000016042488692508431018_);}
	.st43{fill:url(#Path_96_00000148655580440439797730000006085343058253702327_);}
	.st44{fill:url(#Path_100_00000072968512427238831950000001179910751154701982_);}
	.st45{fill:#7A7B7B;}
	.st46{fill:url(#SVGID_00000123432784872487613350000003976834767574834568_);}
	.st47{fill:url(#SVGID_00000028317294060456347170000014951182143358693780_);}
	.st48{fill:url(#SVGID_00000160168686140647966260000004402392045539751094_);}
	.st49{fill:url(#SVGID_00000041288375554802331700000015038443699339073457_);}
	.st50{fill:url(#Path_92_00000126293332986684980100000010988024234464754358_);}
	.st51{fill:url(#Path_93_00000091700885253675747660000000081894809005270403_);}
	.st52{fill:url(#Path_94_00000150090604635301185990000008172781633284688571_);}
	.st53{opacity:0.4;fill:url(#Path_95_00000085219700770054266580000015662878060195365513_);}
	.st54{fill:url(#Path_96_00000153664385594946886700000008335994210083152775_);}
	.st55{fill:url(#Path_100_00000002371063056352123070000015567653813352484795_);}
	.st56{fill:url(#Path_92_00000157278603784552121540000009849629758522333588_);}
	.st57{fill:url(#Path_93_00000134963180504865950260000016308781850104711348_);}
	.st58{fill:url(#Path_94_00000116231448781428643090000003034922026575136396_);}
	.st59{opacity:0.4;fill:url(#Path_95_00000145749345593749872470000010627733582264967867_);}
	.st60{fill:url(#Path_96_00000114060517889640761700000015878602011988685210_);}
	.st61{fill:url(#Path_100_00000126300334909979249100000017787708070610949523_);}
	.st62{fill:url(#Path_94_00000114773220083091418260000012042662662816333739_);}
	.st63{fill:url(#Path_96_00000119100204285972181850000017176782677559651481_);}
	.st64{fill:url(#Path_99_00000162341460731443701040000001043353028619356820_);}
	.st65{fill:url(#Path_100_00000072257536199073894080000005932842732164338065_);}
	.st66{fill:url(#Path_92_00000182529514257932309190000002328619664703012771_);}
	.st67{fill:url(#Path_93_00000177461509478291819430000006626328263009156753_);}
	.st68{fill:url(#Path_94_00000031894028757049392480000009077048481128593569_);}
	.st69{opacity:0.4;fill:url(#Path_95_00000113348864717883313380000006870995180516649370_);}
	.st70{fill:url(#Path_96_00000044891389045563946600000013328611406914119832_);}
	.st71{fill:url(#Path_100_00000136408253817929141260000017269310882491064713_);}
	.st72{fill:url(#Path_92_00000095325192749910813890000007245976877689977755_);}
	.st73{fill:url(#Path_93_00000145046280182033952510000010867409666849075635_);}
	.st74{fill:url(#Path_94_00000026884630810487243380000013629868626667719610_);}
	.st75{opacity:0.4;fill:url(#Path_95_00000109738556668738255250000014571700824400726206_);}
	.st76{fill:url(#Path_96_00000090279812742656243210000003026819543589554053_);}
	.st77{fill:url(#Path_100_00000003796239650191209970000006994827766026923397_);}
	.st78{fill:url(#Path_92_00000152223670380111387880000001389840151798744249_);}
	.st79{fill:url(#Path_93_00000152986192395149318420000003711181829426646454_);}
	.st80{fill:url(#Path_94_00000173844513265874454060000016939404588181705375_);}
	.st81{opacity:0.4;fill:url(#Path_95_00000008839789258280018310000011042886981777528995_);}
	.st82{fill:url(#Path_96_00000076596282443179754940000010232854276749778566_);}
	.st83{fill:url(#Path_100_00000025417315858336261950000004926143640321511573_);}
</style>
<g>
	<g>
		<path class="st2" d="M1598.58,774.57c0,13.22-9.36,24.78-24.78,24.78c-8.26,0-15.42-4.41-19.82-10.46l-117.84-148.12
			l-116.19,148.67c-4.96,6.06-11.01,9.91-19.27,9.91c-12.66,0-23.13-10.46-23.13-23.13c0-5.51,1.65-11.01,4.96-15.42l127.2-156.38
			l-126.1-155.28c-3.3-4.4-4.96-9.36-4.96-15.42c0-13.77,10.46-24.23,24.23-24.23c8.26,0,15.97,3.86,20.37,9.91l116.19,147.57
			l116.19-148.67c3.85-5.51,10.46-8.81,18.17-8.81c13.22,0,24.23,10.46,24.23,23.68c0,4.96-1.65,9.91-4.41,13.77l-127.2,156.93
			l127.2,156.38C1596.93,764.11,1598.58,769.06,1598.58,774.57z"/>
		<path class="st2" d="M1969.17,748.14c-0.55,10.46-4.96,15.97-12.11,19.82c-34.14,19.27-71.58,34.14-125.55,34.14
			c-109.58,0-192.73-74.89-192.73-197.68c0-122.79,83.15-197.68,192.73-197.68c53.96,0,91.41,14.87,125.55,34.14
			c7.16,3.86,11.56,9.36,12.11,19.82c0.55,11.56-8.26,22.03-22.03,22.03c-2.75,0-6.61-0.55-9.91-2.2
			c-29.18-15.42-57.82-25.88-100.77-25.88c-97.46,0-147.57,64.98-147.57,149.77c0,84.8,50.11,149.78,147.57,149.78
			c42.95,0,71.58-10.46,100.77-25.88c3.3-1.65,7.16-2.2,9.91-2.2C1960.91,726.12,1969.72,736.58,1969.17,748.14z"/>
		<path class="st2" d="M2314.98,773.47c0,13.21-10.46,23.13-23.68,23.13h-220.81c-13.77,0-24.78-11.01-24.78-24.78V437.58
			c0-13.77,11.01-25.33,24.78-25.33h220.81c13.22,0,23.68,10.46,23.68,23.68c0,13.21-10.46,23.13-23.68,23.13h-195.48v121.69h175.66
			c13.22,0,23.68,10.46,23.68,23.68c0,13.22-10.46,23.13-23.68,23.13h-175.66v122.24h195.48
			C2304.51,749.79,2314.98,760.25,2314.98,773.47z"/>
		<path class="st2" d="M2652.51,771.82c0,13.77-11.56,24.78-25.33,24.78h-195.48c-19.27,0-34.69-15.42-34.69-34.69V434.82
			c0-13.77,11.01-25.33,24.78-25.33s25.33,11.56,25.33,25.33v311.66h180.06C2640.95,746.49,2652.51,758.05,2652.51,771.82z"/>
		<path class="st2" d="M2989.51,435.93c0,13.21-10.46,23.13-23.68,23.13h-111.78v315.52c0,13.77-11.56,24.78-25.33,24.78
			s-24.78-11.01-24.78-24.78V459.05h-112.33c-13.22,0-23.13-9.91-23.13-23.13c0-13.22,9.91-23.68,23.13-23.68h274.22
			C2979.04,412.25,2989.51,422.71,2989.51,435.93z"/>
		<path class="st2" d="M3350.18,774.57c0,13.77-11.01,24.78-24.78,24.78c-15.42,0-25.33-9.91-25.33-24.78v-16.52
			c0-36.34-2.2-111.23-85.35-111.23h-113.98v127.75c0,13.77-11.56,24.78-25.33,24.78s-24.78-11.01-24.78-24.78V437.58
			c0-13.77,11.01-25.33,24.78-25.33h128.3c104.62,0,149.77,48.46,149.77,111.78c0,42.4-23.68,83.15-72.13,99.67
			c61.12,15.97,68.83,94.71,68.83,125.55V774.57z M3303.37,527.88c0-40.75-24.23-68.28-105.72-68.28h-96.91v139.86h99.67
			C3262.07,599.47,3303.37,574.69,3303.37,527.88z"/>
		<path class="st2" d="M3492.79,434.82v339.75c0,13.77-11.56,24.78-25.33,24.78s-24.78-11.01-24.78-24.78V434.82
			c0-13.77,11.01-25.33,24.78-25.33S3492.79,421.06,3492.79,434.82z"/>
		<path class="st2" d="M3896.96,534.49c0,58.37-35.79,122.24-147.02,122.24h-100.22v117.84c0,13.77-11.56,24.78-25.33,24.78
			c-13.77,0-24.78-11.01-24.78-24.78V437.58c0-13.77,11.01-25.33,24.78-25.33h125.55C3861.17,412.25,3896.96,476.12,3896.96,534.49z
			 M3846.85,534.49c0-35.79-19.82-74.89-101.87-74.89h-95.26v149.78h95.26C3827.03,609.38,3846.85,570.28,3846.85,534.49z"/>
	</g>
	<g>
		<path class="st2" d="M1355.87,913.02c0,3.14-2.48,5.49-5.62,5.49h-26.52v74.86c0,3.27-2.74,5.88-6.01,5.88s-5.88-2.61-5.88-5.88
			v-74.86h-26.65c-3.14,0-5.49-2.35-5.49-5.49s2.35-5.62,5.49-5.62h65.06C1353.39,907.41,1355.87,909.89,1355.87,913.02z"/>
		<path class="st2" d="M1506.77,993.37c0,3.27-2.61,5.88-5.88,5.88c-3.66,0-6.01-2.35-6.01-5.88v-3.92
			c0-8.62-0.52-26.39-20.25-26.39h-27.04v30.31c0,3.27-2.74,5.88-6.01,5.88s-5.88-2.61-5.88-5.88v-79.96c0-3.27,2.61-6.01,5.88-6.01
			h30.44c24.82,0,35.54,11.5,35.54,26.52c0,10.06-5.62,19.73-17.11,23.65c14.5,3.79,16.33,22.47,16.33,29.79V993.37z
			 M1495.67,934.84c0-9.67-5.75-16.2-25.08-16.2h-22.99v33.18h23.65C1485.87,951.83,1495.67,945.95,1495.67,934.84z"/>
		<path class="st2" d="M1669.16,993.37c0,3.27-2.22,5.88-5.88,5.88c-2.48,0-4.57-1.31-5.62-3.66l-8.49-20.38h-44.42l-8.49,20.38
			c-1.05,2.35-3.14,3.66-5.62,3.66c-3.66,0-5.88-2.61-5.88-5.88c0-0.78,0.26-1.7,0.65-2.61l33.31-78.65
			c1.18-2.74,3.66-5.36,7.58-5.36h1.31c3.92,0,6.4,2.61,7.58,5.36l33.31,78.65C1668.9,991.67,1669.16,992.59,1669.16,993.37z
			 M1644.6,964.37l-17.64-42.46l-17.64,42.46H1644.6z"/>
		<path class="st2" d="M1777.34,987.36l30.7-76.56c1.05-2.48,3.27-4.05,5.62-4.05c3.66,0,5.88,2.48,5.88,6.01
			c0,0.65-0.13,1.57-0.39,2.22l-32.27,78.26c-1.7,3.79-4.44,6.01-8.1,6.01h-2.87c-3.66,0-6.4-2.22-8.1-6.01l-32.27-78.26
			c-0.26-0.65-0.39-1.57-0.39-2.22c0-3.53,2.22-6.01,5.88-6.01c2.35,0,4.57,1.57,5.62,4.05L1777.34,987.36z"/>
		<path class="st2" d="M1964.56,993.11c0,3.14-2.48,5.49-5.62,5.49h-52.39c-3.27,0-5.88-2.61-5.88-5.88v-79.3
			c0-3.27,2.61-6.01,5.88-6.01h52.39c3.14,0,5.62,2.48,5.62,5.62s-2.48,5.49-5.62,5.49h-46.38v28.87h41.68
			c3.14,0,5.62,2.48,5.62,5.62c0,3.13-2.48,5.49-5.62,5.49h-41.68v29h46.38C1962.08,987.49,1964.56,989.97,1964.56,993.11z"/>
		<path class="st2" d="M2109.97,992.72c0,3.27-2.74,5.88-6.01,5.88h-46.38c-4.57,0-8.23-3.66-8.23-8.23v-77.6
			c0-3.27,2.61-6.01,5.88-6.01s6.01,2.74,6.01,6.01v73.95h42.72C2107.22,986.71,2109.97,989.45,2109.97,992.72z"/>
		<path class="st2" d="M2349.18,911.72l22.08,71.85l21.95-72.12c0.78-2.74,3-4.7,5.88-4.7c3.4,0,6.01,2.48,5.75,5.75
			c0,0.65-0.13,1.31-0.39,2.22l-25.61,78.65c-1.44,4.05-4.44,5.88-7.71,5.88c-3.53,0-6.66-2.48-7.71-5.88l-21.03-66.63l-21.03,66.63
			c-1.05,3.4-4.18,5.88-7.71,5.88c-3.27,0-6.27-1.83-7.71-5.88l-25.61-78.65c-0.26-0.91-0.39-1.57-0.39-2.22
			c-0.26-3.27,2.35-5.75,5.75-5.75c2.87,0,5.1,1.96,5.88,4.7l21.95,72.12l22.08-71.85c0.91-2.87,3.66-4.96,6.79-4.96
			S2348.27,908.84,2349.18,911.72z"/>
		<path class="st2" d="M2497.99,912.76v80.61c0,3.27-2.74,5.88-6.01,5.88s-5.88-2.61-5.88-5.88v-80.61c0-3.27,2.61-6.01,5.88-6.01
			S2497.99,909.5,2497.99,912.76z"/>
		<path class="st2" d="M2653.98,913.02c0,3.14-2.48,5.49-5.62,5.49h-26.52v74.86c0,3.27-2.74,5.88-6.01,5.88s-5.88-2.61-5.88-5.88
			v-74.86h-26.65c-3.14,0-5.49-2.35-5.49-5.49s2.35-5.62,5.49-5.62h65.06C2651.5,907.41,2653.98,909.89,2653.98,913.02z"/>
		<path class="st2" d="M2807.1,912.76v80.61c0,3.27-2.74,5.88-6.01,5.88s-5.88-2.61-5.88-5.88v-34.75h-49.51v34.75
			c0,3.27-2.74,5.88-6.01,5.88s-5.88-2.61-5.88-5.88v-80.61c0-3.27,2.61-6.01,5.88-6.01s6.01,2.74,6.01,6.01v34.75h49.51v-34.75
			c0-3.27,2.61-6.01,5.88-6.01S2807.1,909.5,2807.1,912.76z"/>
		<path class="st2" d="M3070.09,987.1c-0.13,2.48-1.18,3.79-2.87,4.7c-8.1,4.57-16.98,8.1-29.79,8.1c-26,0-45.73-17.77-45.73-46.9
			c0-29.13,19.73-46.9,45.73-46.9c12.8,0,21.69,3.53,29.79,8.1c1.7,0.92,2.74,2.22,2.87,4.7c0.13,2.74-1.96,5.23-5.23,5.23
			c-0.65,0-1.57-0.13-2.35-0.52c-6.92-3.66-13.72-6.14-23.91-6.14c-23.12,0-35.01,15.42-35.01,35.54s11.89,35.54,35.01,35.54
			c10.19,0,16.98-2.48,23.91-6.14c0.78-0.39,1.7-0.52,2.35-0.52C3068.13,981.88,3070.22,984.36,3070.09,987.1z"/>
		<path class="st2" d="M3224.64,993.37c0,3.27-2.61,5.88-5.88,5.88c-3.66,0-6.01-2.35-6.01-5.88v-3.92
			c0-8.62-0.52-26.39-20.25-26.39h-27.04v30.31c0,3.27-2.74,5.88-6.01,5.88s-5.88-2.61-5.88-5.88v-79.96c0-3.27,2.61-6.01,5.88-6.01
			h30.44c24.82,0,35.54,11.5,35.54,26.52c0,10.06-5.62,19.73-17.11,23.65c14.5,3.79,16.33,22.47,16.33,29.79V993.37z
			 M3213.54,934.84c0-9.67-5.75-16.2-25.08-16.2h-22.99v33.18h23.65C3203.74,951.83,3213.54,945.95,3213.54,934.84z"/>
		<path class="st2" d="M3368.75,909.76c1.31-1.96,3-3,5.23-3c3.4,0,5.88,2.74,5.75,6.01c0,1.31-0.39,2.48-1.04,3.53l-31.35,43.77
			v33.31c0,3.27-2.61,5.88-5.88,5.88s-6.01-2.61-6.01-5.88v-33.31l-31.22-43.77c-0.65-1.05-1.04-2.22-1.04-3.53
			c-0.13-3.27,2.35-6.01,5.75-6.01c2.22,0,3.92,1.04,5.23,3l27.31,39.72L3368.75,909.76z"/>
		<path class="st2" d="M3531.4,936.41c0,13.85-8.49,29-34.88,29h-23.78v27.96c0,3.27-2.74,5.88-6.01,5.88s-5.88-2.61-5.88-5.88
			v-79.96c0-3.27,2.61-6.01,5.88-6.01h29.79C3522.91,907.41,3531.4,922.56,3531.4,936.41z M3519.52,936.41
			c0-8.49-4.7-17.77-24.17-17.77h-22.6v35.54h22.6C3514.81,954.18,3519.52,944.9,3519.52,936.41z"/>
		<path class="st2" d="M3678.9,913.02c0,3.14-2.48,5.49-5.62,5.49h-26.52v74.86c0,3.27-2.74,5.88-6.01,5.88
			c-3.27,0-5.88-2.61-5.88-5.88v-74.86h-26.65c-3.14,0-5.49-2.35-5.49-5.49s2.35-5.62,5.49-5.62h65.06
			C3676.42,907.41,3678.9,909.89,3678.9,913.02z"/>
		<path class="st2" d="M3841.82,953c-0.52,27.3-18.03,46.9-45.86,46.9c-27.96,0-45.33-19.6-45.86-46.9
			c0.52-27.3,17.9-46.9,45.86-46.9C3823.79,906.1,3841.3,925.7,3841.82,953z M3829.93,953c0-20.12-12.41-35.8-33.97-35.8
			c-21.69,0-33.97,15.68-33.97,35.8s12.28,35.8,33.97,35.8C3817.52,988.8,3829.93,973.12,3829.93,953z"/>
	</g>
	<g>
		
			<linearGradient id="SVGID_1_" gradientUnits="userSpaceOnUse" x1="911.1597" y1="-3942.8145" x2="520.3188" y2="-4303.4663" gradientTransform="matrix(1 0 0 -1 0 -3418)">
			<stop  offset="0" style="stop-color:#7553FC"/>
			<stop  offset="1" style="stop-color:#5B7AF5"/>
		</linearGradient>
		<path class="st1" d="M747.13,251.35L747.13,251.35c234.62,0,424.82,190.2,424.82,424.82l0,0c0,234.62-190.2,424.82-424.82,424.82
			l0,0c-234.62,0-424.82-190.2-424.82-424.82l0,0C322.31,441.55,512.51,251.35,747.13,251.35z"/>
		<g>
			<path id="Path_92_00000181048655581101131220000011536786259286940291_" class="st2" d="M1114.37,462.79L968.58,608.58l-7,7
				l14,14l7-7l141.52-141.52C1121.37,474.86,1117.89,469.01,1114.37,462.79L1114.37,462.79z"/>
			<path id="Path_93_00000168105609417755732900000004533036585239242629_" class="st2" d="M1095.31,432.47L939.02,588.76
				l-6.98,6.98l14,14l7-7l153.57-153.57c-3.89-5.44-7.39-11.28-11.28-16.72L1095.31,432.47z"/>
			<path id="Path_94_00000151520520082376009660000014311707421533254830_" class="st2" d="M563.08,958.87l-134.26-1.35
				c3.11,3.5,6.9,7.51,10,11l188.8,0.45v-10.11H563.08z"/>
			<path id="Path_95_00000067215070476527697500000005358270378316049814_" class="st3" d="M642.4,561.15
				c0,0,39.66-39.66,59.48-29.93c0.36-18.44,7.41-36.13,19.84-49.76l71.14-71.14c30.92-31.03,81.14-31.11,112.16-0.19
				c0.06,0.06,0.13,0.13,0.19,0.19l60.65,60.65c31.1,31.15,31.1,81.6,0,112.74L714.34,835.24c-31.15,31.1-81.6,31.1-112.74,0
				l-60.65-60.65c-31.1-31.15-31.1-81.6,0-112.74l101.47-100.69L642.4,561.15z"/>
			<path id="Path_96_00000068651011853208115750000009867279662011097751_" class="st2" d="M818.13,435.19
				c31.15-31.1,81.6-31.1,112.74,0l65.72,65.72c31.1,31.15,31.1,81.6,0,112.74L745.06,865.19c-31.15,31.1-81.6,31.1-112.74,0
				l-65.72-65.72c-31.1-31.15-31.1-81.6,0-112.74L818.13,435.19z"/>
			<path id="Path_97_00000065794530915608646760000002928716764290867888_" class="st3" d="M741.92,904.05
				c0.03-30.24-24.45-54.78-54.69-54.82c-0.04,0-0.08,0-0.12,0c-30.24-0.03-54.78,24.45-54.82,54.69c0,0.04,0,0.08,0,0.12
				c-0.03,30.24,24.45,54.78,54.69,54.82c0.04,0,0.08,0,0.12,0c30.24,0.03,54.78-24.45,54.82-54.69
				C741.92,904.13,741.92,904.09,741.92,904.05L741.92,904.05z"/>
			<path id="Path_98_00000009549001760558624130000015229297958776034478_" class="st2" d="M652.5,904.05
				c0.06-19.3,15.69-34.93,34.99-34.99c19.3,0.06,34.93,15.69,34.99,34.99c-0.06,19.3-15.69,34.93-34.99,34.99
				c-19.24,0.08-34.91-15.46-34.99-34.7C652.5,904.24,652.5,904.15,652.5,904.05z"/>
			<path id="Path_99_00000001633747084156141890000000162443926326980740_" class="st2" d="M652.11,949.15h60.26v-10.5h-60.26
				V949.15z"/>
			<path id="Path_100_00000133489809155057441210000003865692859807888560_" class="st2" d="M517.99,949.15h110.02v-10.5H517.99
				V949.15z"/>
			<path id="Path_101_00000135662501614826201700000012669321437842651306_" d="M833.68,563.87l7-7l-14-14l-7,7L678.56,690.61
				l-7,7.39l14,14l7-7L833.68,563.87z"/>
			<path id="Path_102_00000039845445017599931440000013965278267985110174_" d="M882.66,612.86l7-7l-14-14.38l-7,7.39L727.54,739.6
				l-7,7l14,14.38l7-7L882.66,612.86z"/>
		</g>
	</g>
</g>
</svg>
