<?xml version="1.0" encoding="utf-8"?>
<!-- Generator: Adobe Illustrator 26.3.1, SVG Export Plug-In . SVG Version: 6.00 Build 0)  -->
<svg version="1.1" id="Layer_1" xmlns="http://www.w3.org/2000/svg" xmlns:xlink="http://www.w3.org/1999/xlink" x="0px" y="0px"
	 viewBox="0 0 4095 1277" style="enable-background:new 0 0 4095 1277;" xml:space="preserve">
<style type="text/css">
	.st0{fill:#2E3F6A;}
	.st1{fill:url(#SVGID_1_);}
	.st2{fill:#FFFFFF;}
	.st3{fill:#D7D7D7;}
	.st4{fill:url(#SVGID_00000043447756122238999020000001260186736592944575_);}
	.st5{fill:url(#SVGID_00000016062244978789068240000002176670737965975428_);}
	.st6{fill:url(#SVGID_00000050622299857792129240000001661723003420257695_);}
	.st7{fill:url(#Path_92_00000101104315053192951570000011803708796708760234_);}
	.st8{fill:url(#Path_93_00000090285224610497350290000017451229094350125192_);}
	.st9{fill:url(#Path_94_00000143592153620712236230000000626098778872759726_);}
	.st10{opacity:0.4;fill:url(#Path_95_00000055704724329579508760000000372682975943619508_);}
	.st11{fill:url(#Path_96_00000107577664909781260570000016639266677093535651_);}
	.st12{fill:#5F74B8;}
	.st13{fill:url(#Path_100_00000096778594327297580930000001073743797447370672_);}
	.st14{fill:url(#Path_92_00000021809504970610712900000000894413278506680231_);}
	.st15{fill:url(#Path_93_00000178898144383750644120000015723268802269827224_);}
	.st16{fill:url(#Path_94_00000027585916774068845530000006327019175124823732_);}
	.st17{opacity:0.4;fill:url(#Path_95_00000158728661139401194050000009755068305957568669_);}
	.st18{fill:url(#Path_96_00000076600155354108480910000012621291958742427810_);}
	.st19{fill:url(#Path_100_00000026871235914802663420000017479640311778541744_);}
	.st20{display:none;}
	.st21{display:inline;fill:#FFFFFF;}
	.st22{display:inline;}
	.st23{fill:url(#Path_94_00000109010322838513310170000002835446743231869573_);}
	.st24{fill:url(#Path_96_00000129892860213916503630000007823537627913781655_);}
	.st25{fill:url(#Path_99_00000070101790678335373240000017821336802647443894_);}
	.st26{fill:url(#Path_100_00000109746060131588023150000007717395351422962092_);}
	.st27{fill:url(#Path_92_00000104666960410041738470000009629819122004545920_);}
	.st28{fill:url(#Path_93_00000050654238421042583280000006901472216994129561_);}
	.st29{fill:url(#Path_94_00000128444716324765469130000016187867541630331534_);}
	.st30{opacity:0.4;fill:url(#Path_95_00000096758224697956222670000007095419396019065021_);}
	.st31{fill:url(#Path_96_00000078748001778517652080000015732430797359253162_);}
	.st32{fill:url(#Path_100_00000090983174970297913650000011700820885696151956_);}
	.st33{fill:url(#Path_92_00000018931208944599844700000015227734527698254487_);}
	.st34{fill:url(#Path_93_00000000907361526768112420000006002015285378585246_);}
	.st35{fill:url(#Path_94_00000168111443135778605300000003697241881601353880_);}
	.st36{opacity:0.4;fill:url(#Path_95_00000044857664580691959280000003994221774538542232_);}
	.st37{fill:url(#Path_96_00000034059952855424161110000013109559143911421570_);}
	.st38{fill:url(#Path_100_00000127746074903509102550000009667431844105279104_);}
	.st39{fill:url(#Path_92_00000147221614667840572960000003536883610605635992_);}
	.st40{fill:url(#Path_93_00000036216158577439929240000010036091395891037373_);}
	.st41{fill:url(#Path_94_00000143594244522596249680000000255683691331738805_);}
	.st42{opacity:0.4;fill:url(#Path_95_00000132780902143483899110000005791746134166372234_);}
	.st43{fill:url(#Path_96_00000102524823925683133380000005993209407336621758_);}
	.st44{fill:url(#Path_100_00000157274689924063438380000011683406659925856897_);}
	.st45{fill:#7A7B7B;}
	.st46{fill:url(#SVGID_00000008130843988024311970000000348702179207217307_);}
	.st47{fill:url(#SVGID_00000030452845259611910910000006403520687749973659_);}
	.st48{fill:url(#SVGID_00000100362184055527232600000000274167923206012814_);}
	.st49{fill:url(#SVGID_00000181808956954489360140000001738244533977719680_);}
	.st50{fill:url(#Path_92_00000093869133869488218360000004061877235312842384_);}
	.st51{fill:url(#Path_93_00000132800084972835142330000016150292828532944526_);}
	.st52{fill:url(#Path_94_00000008120466107891200330000009487810784325962389_);}
	.st53{opacity:0.4;fill:url(#Path_95_00000067954856127973326030000008875169417053459345_);}
	.st54{fill:url(#Path_96_00000109745472822611288340000000166201480070186906_);}
	.st55{fill:url(#Path_100_00000160192974389651455930000010190749572114603917_);}
	.st56{fill:url(#Path_92_00000111906976538015412190000009233966017479307161_);}
	.st57{fill:url(#Path_93_00000031172778092749795020000017556485845690124193_);}
	.st58{fill:url(#Path_94_00000010296602010203131130000010685424686094438043_);}
	.st59{opacity:0.4;fill:url(#Path_95_00000050623673472738568040000010298907802523565741_);}
	.st60{fill:url(#Path_96_00000103966689859708252050000008528380707802701955_);}
	.st61{fill:url(#Path_100_00000023998604111376245820000006845713942221636502_);}
	.st62{fill:url(#Path_94_00000176035836043432127400000016073995993795652777_);}
	.st63{fill:url(#Path_96_00000134217999130205504790000008726278981950068923_);}
	.st64{fill:url(#Path_99_00000050640851514694264350000008009855335274537114_);}
	.st65{fill:url(#Path_100_00000149349223221742674220000006021586431094945924_);}
	.st66{fill:url(#Path_92_00000005987650770128627360000001921409402792727957_);}
	.st67{fill:url(#Path_93_00000083062955923043766910000007655224726025831100_);}
	.st68{fill:url(#Path_94_00000051363614910798825310000016970315673490411678_);}
	.st69{opacity:0.4;fill:url(#Path_95_00000078765165991627856670000000336497805953412799_);}
	.st70{fill:url(#Path_96_00000112598679383774687280000005321233020075519423_);}
	.st71{fill:url(#Path_100_00000089549678285115901180000008786442175235024285_);}
	.st72{fill:url(#Path_92_00000081611309854397341080000013528501953156615592_);}
	.st73{fill:url(#Path_93_00000029761446969608507480000009183609464147968171_);}
	.st74{fill:url(#Path_94_00000142867120073978569370000002237576006446319282_);}
	.st75{opacity:0.4;fill:url(#Path_95_00000054263180165817801530000004503521810147157156_);}
	.st76{fill:url(#Path_96_00000036241113933763809500000001795383884619504003_);}
	.st77{fill:url(#Path_100_00000031202489924721259840000012679394878687953809_);}
	.st78{fill:url(#Path_92_00000072243394727226032920000012218548378752640687_);}
	.st79{fill:url(#Path_93_00000009565114948692739910000009494937858255715518_);}
	.st80{fill:url(#Path_94_00000139977006352219342520000014176134434825687443_);}
	.st81{opacity:0.4;fill:url(#Path_95_00000119116783409854301310000005344690208298550972_);}
	.st82{fill:url(#Path_96_00000088822465380305096750000002722185371523654318_);}
	.st83{fill:url(#Path_100_00000092420321596342367070000014418376051087809175_);}
</style>
<g>
	<g>
		<path class="st0" d="M1598.58,708.57c0,13.22-9.36,24.78-24.78,24.78c-8.26,0-15.42-4.41-19.82-10.46l-117.84-148.12
			l-116.19,148.67c-4.96,6.06-11.01,9.91-19.27,9.91c-12.66,0-23.13-10.46-23.13-23.13c0-5.51,1.65-11.01,4.96-15.42l127.2-156.38
			l-126.1-155.28c-3.3-4.4-4.96-9.36-4.96-15.42c0-13.77,10.46-24.23,24.23-24.23c8.26,0,15.97,3.86,20.37,9.91l116.19,147.57
			l116.19-148.67c3.85-5.51,10.46-8.81,18.17-8.81c13.22,0,24.23,10.46,24.23,23.68c0,4.96-1.65,9.91-4.41,13.77l-127.2,156.93
			l127.2,156.38C1596.93,698.11,1598.58,703.06,1598.58,708.57z"/>
		<path class="st0" d="M1969.17,682.14c-0.55,10.46-4.96,15.97-12.11,19.82c-34.14,19.27-71.58,34.14-125.55,34.14
			c-109.58,0-192.73-74.89-192.73-197.68c0-122.79,83.15-197.68,192.73-197.68c53.96,0,91.41,14.87,125.55,34.14
			c7.16,3.86,11.56,9.36,12.11,19.82c0.55,11.56-8.26,22.03-22.03,22.03c-2.75,0-6.61-0.55-9.91-2.2
			c-29.18-15.42-57.82-25.88-100.77-25.88c-97.46,0-147.57,64.98-147.57,149.77c0,84.8,50.11,149.78,147.57,149.78
			c42.95,0,71.58-10.46,100.77-25.88c3.3-1.65,7.16-2.2,9.91-2.2C1960.91,660.12,1969.72,670.58,1969.17,682.14z"/>
		<path class="st0" d="M2314.98,707.47c0,13.21-10.46,23.13-23.68,23.13h-220.81c-13.77,0-24.78-11.01-24.78-24.78V371.58
			c0-13.77,11.01-25.33,24.78-25.33h220.81c13.22,0,23.68,10.46,23.68,23.68c0,13.21-10.46,23.13-23.68,23.13h-195.48v121.69h175.66
			c13.22,0,23.68,10.46,23.68,23.68c0,13.22-10.46,23.13-23.68,23.13h-175.66v122.24h195.48
			C2304.51,683.79,2314.98,694.25,2314.98,707.47z"/>
		<path class="st0" d="M2652.51,705.82c0,13.77-11.56,24.78-25.33,24.78h-195.48c-19.27,0-34.69-15.42-34.69-34.69V368.82
			c0-13.77,11.01-25.33,24.78-25.33s25.33,11.56,25.33,25.33v311.66h180.06C2640.95,680.49,2652.51,692.05,2652.51,705.82z"/>
		<path class="st0" d="M2989.51,369.93c0,13.21-10.46,23.13-23.68,23.13h-111.78v315.52c0,13.77-11.56,24.78-25.33,24.78
			s-24.78-11.01-24.78-24.78V393.05h-112.33c-13.22,0-23.13-9.91-23.13-23.13c0-13.22,9.91-23.68,23.13-23.68h274.22
			C2979.04,346.25,2989.51,356.71,2989.51,369.93z"/>
		<path class="st0" d="M3350.18,708.57c0,13.77-11.01,24.78-24.78,24.78c-15.42,0-25.33-9.91-25.33-24.78v-16.52
			c0-36.34-2.2-111.23-85.35-111.23h-113.98v127.75c0,13.77-11.56,24.78-25.33,24.78s-24.78-11.01-24.78-24.78V371.58
			c0-13.77,11.01-25.33,24.78-25.33h128.3c104.62,0,149.77,48.46,149.77,111.78c0,42.4-23.68,83.15-72.13,99.67
			c61.12,15.97,68.83,94.71,68.83,125.55V708.57z M3303.37,461.88c0-40.75-24.23-68.28-105.72-68.28h-96.91v139.86h99.67
			C3262.07,533.47,3303.37,508.69,3303.37,461.88z"/>
		<path class="st0" d="M3492.79,368.82v339.75c0,13.77-11.56,24.78-25.33,24.78s-24.78-11.01-24.78-24.78V368.82
			c0-13.77,11.01-25.33,24.78-25.33S3492.79,355.06,3492.79,368.82z"/>
		<path class="st0" d="M3896.96,468.49c0,58.37-35.79,122.24-147.02,122.24h-100.22v117.84c0,13.77-11.56,24.78-25.33,24.78
			c-13.77,0-24.78-11.01-24.78-24.78V371.58c0-13.77,11.01-25.33,24.78-25.33h125.55C3861.17,346.25,3896.96,410.12,3896.96,468.49z
			 M3846.85,468.49c0-35.79-19.82-74.89-101.87-74.89h-95.26v149.78h95.26C3827.03,543.38,3846.85,504.28,3846.85,468.49z"/>
	</g>
	<g>
		<path class="st0" d="M1355.87,847.02c0,3.14-2.48,5.49-5.62,5.49h-26.52v74.86c0,3.27-2.74,5.88-6.01,5.88s-5.88-2.61-5.88-5.88
			v-74.86h-26.65c-3.14,0-5.49-2.35-5.49-5.49s2.35-5.62,5.49-5.62h65.06C1353.39,841.41,1355.87,843.89,1355.87,847.02z"/>
		<path class="st0" d="M1506.77,927.37c0,3.27-2.61,5.88-5.88,5.88c-3.66,0-6.01-2.35-6.01-5.88v-3.92
			c0-8.62-0.52-26.39-20.25-26.39h-27.04v30.31c0,3.27-2.74,5.88-6.01,5.88s-5.88-2.61-5.88-5.88v-79.96c0-3.27,2.61-6.01,5.88-6.01
			h30.44c24.82,0,35.54,11.5,35.54,26.52c0,10.06-5.62,19.73-17.11,23.65c14.5,3.79,16.33,22.47,16.33,29.79V927.37z
			 M1495.67,868.84c0-9.67-5.75-16.2-25.08-16.2h-22.99v33.18h23.65C1485.87,885.83,1495.67,879.95,1495.67,868.84z"/>
		<path class="st0" d="M1669.16,927.37c0,3.27-2.22,5.88-5.88,5.88c-2.48,0-4.57-1.31-5.62-3.66l-8.49-20.38h-44.42l-8.49,20.38
			c-1.05,2.35-3.14,3.66-5.62,3.66c-3.66,0-5.88-2.61-5.88-5.88c0-0.78,0.26-1.7,0.65-2.61l33.31-78.65
			c1.18-2.74,3.66-5.36,7.58-5.36h1.31c3.92,0,6.4,2.61,7.58,5.36l33.31,78.65C1668.9,925.67,1669.16,926.59,1669.16,927.37z
			 M1644.6,898.37l-17.64-42.46l-17.64,42.46H1644.6z"/>
		<path class="st0" d="M1777.34,921.36l30.7-76.56c1.05-2.48,3.27-4.05,5.62-4.05c3.66,0,5.88,2.48,5.88,6.01
			c0,0.65-0.13,1.57-0.39,2.22l-32.27,78.26c-1.7,3.79-4.44,6.01-8.1,6.01h-2.87c-3.66,0-6.4-2.22-8.1-6.01l-32.27-78.26
			c-0.26-0.65-0.39-1.57-0.39-2.22c0-3.53,2.22-6.01,5.88-6.01c2.35,0,4.57,1.57,5.62,4.05L1777.34,921.36z"/>
		<path class="st0" d="M1964.56,927.11c0,3.14-2.48,5.49-5.62,5.49h-52.39c-3.27,0-5.88-2.61-5.88-5.88v-79.3
			c0-3.27,2.61-6.01,5.88-6.01h52.39c3.14,0,5.62,2.48,5.62,5.62s-2.48,5.49-5.62,5.49h-46.38v28.87h41.68
			c3.14,0,5.62,2.48,5.62,5.62c0,3.13-2.48,5.49-5.62,5.49h-41.68v29h46.38C1962.08,921.49,1964.56,923.97,1964.56,927.11z"/>
		<path class="st0" d="M2109.97,926.72c0,3.27-2.74,5.88-6.01,5.88h-46.38c-4.57,0-8.23-3.66-8.23-8.23v-77.6
			c0-3.27,2.61-6.01,5.88-6.01s6.01,2.74,6.01,6.01v73.95h42.72C2107.22,920.71,2109.97,923.45,2109.97,926.72z"/>
		<path class="st0" d="M2349.18,845.72l22.08,71.85l21.95-72.12c0.78-2.74,3-4.7,5.88-4.7c3.4,0,6.01,2.48,5.75,5.75
			c0,0.65-0.13,1.31-0.39,2.22l-25.61,78.65c-1.44,4.05-4.44,5.88-7.71,5.88c-3.53,0-6.66-2.48-7.71-5.88l-21.03-66.63l-21.03,66.63
			c-1.05,3.4-4.18,5.88-7.71,5.88c-3.27,0-6.27-1.83-7.71-5.88l-25.61-78.65c-0.26-0.91-0.39-1.57-0.39-2.22
			c-0.26-3.27,2.35-5.75,5.75-5.75c2.87,0,5.1,1.96,5.88,4.7l21.95,72.12l22.08-71.85c0.91-2.87,3.66-4.96,6.79-4.96
			S2348.27,842.84,2349.18,845.72z"/>
		<path class="st0" d="M2497.99,846.76v80.61c0,3.27-2.74,5.88-6.01,5.88s-5.88-2.61-5.88-5.88v-80.61c0-3.27,2.61-6.01,5.88-6.01
			S2497.99,843.5,2497.99,846.76z"/>
		<path class="st0" d="M2653.98,847.02c0,3.14-2.48,5.49-5.62,5.49h-26.52v74.86c0,3.27-2.74,5.88-6.01,5.88s-5.88-2.61-5.88-5.88
			v-74.86h-26.65c-3.14,0-5.49-2.35-5.49-5.49s2.35-5.62,5.49-5.62h65.06C2651.5,841.41,2653.98,843.89,2653.98,847.02z"/>
		<path class="st0" d="M2807.1,846.76v80.61c0,3.27-2.74,5.88-6.01,5.88s-5.88-2.61-5.88-5.88v-34.75h-49.51v34.75
			c0,3.27-2.74,5.88-6.01,5.88s-5.88-2.61-5.88-5.88v-80.61c0-3.27,2.61-6.01,5.88-6.01s6.01,2.74,6.01,6.01v34.75h49.51v-34.75
			c0-3.27,2.61-6.01,5.88-6.01S2807.1,843.5,2807.1,846.76z"/>
		<path class="st0" d="M3070.09,921.1c-0.13,2.48-1.18,3.79-2.87,4.7c-8.1,4.57-16.98,8.1-29.79,8.1c-26,0-45.73-17.77-45.73-46.9
			c0-29.13,19.73-46.9,45.73-46.9c12.8,0,21.69,3.53,29.79,8.1c1.7,0.92,2.74,2.22,2.87,4.7c0.13,2.74-1.96,5.23-5.23,5.23
			c-0.65,0-1.57-0.13-2.35-0.52c-6.92-3.66-13.72-6.14-23.91-6.14c-23.12,0-35.01,15.42-35.01,35.54s11.89,35.54,35.01,35.54
			c10.19,0,16.98-2.48,23.91-6.14c0.78-0.39,1.7-0.52,2.35-0.52C3068.13,915.88,3070.22,918.36,3070.09,921.1z"/>
		<path class="st0" d="M3224.64,927.37c0,3.27-2.61,5.88-5.88,5.88c-3.66,0-6.01-2.35-6.01-5.88v-3.92
			c0-8.62-0.52-26.39-20.25-26.39h-27.04v30.31c0,3.27-2.74,5.88-6.01,5.88s-5.88-2.61-5.88-5.88v-79.96c0-3.27,2.61-6.01,5.88-6.01
			h30.44c24.82,0,35.54,11.5,35.54,26.52c0,10.06-5.62,19.73-17.11,23.65c14.5,3.79,16.33,22.47,16.33,29.79V927.37z
			 M3213.54,868.84c0-9.67-5.75-16.2-25.08-16.2h-22.99v33.18h23.65C3203.74,885.83,3213.54,879.95,3213.54,868.84z"/>
		<path class="st0" d="M3368.75,843.76c1.31-1.96,3-3,5.23-3c3.4,0,5.88,2.74,5.75,6.01c0,1.31-0.39,2.48-1.04,3.53l-31.35,43.77
			v33.31c0,3.27-2.61,5.88-5.88,5.88s-6.01-2.61-6.01-5.88v-33.31l-31.22-43.77c-0.65-1.05-1.04-2.22-1.04-3.53
			c-0.13-3.27,2.35-6.01,5.75-6.01c2.22,0,3.92,1.04,5.23,3l27.31,39.72L3368.75,843.76z"/>
		<path class="st0" d="M3531.4,870.41c0,13.85-8.49,29-34.88,29h-23.78v27.96c0,3.27-2.74,5.88-6.01,5.88s-5.88-2.61-5.88-5.88
			v-79.96c0-3.27,2.61-6.01,5.88-6.01h29.79C3522.91,841.41,3531.4,856.56,3531.4,870.41z M3519.52,870.41
			c0-8.49-4.7-17.77-24.17-17.77h-22.6v35.54h22.6C3514.81,888.18,3519.52,878.9,3519.52,870.41z"/>
		<path class="st0" d="M3678.9,847.02c0,3.14-2.48,5.49-5.62,5.49h-26.52v74.86c0,3.27-2.74,5.88-6.01,5.88
			c-3.27,0-5.88-2.61-5.88-5.88v-74.86h-26.65c-3.14,0-5.49-2.35-5.49-5.49s2.35-5.62,5.49-5.62h65.06
			C3676.42,841.41,3678.9,843.89,3678.9,847.02z"/>
		<path class="st0" d="M3841.82,887c-0.52,27.3-18.03,46.9-45.86,46.9c-27.96,0-45.33-19.6-45.86-46.9
			c0.52-27.3,17.9-46.9,45.86-46.9C3823.79,840.1,3841.3,859.7,3841.82,887z M3829.93,887c0-20.12-12.41-35.8-33.97-35.8
			c-21.69,0-33.97,15.68-33.97,35.8s12.28,35.8,33.97,35.8C3817.52,922.8,3829.93,907.12,3829.93,887z"/>
	</g>
	<g>
		
			<linearGradient id="SVGID_1_" gradientUnits="userSpaceOnUse" x1="915.9858" y1="-610.9231" x2="525.1448" y2="-971.5751" gradientTransform="matrix(1 0 0 -1 0 -150)">
			<stop  offset="0" style="stop-color:#7553FC"/>
			<stop  offset="1" style="stop-color:#5B7AF5"/>
		</linearGradient>
		<path class="st1" d="M751.96,187.46L751.96,187.46c234.62,0,424.82,190.2,424.82,424.82l0,0c0,234.62-190.2,424.82-424.82,424.82
			l0,0c-234.62,0-424.82-190.2-424.82-424.82l0,0C327.14,377.66,517.33,187.46,751.96,187.46z"/>
		<g>
			<path id="Path_92_00000049182687644418540370000011300672245660524217_" class="st2" d="M1119.19,398.9L973.4,544.69l-7,7l14,14
				l7-7l141.52-141.52C1126.2,410.97,1122.72,405.11,1119.19,398.9L1119.19,398.9z"/>
			<path id="Path_93_00000054244528422561519020000005330612572396667778_" class="st2" d="M1100.13,368.57L943.84,524.86
				l-6.98,6.98l14,14l7-7l153.57-153.57c-3.89-5.44-7.39-11.28-11.28-16.72L1100.13,368.57z"/>
			<path id="Path_94_00000098926657985304337580000015390916663676337830_" class="st2" d="M567.91,894.98l-134.26-1.35
				c3.11,3.5,6.9,7.51,10,11l188.8,0.45v-10.11H567.91z"/>
			<path id="Path_95_00000046318147378292337360000009591732871269456306_" class="st3" d="M647.22,497.26
				c0,0,39.66-39.66,59.48-29.93c0.36-18.44,7.41-36.13,19.84-49.76l71.14-71.14c30.92-31.03,81.14-31.11,112.16-0.19
				c0.06,0.06,0.13,0.13,0.19,0.19l60.65,60.65c31.1,31.15,31.1,81.6,0,112.74L719.16,771.35c-31.15,31.1-81.6,31.1-112.74,0
				l-60.65-60.65c-31.1-31.15-31.1-81.6,0-112.74l101.47-100.69L647.22,497.26z"/>
			<path id="Path_96_00000170276157307201310490000011653119909289724077_" class="st2" d="M822.96,371.29
				c31.15-31.1,81.6-31.1,112.74,0l65.72,65.72c31.1,31.15,31.1,81.6,0,112.74L749.88,801.3c-31.15,31.1-81.6,31.1-112.74,0
				l-65.72-65.72c-31.1-31.15-31.1-81.6,0-112.74L822.96,371.29z"/>
			<path id="Path_97_00000111887192808174199640000010208979585937065642_" class="st3" d="M746.75,840.16
				c0.03-30.24-24.45-54.78-54.69-54.82c-0.04,0-0.08,0-0.12,0c-30.24-0.03-54.78,24.45-54.82,54.69c0,0.04,0,0.08,0,0.12
				c-0.03,30.24,24.45,54.78,54.69,54.82c0.04,0,0.08,0,0.12,0c30.24,0.03,54.78-24.45,54.82-54.69
				C746.75,840.24,746.75,840.2,746.75,840.16L746.75,840.16z"/>
			<path id="Path_98_00000159470316325142481960000009368546518287510411_" class="st2" d="M657.33,840.16
				c0.06-19.3,15.69-34.93,34.99-34.99c19.3,0.06,34.93,15.69,34.99,34.99c-0.06,19.3-15.69,34.93-34.99,34.99
				c-19.24,0.08-34.91-15.46-34.99-34.7C657.33,840.35,657.33,840.25,657.33,840.16z"/>
			<path id="Path_99_00000055671906493169937090000004336400904888301440_" class="st2" d="M656.94,885.26h60.26v-10.5h-60.26
				V885.26z"/>
			<path id="Path_100_00000134930574113043157490000013749949586053729718_" class="st2" d="M522.81,885.26h110.02v-10.5H522.81
				V885.26z"/>
			<path id="Path_101_00000072264956515012355700000004192533111297264018_" d="M838.5,499.98l7-7l-14-14l-7,7L683.38,626.72
				l-7,7.39l14,14l7-7L838.5,499.98z"/>
			<path id="Path_102_00000125592966103750518490000002119878039598214552_" d="M887.49,548.97l7-7l-14-14.38l-7,7.39L732.37,675.71
				l-7,7l14,14.38l7-7L887.49,548.97z"/>
		</g>
	</g>
</g>
</svg>
