<svg id="Layer_1" data-name="Layer 1" xmlns="http://www.w3.org/2000/svg" xmlns:xlink="http://www.w3.org/1999/xlink" viewBox="0 0 3428.55 849.64"><defs><style>.cls-1{fill:#2e3f6a;}.cls-2{fill:url(#linear-gradient);}.cls-3{fill:#fff;fill-rule:evenodd;}.cls-4{fill:#1c2f54;}</style><linearGradient id="linear-gradient" x1="726.92" y1="886.76" x2="336.08" y2="1247.41" gradientTransform="translate(0 -532.87)" gradientUnits="userSpaceOnUse"><stop offset="0" stop-color="#7553fc"/><stop offset="1" stop-color="#5b7af5"/></linearGradient></defs><path class="cls-1" d="M1121.15,602.12q-9.87,0-16.28-5.18a19.53,19.53,0,0,1-7.4-13.32q-1-8.14,5.43-16.53l116.42-156.37v20.72l-110-148q-6.42-8.88-5.67-17.26a18.89,18.89,0,0,1,7.15-13.57q6.4-5.18,15.79-5.18a26.79,26.79,0,0,1,14.06,3.7q6.16,3.71,12.58,12.58l95.7,131.21h-15.79l94.71-131.21q6.4-8.88,12.58-12.58a27.71,27.71,0,0,1,14.55-3.7q9.86,0,16.28,5.18a18.65,18.65,0,0,1,7.15,13.32q.73,8.15-6.17,17.51l-110,148V410.72l115.92,156.37q6.4,8.4,5.67,16.53a18.65,18.65,0,0,1-7.15,13.32q-6.42,5.17-16.77,5.18a25.88,25.88,0,0,1-13.81-4q-6.42-3.95-13.32-12.33L1231.16,446.73h18.75L1148.79,585.84q-6.42,8.4-13.07,12.33A28.16,28.16,0,0,1,1121.15,602.12Z" transform="translate(-138.07 -80.43)"/><path class="cls-1" d="M1649,603.11q-52.79,0-90.27-21.7t-57.47-61.91q-20-40.2-20-95,0-40.93,11.35-73.75t32.8-56.24q21.46-23.43,52.78-35.76T1649,246.46a198.21,198.21,0,0,1,56,7.89q26.88,7.89,46.62,22.69,8.39,5.43,11.1,13.07a25,25,0,0,1,1,14.55,23.56,23.56,0,0,1-6.66,11.59,19.36,19.36,0,0,1-12.58,5.18q-7.65.49-16.52-5.43a112.75,112.75,0,0,0-36-18.25,143.36,143.36,0,0,0-41.44-5.92q-37.5,0-63.14,15.54t-39,45.14q-13.32,29.61-13.32,72t13.32,72.27q13.32,29.85,39,45.38t63.14,15.54a140.22,140.22,0,0,0,41.68-6.17,136.15,136.15,0,0,0,37.74-18.5q8.88-5.43,16-4.93a19.53,19.53,0,0,1,12.08,4.93,22.14,22.14,0,0,1,6.66,11.1,24.8,24.8,0,0,1-.49,13.81q-2.22,7.15-9.62,12.09-20.23,16.28-47.85,24.66A197.34,197.34,0,0,1,1649,603.11Z" transform="translate(-138.07 -80.43)"/><path class="cls-1" d="M1903.5,598.67q-13.32,0-20.47-7.15t-7.15-20.47V278.52q0-13.32,7.15-20.47t20.47-7.15h180.05c6.91,0,12.16,1.73,15.79,5.18s5.43,8.47,5.43,15.05q0,10.37-5.43,15.79t-15.79,5.43H1925.2v109h147.49q10.84,0,16,5.43t5.18,15.29q0,10.37-5.18,15.54t-16,5.18H1925.2V557.25h158.35c6.91,0,12.16,1.81,15.79,5.43s5.43,8.72,5.43,15.29q0,10.37-5.43,15.54t-15.79,5.18H1903.5Z" transform="translate(-138.07 -80.43)"/><path class="cls-1" d="M2241.89,598.67q-12.33,0-19.24-6.91t-6.91-19.24V275.07q0-12.82,6.66-19.49t19-6.66q12.33,0,19,6.66t6.66,19.49v279.7H2420q10.85,0,16.77,5.67t5.92,16q0,10.37-5.92,16.28T2420,598.67Z" transform="translate(-138.07 -80.43)"/><path class="cls-1" d="M2563,602.12q-12.33,0-19-6.91T2537.36,576V277q0-12.82,6.91-19.48t19.24-6.66h117.9q56.24,0,86.82,27.87T2798.81,357q0,50.82-30.58,78.68t-86.82,27.87h-92.74V576q0,12.33-6.41,19.24T2563,602.12Zm25.65-179.56H2674q37,0,56-16.53T2749,357q0-32.06-19-48.59t-56-16.53h-85.34Z" transform="translate(-138.07 -80.43)"/><path class="cls-1" d="M2901.41,602.12q-9.87,0-15.79-4.44a17.06,17.06,0,0,1-6.91-11.84q-1-7.4,3-16.77l133.68-299.92q4.92-11.83,12.58-16.77a30.78,30.78,0,0,1,17-4.93,30,30,0,0,1,16.53,4.93q7.64,4.94,12.58,16.77l133.68,299.92q4.44,9.38,3.45,17a17,17,0,0,1-6.41,11.84q-5.43,4.19-15.29,4.19-10.86,0-17.27-5.43t-11.35-16.77L3126.34,500l23.18,13.81H2939.38L2962.07,500l-34,79.91q-4.94,11.83-10.85,17T2901.41,602.12ZM3044,307.63l-74.49,176.6-12.33-11.84h174.13l-11.35,11.84-75-176.6Z" transform="translate(-138.07 -80.43)"/><path class="cls-1" d="M3424.78,602.12q-12.33,0-19-6.91t-6.66-19.73V419.11l11.35,32.56-121.84-169.2a23.33,23.33,0,0,1-4.93-15.54,19.7,19.7,0,0,1,6.66-13.81q6.16-5.67,16.53-5.67a28,28,0,0,1,14.55,4q6.66,4,12.58,12.33l97.67,135.65h-11.84l97.67-135.65q6.41-8.88,12.33-12.58t14.8-3.7q10.37,0,16,5.18a18,18,0,0,1,5.92,13.32q.24,8.15-6.17,17L3439.58,451.68l10.36-32.56V575.49Q3449.94,602.12,3424.78,602.12Z" transform="translate(-138.07 -80.43)"/><path class="cls-2" d="M562.89,80.43h0c234.62,0,424.82,190.2,424.82,424.82h0c0,234.62-190.2,424.82-424.82,424.82h0c-234.62,0-424.82-190.2-424.82-424.82h0C138.07,270.63,328.27,80.43,562.89,80.43Z" transform="translate(-138.07 -80.43)"/><path class="cls-3" d="M671.6,322.07c-3.32.86-32.15,28.2-64.07,60.76-41.41,42.23-57.9,61.26-57.52,66.4.88,12,39,99.81,43.37,99.81,2.22,0,16-12.76,30.65-28.36s63.41-65.76,108.39-111.47,81.78-84.54,81.78-86.3C814.2,319.72,683.59,319,671.6,322.07ZM374,352.67c2.17,8.63,7,20.61,45.63,112.06,9,21.33,17.95,42.95,19.89,48s4.87,9.27,6.53,9.27,20.06-17.61,40.9-39.13c41.67-43,41.54-42.67,28-70.83C508.62,398.67,500.9,394.8,405,356.74l-33.21-13.18Zm44.5,220.82c-60.35,61.67-108.46,113.43-106.91,115s34.95,2.34,74.22,1.69l71.4-1.19,58.69-60.7c32.28-33.39,58.72-63.37,58.76-66.63.06-5.14-9.6-29.69-33.84-86-3.4-7.89-7.61-14.33-9.38-14.33S478.89,511.82,418.54,573.49Zm218.69-46.27C616,549.42,598.6,569.1,598.66,571s4.19,11.67,9.18,21.82l9.08,18.45,63.93,26.23c55.94,22.95,72.65,28.79,72.65,25.36,0-.48-11.45-28.18-25.45-61.55s-29.39-70.54-34.21-82.59C679.06,481.68,681.17,481.36,637.23,527.22Z" transform="translate(-138.07 -80.43)"/><path class="cls-4" d="M1121.19,810.91a7.48,7.48,0,0,1-7.56-7.56V703.05a10.8,10.8,0,0,1,3.2-7.81,10.35,10.35,0,0,1,7.72-3.28h5.55a10.49,10.49,0,0,1,6.21,2,10.94,10.94,0,0,1,4,5l38.13,95.09L1216.62,699a12.31,12.31,0,0,1,4.11-5,10.16,10.16,0,0,1,6.14-2h5.54a10.39,10.39,0,0,1,7.73,3.28,10.83,10.83,0,0,1,3.19,7.81v100.3a7.46,7.46,0,0,1-7.56,7.56,7.57,7.57,0,0,1-5.46-2.19,7.17,7.17,0,0,1-2.27-5.37V707.92l-38.81,95.93A11.26,11.26,0,0,1,1185,809a12,12,0,0,1-13.1,0,11.26,11.26,0,0,1-4.2-5.12l-38.81-95.93v95.43a7.13,7.13,0,0,1-2.27,5.37A7.57,7.57,0,0,1,1121.19,810.91Z" transform="translate(-138.07 -80.43)"/><path class="cls-4" d="M1343.87,810.91a7.19,7.19,0,0,1-5.55-2.19,7.63,7.63,0,0,1-2-5.37,9.11,9.11,0,0,1,.84-3.36L1380,698.85a13.41,13.41,0,0,1,3.61-4.79,9.05,9.05,0,0,1,6.13-2.1h1.68a9,9,0,0,1,6.22,2.1,13.89,13.89,0,0,1,3.53,4.79L1444,800a9.11,9.11,0,0,1,.84,3.36,7.64,7.64,0,0,1-2,5.37,7.15,7.15,0,0,1-5.54,2.19,7.25,7.25,0,0,1-7.23-4.71L1419.13,780H1362l-10.92,26.21A7.24,7.24,0,0,1,1343.87,810.91Zm24-44.86h45.36l-22.68-54.6Z" transform="translate(-138.07 -80.43)"/><path class="cls-4" d="M1545.37,810.49a7.48,7.48,0,0,1-7.56-7.56V700.11a7.57,7.57,0,0,1,2.19-5.46,7.17,7.17,0,0,1,5.37-2.27h39.15q16,0,26,4.54t14.87,12.18a32.09,32.09,0,0,1,4.78,17.39,32.67,32.67,0,0,1-5.46,18.14q-5.46,8.4-16.54,12.26a22,22,0,0,1,11.25,6.64,32.31,32.31,0,0,1,6.3,10.84,55.27,55.27,0,0,1,2.77,11.67,80.6,80.6,0,0,1,.68,9.16v7.73a7.48,7.48,0,0,1-7.56,7.56,7.64,7.64,0,0,1-5.63-2.1,7.39,7.39,0,0,1-2.1-5.46v-5q0-4.2-.59-9.92a38.75,38.75,0,0,0-2.94-11.25,20.84,20.84,0,0,0-7.64-9.16q-5.3-3.62-14.87-3.61H1553.1v39a7.13,7.13,0,0,1-2.27,5.37A7.57,7.57,0,0,1,1545.37,810.49Zm7.73-61h30.41q14.12,0,22.76-5.54t8.66-16.3a20.68,20.68,0,0,0-2.86-10.92q-2.85-4.69-9.91-7.31t-19.49-2.6H1553.1Z" transform="translate(-138.07 -80.43)"/><path class="cls-4" d="M1734.05,809a7.45,7.45,0,0,1-7.56-7.56V697.76a7.6,7.6,0,0,1,2.18-5.46,7.19,7.19,0,0,1,5.38-2.27,7.75,7.75,0,0,1,7.73,7.73v53.42l57.45-58.46a8.26,8.26,0,0,1,2.36-1.85A6.76,6.76,0,0,1,1805,690a7.24,7.24,0,0,1,5.2,2.1,5.86,5.86,0,0,1,1.85,5.12,7.58,7.58,0,0,1-1.85,4.71l-38.8,38.64,44.52,56.11a7.8,7.8,0,0,1,1.84,4.87,6.57,6.57,0,0,1-2,5.21,7.34,7.34,0,0,1-5.38,2.18,7,7,0,0,1-6-3l-43.34-55.27L1741.78,770v31.41a7.18,7.18,0,0,1-2.27,5.38A7.6,7.6,0,0,1,1734.05,809Z" transform="translate(-138.07 -80.43)"/><path class="cls-4" d="M1918.26,808.13a7.46,7.46,0,0,1-7.56-7.56v-102a7.57,7.57,0,0,1,2.19-5.46,7.15,7.15,0,0,1,5.37-2.27h67.37a7.17,7.17,0,0,1,7.23,7.22,6.72,6.72,0,0,1-2.1,5,7.12,7.12,0,0,1-5.13,2H1926v37.13h53.59a7.17,7.17,0,0,1,7.23,7.22,6.69,6.69,0,0,1-2.1,5,7.11,7.11,0,0,1-5.13,2H1926v37.29h59.64a7.17,7.17,0,0,1,7.23,7.23,6.75,6.75,0,0,1-2.1,5,7.16,7.16,0,0,1-5.13,2Z" transform="translate(-138.07 -80.43)"/><path class="cls-4" d="M2134.72,810.49a7.48,7.48,0,0,1-7.56-7.56V706.66h-34.27a6.89,6.89,0,0,1-7.06-7,7.15,7.15,0,0,1,2-5.13,6.69,6.69,0,0,1,5-2.1h83.66a7.17,7.17,0,0,1,7.23,7.23,6.72,6.72,0,0,1-2.1,5,7.14,7.14,0,0,1-5.13,2h-34.1v96.27a7.17,7.17,0,0,1-2.27,5.37A7.57,7.57,0,0,1,2134.72,810.49Z" transform="translate(-138.07 -80.43)"/><path class="cls-4" d="M2284.31,809a7.45,7.45,0,0,1-7.55-7.56V698.6a7.56,7.56,0,0,1,2.18-5.46,7.17,7.17,0,0,1,5.37-2.27h38.31q12.77,0,21.42,3.28a35.85,35.85,0,0,1,13.77,8.73,33.61,33.61,0,0,1,7.4,12,40,40,0,0,1,0,26.55,33.52,33.52,0,0,1-7.4,12,36,36,0,0,1-13.77,8.74q-8.65,3.27-21.42,3.27H2292v35.95a7.14,7.14,0,0,1-2.27,5.38A7.6,7.6,0,0,1,2284.31,809Zm7.73-58h29.07q12.6,0,19.32-3.44t9.24-8.74a24,24,0,0,0,0-21.42q-2.52-5.2-9.24-8.65t-19.32-3.44H2292Z" transform="translate(-138.07 -80.43)"/><path class="cls-4" d="M2474.66,808.13a10.6,10.6,0,0,1-10.58-10.58V697.76a7.6,7.6,0,0,1,2.18-5.46,7.19,7.19,0,0,1,5.38-2.27,7.75,7.75,0,0,1,7.73,7.73v95.09h54.93a7.73,7.73,0,0,1,7.73,7.72,7.14,7.14,0,0,1-2.27,5.38,7.56,7.56,0,0,1-5.46,2.18Z" transform="translate(-138.07 -80.43)"/><path class="cls-4" d="M2642.57,807.29a7.18,7.18,0,0,1-5.54-2.18,7.6,7.6,0,0,1-2-5.38,9.2,9.2,0,0,1,.84-3.36l42.84-101.13a13.41,13.41,0,0,1,3.61-4.79,9.05,9.05,0,0,1,6.13-2.1h1.68a9,9,0,0,1,6.22,2.1,13.89,13.89,0,0,1,3.53,4.79l42.84,101.13a9.2,9.2,0,0,1,.84,3.36,7.6,7.6,0,0,1-2,5.38,8,8,0,0,1-12.77-2.52l-10.92-26.21h-57.12l-10.92,26.21A7.23,7.23,0,0,1,2642.57,807.29Zm24-44.85H2712l-22.68-54.6Z" transform="translate(-138.07 -80.43)"/><path class="cls-4" d="M2895.32,808.13a61.44,61.44,0,0,1-30-7.3A53.49,53.49,0,0,1,2844.24,780q-7.72-13.51-7.72-32.17,0-18.81,7.72-32.25a53.59,53.59,0,0,1,21.09-20.75,61.45,61.45,0,0,1,30-7.31,68.43,68.43,0,0,1,21.5,3,94.87,94.87,0,0,1,16.8,7.4,6.4,6.4,0,0,1,2.6,2.26,8,8,0,0,1,1.1,3.78,6.16,6.16,0,0,1-1.68,4.71,6.53,6.53,0,0,1-5,2,6.68,6.68,0,0,1-3-.67,81.89,81.89,0,0,0-13.77-5.71,58.07,58.07,0,0,0-17-2.18q-14.79,0-24.87,6a38.51,38.51,0,0,0-15.12,16.38,56.24,56.24,0,0,0,0,46.54A38.4,38.4,0,0,0,2872,787.47q10.08,6,24.87,6a57.71,57.71,0,0,0,17-2.19,81.07,81.07,0,0,0,13.77-5.71,6.81,6.81,0,0,1,3-.67,6.5,6.5,0,0,1,5,2,6.14,6.14,0,0,1,1.68,4.7,8,8,0,0,1-1.1,3.78,6.42,6.42,0,0,1-2.6,2.27,95.58,95.58,0,0,1-16.8,7.39A68.14,68.14,0,0,1,2895.32,808.13Z" transform="translate(-138.07 -80.43)"/><path class="cls-4" d="M3037.87,806.45a7.45,7.45,0,0,1-7.56-7.56v-102a7.56,7.56,0,0,1,2.18-5.46,7.19,7.19,0,0,1,5.38-2.27h67.37a7.17,7.17,0,0,1,7.22,7.22,6.69,6.69,0,0,1-2.1,5,7.1,7.1,0,0,1-5.12,2H3045.6V740.6h53.59a7.17,7.17,0,0,1,7.22,7.22,6.69,6.69,0,0,1-2.1,5,7.1,7.1,0,0,1-5.12,2H3045.6v37.29h59.64a7.17,7.17,0,0,1,7.22,7.23,6.72,6.72,0,0,1-2.1,5,7.13,7.13,0,0,1-5.12,2Z" transform="translate(-138.07 -80.43)"/></svg>