<svg xmlns="http://www.w3.org/2000/svg" xmlns:xlink="http://www.w3.org/1999/xlink" viewBox="0 0 3428.51 849.64"><defs><style>.cls-1{fill:#fff;}.cls-2{fill-rule:evenodd;fill:url(#linear-gradient);}</style><linearGradient id="linear-gradient" x1="173.48" y1="424.83" x2="676.13" y2="424.83" gradientUnits="userSpaceOnUse"><stop offset="0" stop-color="#7553fc"/><stop offset="1" stop-color="#5b7af5"/></linearGradient></defs><g id="Layer_2" data-name="Layer 2"><g id="Layer_1-2" data-name="Layer 1"><path class="cls-1" d="M983.08,521.69q-9.87,0-16.28-5.18a19.51,19.51,0,0,1-7.4-13.32q-1-8.15,5.43-16.53l116.42-156.37V351l-110-148q-6.42-8.88-5.67-17.26a18.89,18.89,0,0,1,7.15-13.57q6.4-5.18,15.79-5.18a26.72,26.72,0,0,1,14.06,3.7q6.17,3.7,12.58,12.58l95.7,131.21h-15.79l94.71-131.21q6.4-8.88,12.58-12.58a27.69,27.69,0,0,1,14.55-3.7q9.85,0,16.28,5.18a18.65,18.65,0,0,1,7.15,13.32q.73,8.15-6.17,17.51l-110,148V330.29l115.92,156.37q6.4,8.4,5.67,16.53a18.65,18.65,0,0,1-7.15,13.32q-6.42,5.18-16.77,5.18a25.86,25.86,0,0,1-13.81-4q-6.42-3.95-13.32-12.33L1093.09,366.3h18.75L1010.72,505.41q-6.42,8.4-13.07,12.33A28.18,28.18,0,0,1,983.08,521.69Z"/><path class="cls-1" d="M1510.93,522.68q-52.79,0-90.27-21.7t-57.47-61.91q-20-40.2-20-95,0-40.93,11.35-73.75t32.8-56.24q21.47-23.43,52.78-35.76T1510.93,166a198.3,198.3,0,0,1,56,7.89q26.88,7.89,46.62,22.69,8.39,5.43,11.1,13.07a25,25,0,0,1,1,14.55,23.53,23.53,0,0,1-6.66,11.59,19.39,19.39,0,0,1-12.58,5.18q-7.65.5-16.52-5.43a112.72,112.72,0,0,0-36-18.25,143.53,143.53,0,0,0-41.44-5.92q-37.5,0-63.14,15.54t-39,45.14q-13.32,29.61-13.32,72t13.32,72.27q13.32,29.85,39,45.38t63.14,15.54a140.51,140.51,0,0,0,41.68-6.17,136.41,136.41,0,0,0,37.74-18.5q8.88-5.43,16-4.93A19.53,19.53,0,0,1,1620,452.6a22.07,22.07,0,0,1,6.66,11.1,24.77,24.77,0,0,1-.49,13.81q-2.22,7.15-9.62,12.09-20.24,16.27-47.85,24.66A197.31,197.31,0,0,1,1510.93,522.68Z"/><path class="cls-1" d="M1765.43,518.24q-13.32,0-20.47-7.15t-7.15-20.47V198.09q0-13.32,7.15-20.47t20.47-7.15h180c6.91,0,12.16,1.73,15.79,5.18s5.43,8.47,5.43,15q0,10.37-5.43,15.79t-15.79,5.43H1787.13v109h147.49q10.85,0,16,5.43t5.18,15.29q0,10.37-5.18,15.54t-16,5.18H1787.13V476.82h158.35c6.91,0,12.16,1.81,15.79,5.43s5.43,8.72,5.43,15.29q0,10.36-5.43,15.54t-15.79,5.18h-180Z"/><path class="cls-1" d="M2103.82,518.24q-12.33,0-19.24-6.91t-6.91-19.24V194.64q0-12.82,6.66-19.49t19-6.66q12.33,0,19,6.66t6.66,19.49v279.7h152.94q10.84,0,16.77,5.67t5.92,16q0,10.37-5.92,16.28t-16.77,6Z"/><path class="cls-1" d="M2424.93,521.69q-12.33,0-19-6.91t-6.64-19.21v-299q0-12.82,6.91-19.48t19.24-6.66h117.9q56.23,0,86.82,27.87t30.58,78.27q0,50.82-30.58,78.68t-86.82,27.87H2450.6V495.57q0,12.33-6.41,19.24T2424.93,521.69Zm25.65-179.56h85.35q37,0,56-16.53t19-49q0-32.06-19-48.59t-56-16.53h-85.34Z"/><path class="cls-1" d="M2763.34,521.69q-9.87,0-15.79-4.44a17.07,17.07,0,0,1-6.91-11.84q-1-7.4,3-16.77l133.68-299.92q4.92-11.83,12.58-16.77a30.76,30.76,0,0,1,17-4.93,30,30,0,0,1,16.53,4.93q7.64,4.94,12.58,16.77l133.68,299.92q4.44,9.38,3.45,17a17,17,0,0,1-6.41,11.84q-5.43,4.18-15.29,4.19-10.86,0-17.27-5.43t-11.35-16.77l-34.55-79.9,23.18,13.81H2801.31L2824,419.57l-34,79.91q-4.93,11.83-10.85,17T2763.34,521.69ZM2905.93,227.2l-74.49,176.6L2819.11,392h174.13l-11.35,11.84-75-176.6Z"/><path class="cls-1" d="M3286.71,521.69q-12.33,0-19-6.91t-6.66-19.73V338.68l11.35,32.56L3150.56,202a23.33,23.33,0,0,1-4.93-15.54,19.72,19.72,0,0,1,6.66-13.81q6.16-5.67,16.53-5.67a28,28,0,0,1,14.55,4q6.66,4,12.58,12.33L3293.62,319h-11.84l97.67-135.65q6.4-8.88,12.33-12.58t14.8-3.7q10.36,0,16,5.18a18,18,0,0,1,5.92,13.32q.24,8.15-6.17,17L3301.51,371.25l10.36-32.56V495.06Q3311.87,521.68,3286.71,521.69Z"/><path class="cls-1" d="M424.82,0h0C659.44,0,849.64,190.2,849.64,424.82h0c0,234.62-190.2,424.82-424.82,424.82h0C190.2,849.64,0,659.44,0,424.82H0C0,190.2,190.2,0,424.82,0Z"/><path class="cls-2" d="M533.53,241.64c-3.32.86-32.15,28.2-64.07,60.76-41.41,42.23-57.9,61.26-57.52,66.4.88,12,39,99.81,43.37,99.81,2.22,0,16-12.76,30.65-28.36s63.41-65.76,108.39-111.47,81.78-84.54,81.78-86.3C676.13,239.29,545.52,238.57,533.53,241.64Zm-297.6,30.6c2.17,8.63,7,20.61,45.63,112.06,9,21.33,17.95,42.95,19.89,48s4.87,9.27,6.53,9.27S328,424,348.88,402.44c41.67-43,41.54-42.67,28-70.83-6.33-13.37-14.05-17.24-109.95-55.3l-33.21-13.18Zm44.5,220.82c-60.35,61.67-108.46,113.43-106.91,115s34.95,2.34,74.22,1.69l71.4-1.19,58.69-60.7c32.28-33.39,58.72-63.37,58.76-66.63.06-5.14-9.6-29.69-33.84-86-3.4-7.89-7.61-14.33-9.38-14.33s-52.55,50.49-112.9,112.16Zm218.69-46.27c-21.19,22.2-38.59,41.88-38.53,43.78s4.19,11.67,9.18,21.82l9.08,18.45,63.93,26.23c55.94,22.95,72.65,28.79,72.65,25.36,0-.48-11.45-28.18-25.45-61.55s-29.39-70.54-34.21-82.59c-14.78-37-12.67-37.36-56.61,8.5Z"/><path class="cls-1" d="M983.12,730.48a7.48,7.48,0,0,1-7.56-7.4V622.62a10.79,10.79,0,0,1,3.2-7.81,10.34,10.34,0,0,1,7.72-3.28H992a10.5,10.5,0,0,1,6.21,2,11,11,0,0,1,4,5l38.13,95.09,38.18-95a12.35,12.35,0,0,1,4.11-5,10.12,10.12,0,0,1,6.14-2h5.54a10.41,10.41,0,0,1,7.73,3.28,10.8,10.8,0,0,1,3.19,7.81V723a7.46,7.46,0,0,1-7.36,7.56h-.2a7.54,7.54,0,0,1-5.46-2.19A7.18,7.18,0,0,1,1090,723V627.49l-38.81,95.93a11.27,11.27,0,0,1-4.23,5.15,12,12,0,0,1-13.1,0,11.31,11.31,0,0,1-4.2-5.12l-38.81-95.93V723a7.13,7.13,0,0,1-2.27,5.37A7.54,7.54,0,0,1,983.12,730.48Z"/><path class="cls-1" d="M1205.8,730.48a7.19,7.19,0,0,1-5.55-2.19,7.61,7.61,0,0,1-2-5.37,9.14,9.14,0,0,1,.84-3.36l42.84-101.14a13.41,13.41,0,0,1,3.61-4.79,9.06,9.06,0,0,1,6.13-2.1h1.68a9,9,0,0,1,6.22,2.1,13.92,13.92,0,0,1,3.53,4.79l42.83,101.15a9.14,9.14,0,0,1,.84,3.36,7.61,7.61,0,0,1-2,5.37,7.15,7.15,0,0,1-5.54,2.19,7.25,7.25,0,0,1-7.23-4.71l-10.94-26.21h-57.13L1213,725.78A7.24,7.24,0,0,1,1205.8,730.48Zm24-44.86h45.36L1252.48,631Z"/><path class="cls-1" d="M1407.3,730.06a7.48,7.48,0,0,1-7.56-7.4v-103a7.54,7.54,0,0,1,2.19-5.46,7.18,7.18,0,0,1,5.37-2.27h39.15q16,0,26,4.54t14.87,12.18a32.14,32.14,0,0,1,4.78,17.39,32.69,32.69,0,0,1-5.46,18.14q-5.46,8.4-16.54,12.26a22,22,0,0,1,11.25,6.64,32.26,32.26,0,0,1,6.3,10.84,55.7,55.7,0,0,1,2.77,11.67,80.3,80.3,0,0,1,.68,9.16v7.73a7.48,7.48,0,0,1-7.4,7.56h-.16a7.64,7.64,0,0,1-5.63-2.1,7.39,7.39,0,0,1-2.1-5.46v-5q0-4.2-.59-9.92a38.77,38.77,0,0,0-2.94-11.25,20.87,20.87,0,0,0-7.64-9.16q-5.3-3.61-14.87-3.61H1415v39a7.13,7.13,0,0,1-2.27,5.37A7.6,7.6,0,0,1,1407.3,730.06Zm7.73-61h30.41q14.11,0,22.76-5.54t8.66-16.3A20.64,20.64,0,0,0,1474,636.3q-2.85-4.69-9.91-7.31t-19.49-2.6H1415Z"/><path class="cls-1" d="M1596,728.57a7.45,7.45,0,0,1-7.56-7.34V617.33a7.57,7.57,0,0,1,2.18-5.46,7.2,7.2,0,0,1,5.38-2.27,7.75,7.75,0,0,1,7.73,7.73v53.42l57.45-58.46a8.3,8.3,0,0,1,2.36-1.85,6.69,6.69,0,0,1,3.41-.87,7.22,7.22,0,0,1,5.2,2.1,5.86,5.86,0,0,1,1.85,5.12,7.56,7.56,0,0,1-1.85,4.71l-38.8,38.64,44.52,56.11a7.81,7.81,0,0,1,1.84,4.87,6.56,6.56,0,0,1-2,5.21,7.33,7.33,0,0,1-5.38,2.18,7,7,0,0,1-6-3L1623,670.24l-19.26,19.33V721a7.2,7.2,0,0,1-2.27,5.38A7.6,7.6,0,0,1,1596,728.57Z"/><path class="cls-1" d="M1780.19,727.7a7.46,7.46,0,0,1-7.56-7.36V618.14a7.54,7.54,0,0,1,2.19-5.46,7.14,7.14,0,0,1,5.37-2.27h67.37a7.17,7.17,0,0,1,7.23,7.11v.11a6.74,6.74,0,0,1-2.1,5,7.1,7.1,0,0,1-5.13,2h-59.63v37.13h53.59a7.17,7.17,0,0,1,7.23,7.11V669a6.7,6.7,0,0,1-2.1,5,7.1,7.1,0,0,1-5.13,2h-53.59v37.29h59.64a7.17,7.17,0,0,1,7.23,7.11v.12a6.74,6.74,0,0,1-2.1,5,7.2,7.2,0,0,1-5.13,2Z"/><path class="cls-1" d="M1996.65,730.06a7.48,7.48,0,0,1-7.56-7.4V626.23h-34.27a6.9,6.9,0,0,1-7.06-6.72v-.28a7.14,7.14,0,0,1,2-5.13,6.7,6.7,0,0,1,5-2.1h83.66a7.17,7.17,0,0,1,7.23,7.11v.12a6.74,6.74,0,0,1-2.1,5,7.1,7.1,0,0,1-5.13,2h-34.1V722.5a7.18,7.18,0,0,1-2.27,5.37A7.58,7.58,0,0,1,1996.65,730.06Z"/><path class="cls-1" d="M2146.24,728.57a7.45,7.45,0,0,1-7.55-7.35V618.17a7.57,7.57,0,0,1,2.18-5.46,7.18,7.18,0,0,1,5.37-2.27h38.31q12.76,0,21.42,3.28a35.8,35.8,0,0,1,13.77,8.73,33.53,33.53,0,0,1,7.4,12,40,40,0,0,1,0,26.55,33.53,33.53,0,0,1-7.4,12,35.94,35.94,0,0,1-13.77,8.74q-8.66,3.27-21.42,3.27h-30.62v36a7.16,7.16,0,0,1-2.27,5.38A7.61,7.61,0,0,1,2146.24,728.57Zm7.73-58H2183q12.6,0,19.32-3.44t9.24-8.74a24,24,0,0,0,0-21.42q-2.52-5.21-9.24-8.65T2183,624.88h-29.11Z"/><path class="cls-1" d="M2336.59,727.7A10.6,10.6,0,0,1,2326,717.12V617.33a7.57,7.57,0,0,1,2.18-5.46,7.2,7.2,0,0,1,5.38-2.27,7.75,7.75,0,0,1,7.73,7.73v95.09h54.93a7.73,7.73,0,0,1,7.73,7.72,7.16,7.16,0,0,1-2.27,5.38,7.57,7.57,0,0,1-5.46,2.18Z"/><path class="cls-1" d="M2504.5,726.86a7.18,7.18,0,0,1-5.54-2.18,7.62,7.62,0,0,1-2-5.38,9.14,9.14,0,0,1,.84-3.36l42.84-101.13a13.41,13.41,0,0,1,3.61-4.79,9.06,9.06,0,0,1,6.13-2.1h1.68a9,9,0,0,1,6.22,2.1,13.92,13.92,0,0,1,3.53,4.79l42.84,101.13a9.14,9.14,0,0,1,.84,3.36,7.62,7.62,0,0,1-2,5.38,8,8,0,0,1-12.77-2.52L2579.8,696h-57.12l-10.92,26.21A7.24,7.24,0,0,1,2504.5,726.86Zm24-44.85h45.43l-22.68-54.6Z"/><path class="cls-1" d="M2757.25,727.7a61.42,61.42,0,0,1-30-7.3,53.45,53.45,0,0,1-21.08-20.83q-7.73-13.52-7.72-32.17,0-18.81,7.72-32.25a53.54,53.54,0,0,1,21.09-20.75,61.4,61.4,0,0,1,30-7.31,68.37,68.37,0,0,1,21.5,3,95.27,95.27,0,0,1,16.8,7.4,6.32,6.32,0,0,1,2.6,2.26,8,8,0,0,1,1.1,3.78,6.16,6.16,0,0,1-1.68,4.71,6.55,6.55,0,0,1-5,2,6.75,6.75,0,0,1-3-.67,81.91,81.91,0,0,0-13.77-5.71,58.15,58.15,0,0,0-17-2.18q-14.79,0-24.87,6a38.58,38.58,0,0,0-15.12,16.38,56.24,56.24,0,0,0,0,46.54A38.41,38.41,0,0,0,2733.93,707q10.08,6,24.87,6a57.83,57.83,0,0,0,17-2.19,81.23,81.23,0,0,0,13.77-5.71,6.78,6.78,0,0,1,3-.67,6.48,6.48,0,0,1,5,2,6.15,6.15,0,0,1,1.68,4.7,8,8,0,0,1-1.1,3.78,6.42,6.42,0,0,1-2.6,2.27,95.55,95.55,0,0,1-16.8,7.39A68.12,68.12,0,0,1,2757.25,727.7Z"/><path class="cls-1" d="M2899.8,726a7.45,7.45,0,0,1-7.56-7.34V616.46a7.57,7.57,0,0,1,2.18-5.46,7.2,7.2,0,0,1,5.38-2.27h67.37a7.17,7.17,0,0,1,7.22,7.12v.1a6.7,6.7,0,0,1-2.1,5,7.07,7.07,0,0,1-5.12,2h-59.64v37.22h53.59a7.17,7.17,0,0,1,7.22,7.12v.1a6.7,6.7,0,0,1-2.1,5,7.07,7.07,0,0,1-5.12,2h-53.59v37.29h59.64a7.17,7.17,0,0,1,7.22,7.12v.11a6.74,6.74,0,0,1-2.1,5,7.16,7.16,0,0,1-5.12,2Z"/></g></g></svg>