<svg width="3444" height="850" viewBox="0 0 3444 850" fill="none" xmlns="http://www.w3.org/2000/svg">
<rect y="0.259766" width="849.64" height="849.64" rx="424.82" fill="url(#paint0_linear_1371_567)"/>
<path fill-rule="evenodd" clip-rule="evenodd" d="M533.521 241.901C530.206 242.761 501.373 270.103 469.447 302.66C428.038 344.888 411.551 363.922 411.928 369.058C412.809 381.057 450.967 468.869 455.3 468.869C457.522 468.869 471.315 456.108 485.955 440.508C500.594 424.911 549.368 374.747 594.348 329.035C639.328 283.323 676.127 244.491 676.127 242.737C676.127 239.55 545.513 238.781 533.521 241.901ZM235.963 272.498C238.132 281.131 243.005 293.103 281.594 384.561C290.592 405.891 299.542 427.514 301.481 432.616C303.417 437.719 306.354 441.89 308.007 441.89C309.656 441.89 328.065 424.283 348.91 402.764C390.582 359.75 390.447 360.091 376.961 331.932C370.536 318.517 362.817 314.639 266.898 276.582L233.684 263.403L235.963 272.498ZM280.461 493.318C220.11 554.988 171.997 606.744 173.548 608.325C175.096 609.907 208.496 610.666 247.767 610.011L319.169 608.821L377.861 548.119C410.141 514.733 436.584 484.746 436.621 481.485C436.681 476.342 427.016 451.795 402.776 395.521C399.38 387.636 395.161 381.188 393.398 381.188C391.634 381.188 340.813 431.649 280.461 493.318ZM499.154 447.053C477.885 469.253 460.527 488.934 460.585 490.789C460.642 492.644 464.776 502.464 469.767 512.612L478.846 531.062L542.775 557.295C598.712 580.247 615.425 586.081 615.425 582.655C615.425 582.176 603.973 554.479 589.974 521.11C575.976 487.741 560.581 450.574 555.765 438.518C540.981 401.51 543.099 401.193 499.154 447.053Z" fill="white"/>
<path d="M1384.78 655.008H1266.08L1177.21 495.682L1083.26 655.008H969.641L1120.08 416.653L976.94 187.186H1093.74L1177.21 339.212L1262.9 187.186H1375.89L1232.75 412.845L1384.78 655.008Z" fill="#2D3E6A"/>
<path d="M1734.22 433.157H1641.54C1639.85 420.25 1635.51 408.613 1628.53 398.245C1618.37 384.28 1602.61 377.298 1581.24 377.298C1550.77 377.298 1529.93 392.426 1518.71 422.684C1512.79 438.764 1509.83 460.135 1509.83 486.795C1509.83 512.186 1512.79 532.604 1518.71 548.05C1529.5 576.826 1549.82 591.214 1579.65 591.214C1600.81 591.214 1615.83 585.501 1624.72 574.075C1633.61 562.649 1639 547.838 1640.91 529.642H1733.26C1731.15 557.148 1721.2 583.174 1703.43 607.718C1675.08 647.285 1633.08 667.068 1577.43 667.068C1521.78 667.068 1480.84 650.564 1454.6 617.557C1428.36 584.549 1415.25 541.702 1415.25 489.017C1415.25 429.56 1429.74 383.328 1458.73 350.32C1487.72 317.312 1527.71 300.809 1578.7 300.809C1622.07 300.809 1657.51 310.542 1685.02 330.008C1712.74 349.474 1729.14 383.857 1734.22 433.157Z" fill="#2D3E6A"/>
<path d="M2092.86 553.445C2090.53 573.969 2079.85 594.811 2060.8 615.97C2031.18 649.612 1989.71 666.434 1936.39 666.434C1892.38 666.434 1853.55 652.257 1819.91 623.904C1786.27 595.551 1769.45 549.425 1769.45 485.525C1769.45 425.646 1784.57 379.731 1814.83 347.781C1845.3 315.831 1884.76 299.856 1933.21 299.856C1961.99 299.856 1987.91 305.252 2010.97 316.043C2034.04 326.834 2053.08 343.867 2068.1 367.142C2081.64 387.666 2090.43 411.469 2094.45 438.553C2096.77 454.422 2097.72 477.273 2097.3 507.107H1860.53C1861.8 541.808 1872.7 566.141 1893.22 580.105C1905.71 588.781 1920.73 593.118 1938.29 593.118C1956.91 593.118 1972.04 587.828 1983.68 577.249C1990.03 571.536 1995.63 563.602 2000.5 553.445H2092.86ZM2003.36 447.439C2001.88 423.53 1994.58 405.439 1981.46 393.167C1968.55 380.683 1952.47 374.441 1933.21 374.441C1912.27 374.441 1895.98 381.001 1884.34 394.119C1872.91 407.238 1865.72 425.011 1862.76 447.439H2003.36Z" fill="#2D3E6A"/>
<path d="M2160.46 187.186H2250.92V655.008H2160.46V187.186Z" fill="#2D3E6A"/>
<path d="M2545.45 486.795H2446.11V655.008H2348.99V187.186H2552.75C2599.72 187.186 2637.17 199.246 2665.1 223.367C2693.03 247.488 2706.99 284.834 2706.99 335.403C2706.99 390.628 2693.03 429.666 2665.1 452.518C2637.17 475.369 2597.29 486.795 2545.45 486.795ZM2591.15 389.358C2603.84 378.144 2610.19 360.371 2610.19 336.038C2610.19 311.705 2603.74 294.355 2590.83 283.987C2578.14 273.619 2560.26 268.436 2537.19 268.436H2446.11V406.18H2537.19C2560.26 406.18 2578.24 400.573 2591.15 389.358Z" fill="#2D3E6A"/>
<path d="M2786.02 346.512C2809.93 316.043 2850.98 300.809 2909.17 300.809C2947.04 300.809 2980.68 308.32 3010.09 323.343C3039.51 338.366 3054.21 366.718 3054.21 408.401V567.093C3054.21 578.095 3054.42 591.425 3054.85 607.083C3055.48 618.932 3057.28 626.972 3060.24 631.204C3063.2 635.436 3067.65 638.927 3073.57 641.678V655.008H2975.18C2972.43 648.025 2970.53 641.466 2969.47 635.33C2968.41 629.194 2967.57 622.212 2966.93 614.383C2954.45 627.924 2940.06 639.456 2923.77 648.978C2904.3 660.192 2882.3 665.799 2857.75 665.799C2826.44 665.799 2800.52 656.912 2779.99 639.139C2759.68 621.154 2749.52 595.763 2749.52 562.967C2749.52 520.438 2765.92 489.651 2798.72 470.608C2816.7 460.241 2843.15 452.835 2878.06 448.392L2908.85 444.583C2925.57 442.467 2937.52 439.822 2944.71 436.648C2957.62 431.147 2964.07 422.578 2964.07 410.94C2964.07 396.764 2959.1 387.031 2949.16 381.741C2939.42 376.24 2925.04 373.489 2905.99 373.489C2884.62 373.489 2869.49 378.779 2860.61 389.358C2854.26 397.187 2850.03 407.767 2847.91 421.097H2760.63C2762.54 390.84 2771 365.978 2786.02 346.512ZM2853.31 589.627C2861.77 596.609 2872.14 600.101 2884.41 600.101C2903.88 600.101 2921.76 594.388 2938.05 582.962C2954.55 571.536 2963.12 550.695 2963.76 520.438V486.795C2958.04 490.392 2952.23 493.354 2946.3 495.682C2940.59 497.798 2932.65 499.808 2922.5 501.712L2902.18 505.521C2883.14 508.906 2869.49 513.032 2861.24 517.898C2847.28 526.15 2840.29 538.951 2840.29 556.302C2840.29 571.748 2844.63 582.856 2853.31 589.627Z" fill="#2D3E6A"/>
<path d="M3275.43 564.236L3346.84 309.061H3443L3324.3 649.295C3301.45 714.887 3283.36 755.512 3270.03 771.17C3256.7 787.039 3230.04 794.974 3190.05 794.974C3182.01 794.974 3175.56 794.868 3170.69 794.656C3165.82 794.656 3158.52 794.339 3148.79 793.704V721.341L3160.22 721.976C3169.1 722.399 3177.57 722.081 3185.61 721.023C3193.65 719.965 3200.42 717.532 3205.92 713.724C3211.21 710.127 3216.08 702.615 3220.52 691.189C3225.17 679.764 3227.08 672.781 3226.23 670.242L3099.28 309.061H3199.89L3275.43 564.236Z" fill="#2D3E6A"/>
<defs>
<linearGradient id="paint0_linear_1371_567" x1="584.023" y1="268.49" x2="193.182" y2="629.142" gradientUnits="userSpaceOnUse">
<stop stop-color="#7553FC"/>
<stop offset="1" stop-color="#5B7AF5"/>
</linearGradient>
</defs>
</svg>
