<?xml version="1.0" encoding="utf-8"?>
<!-- Generator: Adobe Illustrator 26.3.1, SVG Export Plug-In . SVG Version: 6.00 Build 0)  -->
<svg version="1.1" id="Layer_1" xmlns="http://www.w3.org/2000/svg" xmlns:xlink="http://www.w3.org/1999/xlink" x="0px" y="0px"
	 viewBox="0 0 3676.5 1010.5" style="enable-background:new 0 0 3676.5 1010.5;" xml:space="preserve">
<style type="text/css">
	.st0{fill:url(#SVGID_1_);}
	.st1{fill-rule:evenodd;clip-rule:evenodd;fill:none;stroke:#FFFFFF;stroke-width:8;stroke-miterlimit:10;}
	.st2{fill:#2E3F6A;}
	.st3{fill:#685FAA;}
	.st4{fill:#FFFFFF;}
	.st5{fill-rule:evenodd;clip-rule:evenodd;fill:url(#SVGID_00000003095466229725486950000005429777101366057127_);}
	.st6{fill-rule:evenodd;clip-rule:evenodd;fill:#FFFFFF;}
	.st7{fill:url(#SVGID_00000167372181281690492890000011679787368860239789_);}
	.st8{fill:#1C2F54;}
	.st9{fill:url(#SVGID_00000009567494040757093190000003745043956057435302_);}
	.st10{fill:url(#SVGID_00000016759761874046749840000004298899069376514719_);}
	.st11{fill:url(#SVGID_00000143585675125645697050000005783523906477022351_);}
	.st12{fill-rule:evenodd;clip-rule:evenodd;fill:url(#SVGID_00000073723450464026036530000000945141878809212821_);}
	.st13{fill:url(#SVGID_00000136395211973585189370000008507925390931546035_);}
</style>
<g>
	<g>
		<path class="st8" d="M1121.14,805.19c-2.45,0-4.31-0.64-5.59-1.92c-1.28-1.28-1.92-3.14-1.92-5.59V695.02
			c0-2.45,0.64-4.31,1.92-5.59c1.28-1.28,3.14-1.92,5.59-1.92h39.56c8.12,0,14.99,1.2,20.62,3.59c5.62,2.39,9.93,5.87,12.94,10.43
			c3,4.56,4.51,10.13,4.51,16.69c0,7.35-2.14,13.47-6.43,18.36c-4.29,4.9-10.1,8.12-17.44,9.68v-2.34c8.35,1,14.88,4.01,19.61,9.01
			c4.73,5.01,7.09,11.63,7.09,19.86c0,10.46-3.4,18.47-10.18,24.04c-6.79,5.57-16.36,8.35-28.71,8.35H1121.14z M1126.98,740.09
			h31.72c8.68,0,15.27-1.78,19.78-5.34c4.51-3.56,6.76-8.68,6.76-15.36c0-6.9-2.25-12.1-6.76-15.61c-4.51-3.51-11.1-5.26-19.78-5.26
			h-31.72V740.09z M1126.98,794.17h34.39c8.9,0,15.58-1.78,20.03-5.34c4.45-3.56,6.68-8.96,6.68-16.19c0-7.34-2.23-12.77-6.68-16.28
			c-4.45-3.51-11.13-5.26-20.03-5.26h-34.39V794.17z"/>
		<path class="st8" d="M1317.44,805.19c-2.45,0-4.31-0.64-5.59-1.92c-1.28-1.28-1.92-3.14-1.92-5.59V695.02
			c0-2.45,0.64-4.31,1.92-5.59c1.28-1.28,3.14-1.92,5.59-1.92h62.1c1.89,0,3.34,0.5,4.34,1.5c1,1,1.5,2.39,1.5,4.17
			c0,1.89-0.5,3.34-1.5,4.34c-1,1-2.45,1.5-4.34,1.5h-56.25v40.73h52.75c1.89,0,3.34,0.47,4.34,1.42c1,0.95,1.5,2.37,1.5,4.26
			c0,1.89-0.5,3.34-1.5,4.34c-1,1-2.45,1.5-4.34,1.5h-52.75v42.4h56.25c1.89,0,3.34,0.5,4.34,1.5c1,1,1.5,2.39,1.5,4.17
			c0,1.89-0.5,3.34-1.5,4.34c-1,1-2.45,1.5-4.34,1.5H1317.44z"/>
		<path class="st8" d="M1525.93,806.36c-2.23,0-3.92-0.64-5.09-1.92c-1.17-1.28-1.75-3.09-1.75-5.43v-54.75l3,9.51l-41.9-57.76
			c-1-1.44-1.48-2.92-1.42-4.42c0.05-1.5,0.64-2.75,1.75-3.76c1.11-1,2.56-1.5,4.34-1.5c1.56,0,2.95,0.36,4.17,1.08
			c1.22,0.73,2.34,1.87,3.34,3.42l35.56,49.08h-3.51l35.56-49.08c1.22-1.67,2.39-2.84,3.51-3.5c1.11-0.67,2.45-1,4.01-1
			c1.78,0,3.17,0.47,4.17,1.42c1,0.95,1.53,2.17,1.59,3.67c0.05,1.5-0.47,3.09-1.59,4.76l-41.73,57.59l2.84-9.51v54.75
			C1532.78,803.91,1530.49,806.36,1525.93,806.36z"/>
		<path class="st8" d="M1723.07,806.69c-10.91,0-20.39-2.47-28.46-7.43c-8.07-4.95-14.3-11.94-18.7-20.95
			c-4.4-9.01-6.59-19.7-6.59-32.05c0-9.35,1.25-17.72,3.76-25.12c2.5-7.4,6.09-13.69,10.77-18.86c4.67-5.17,10.32-9.18,16.94-12.02
			c6.62-2.84,14.05-4.26,22.28-4.26c11.13,0,20.73,2.45,28.79,7.34c8.07,4.9,14.3,11.83,18.7,20.78c4.4,8.96,6.59,19.61,6.59,31.97
			c0,9.35-1.28,17.75-3.84,25.21c-2.56,7.46-6.18,13.8-10.85,19.03c-4.67,5.23-10.32,9.26-16.94,12.1
			C1738.9,805.27,1731.42,806.69,1723.07,806.69z M1723.07,794.51c8.46,0,15.61-1.89,21.45-5.68c5.84-3.78,10.32-9.29,13.44-16.53
			c3.11-7.23,4.67-15.91,4.67-26.04c0-15.25-3.42-27.07-10.27-35.47c-6.84-8.4-16.61-12.6-29.3-12.6c-8.24,0-15.27,1.89-21.12,5.68
			c-5.84,3.79-10.32,9.26-13.44,16.44c-3.12,7.18-4.67,15.83-4.67,25.96c0,15.14,3.45,26.96,10.35,35.47
			C1701.09,790.25,1710.72,794.51,1723.07,794.51z"/>
		<path class="st8" d="M1891.67,806.36c-2.12,0-3.73-0.58-4.84-1.75c-1.11-1.17-1.67-2.86-1.67-5.09V693.35
			c0-2.22,0.56-3.95,1.67-5.17c1.11-1.22,2.56-1.84,4.34-1.84c1.78,0,3.09,0.31,3.92,0.92c0.83,0.61,1.81,1.7,2.92,3.26l72.78,96.98
			h-4.01v-94.48c0-2.11,0.56-3.76,1.67-4.92c1.11-1.17,2.73-1.75,4.84-1.75c2,0,3.53,0.58,4.59,1.75c1.06,1.17,1.59,2.81,1.59,4.92
			v106.67c0,2.12-0.47,3.76-1.42,4.92c-0.95,1.17-2.31,1.75-4.09,1.75c-1.67,0-3-0.33-4.01-1c-1-0.67-2.06-1.72-3.17-3.17
			l-72.61-96.98h3.84v94.31c0,2.23-0.56,3.92-1.67,5.09C1895.23,805.77,1893.67,806.36,1891.67,806.36z"/>
		<path class="st8" d="M2099.66,805.19c-2.45,0-4.31-0.64-5.59-1.92c-1.28-1.28-1.92-3.14-1.92-5.59V695.02
			c0-2.45,0.64-4.31,1.92-5.59c1.28-1.28,3.14-1.92,5.59-1.92h32.22c19.03,0,33.72,5.01,44.07,15.02
			c10.35,10.02,15.52,24.6,15.52,43.73c0,9.57-1.31,18-3.92,25.29c-2.62,7.29-6.48,13.44-11.6,18.45
			c-5.12,5.01-11.35,8.79-18.7,11.35c-7.34,2.56-15.8,3.84-25.37,3.84H2099.66z M2105.83,793.5h25.04c7.79,0,14.55-1,20.28-3
			c5.73-2,10.52-4.95,14.36-8.85c3.84-3.89,6.7-8.82,8.6-14.77c1.89-5.95,2.84-12.83,2.84-20.62c0-15.69-3.84-27.46-11.52-35.3
			s-19.2-11.77-34.55-11.77h-25.04V793.5z"/>
		<path class="st8" d="M2476.91,806.69c-11.58,0-21.48-2.45-29.71-7.34c-8.24-4.9-14.55-11.85-18.95-20.87
			c-4.4-9.01-6.59-19.75-6.59-32.22c0-9.35,1.25-17.72,3.76-25.12c2.5-7.4,6.12-13.69,10.85-18.86c4.73-5.17,10.54-9.18,17.44-12.02
			c6.9-2.84,14.63-4.26,23.2-4.26c6.9,0,13.46,0.98,19.7,2.92c6.23,1.95,11.63,4.81,16.19,8.6c1.44,1.11,2.42,2.37,2.92,3.76
			c0.5,1.39,0.56,2.73,0.17,4.01c-0.39,1.28-1.06,2.34-2,3.17c-0.95,0.83-2.09,1.25-3.42,1.25s-2.84-0.56-4.51-1.67
			c-4.01-3.23-8.4-5.62-13.19-7.18c-4.79-1.56-9.96-2.34-15.52-2.34c-8.79,0-16.25,1.87-22.37,5.59
			c-6.12,3.73-10.74,9.15-13.85,16.28c-3.12,7.12-4.67,15.75-4.67,25.87c0,10.13,1.56,18.78,4.67,25.96
			c3.11,7.18,7.73,12.63,13.85,16.36c6.12,3.73,13.58,5.59,22.37,5.59c5.45,0,10.63-0.81,15.52-2.42c4.9-1.61,9.4-4.03,13.52-7.26
			c1.67-1.11,3.17-1.64,4.51-1.59c1.34,0.06,2.45,0.47,3.34,1.25c0.89,0.78,1.53,1.78,1.92,3c0.39,1.23,0.39,2.5,0,3.84
			c-0.39,1.34-1.25,2.5-2.59,3.51c-4.67,4.01-10.16,7.04-16.44,9.1C2490.74,805.66,2484.03,806.69,2476.91,806.69z"/>
		<path class="st8" d="M2628.65,806.36c-2.23,0-3.92-0.64-5.09-1.92c-1.17-1.28-1.75-3.03-1.75-5.26V694.52
			c0-2.34,0.61-4.09,1.84-5.26c1.22-1.17,2.95-1.75,5.17-1.75h39.56c12.57,0,22.26,2.95,29.05,8.85c6.79,5.9,10.18,14.3,10.18,25.21
			c0,6.9-1.53,12.88-4.59,17.94c-3.06,5.07-7.54,8.91-13.44,11.52c-5.9,2.62-12.97,3.92-21.2,3.92l1.67-2.17h3.34
			c4.34,0,8.12,1.11,11.35,3.34c3.23,2.23,6.18,5.79,8.85,10.68l16.02,29.88c0.89,1.56,1.31,3.09,1.25,4.59
			c-0.06,1.5-0.58,2.73-1.59,3.67c-1,0.94-2.45,1.42-4.34,1.42c-1.89,0-3.45-0.45-4.67-1.33c-1.23-0.89-2.28-2.17-3.17-3.84
			l-18.19-33.72c-2.56-4.78-5.51-7.98-8.85-9.6c-3.34-1.61-7.74-2.42-13.19-2.42h-21.37v43.73c0,2.23-0.56,3.98-1.67,5.26
			C2632.71,805.72,2630.98,806.36,2628.65,806.36z M2635.49,744.6h30.88c9.12,0,16.02-1.92,20.7-5.76c4.67-3.84,7.01-9.6,7.01-17.28
			c0-7.45-2.34-13.1-7.01-16.94c-4.67-3.84-11.58-5.76-20.7-5.76h-30.88V744.6z"/>
		<path class="st8" d="M2852.16,806.36c-2.23,0-3.92-0.64-5.09-1.92c-1.17-1.28-1.75-3.09-1.75-5.43v-54.75l3,9.51l-41.9-57.76
			c-1-1.44-1.48-2.92-1.42-4.42c0.05-1.5,0.64-2.75,1.75-3.76c1.11-1,2.56-1.5,4.34-1.5c1.56,0,2.95,0.36,4.17,1.08
			c1.22,0.73,2.34,1.87,3.34,3.42l35.56,49.08h-3.51l35.56-49.08c1.22-1.67,2.39-2.84,3.51-3.5c1.11-0.67,2.45-1,4.01-1
			c1.78,0,3.17,0.47,4.17,1.42c1,0.95,1.53,2.17,1.59,3.67c0.06,1.5-0.47,3.09-1.59,4.76l-41.73,57.59l2.84-9.51v54.75
			C2859,803.91,2856.72,806.36,2852.16,806.36z"/>
		<path class="st8" d="M3006.73,806.36c-2.23,0-3.92-0.64-5.09-1.92c-1.17-1.28-1.75-3.03-1.75-5.26V694.52
			c0-2.34,0.61-4.09,1.84-5.26c1.22-1.17,2.95-1.75,5.17-1.75h39.56c12.57,0,22.26,3.09,29.05,9.26
			c6.79,6.18,10.18,14.88,10.18,26.12c0,11.13-3.4,19.81-10.18,26.04c-6.79,6.23-16.47,9.35-29.05,9.35h-32.88v40.9
			c0,2.23-0.56,3.98-1.67,5.26C3010.79,805.72,3009.07,806.36,3006.73,806.36z M3013.58,746.77h31.22c9.01,0,15.83-2.03,20.45-6.09
			c4.62-4.06,6.93-9.99,6.93-17.78c0-7.9-2.31-13.88-6.93-17.95c-4.62-4.06-11.43-6.09-20.45-6.09h-31.22V746.77z"/>
		<path class="st8" d="M3224.74,806.36c-2.12,0-3.78-0.64-5.01-1.92c-1.23-1.28-1.84-3.03-1.84-5.26v-99.82h-37.56
			c-2,0-3.56-0.56-4.67-1.67c-1.11-1.11-1.67-2.56-1.67-4.34c0-1.89,0.56-3.34,1.67-4.34c1.11-1,2.67-1.5,4.67-1.5h88.97
			c2,0,3.56,0.5,4.67,1.5c1.11,1,1.67,2.45,1.67,4.34c0,1.89-0.56,3.37-1.67,4.42c-1.11,1.06-2.67,1.59-4.67,1.59h-37.56v99.82
			c0,2.23-0.58,3.98-1.75,5.26C3228.83,805.72,3227.08,806.36,3224.74,806.36z"/>
		<path class="st8" d="M3422.38,806.69c-10.91,0-20.39-2.47-28.46-7.43c-8.07-4.95-14.3-11.94-18.7-20.95
			c-4.4-9.01-6.59-19.7-6.59-32.05c0-9.35,1.25-17.72,3.76-25.12c2.5-7.4,6.09-13.69,10.77-18.86c4.67-5.17,10.32-9.18,16.94-12.02
			c6.62-2.84,14.05-4.26,22.28-4.26c11.13,0,20.73,2.45,28.79,7.34c8.07,4.9,14.3,11.83,18.7,20.78c4.4,8.96,6.59,19.61,6.59,31.97
			c0,9.35-1.28,17.75-3.84,25.21c-2.56,7.46-6.18,13.8-10.85,19.03c-4.67,5.23-10.32,9.26-16.94,12.1
			C3438.21,805.27,3430.72,806.69,3422.38,806.69z M3422.38,794.51c8.46,0,15.61-1.89,21.45-5.68c5.84-3.78,10.32-9.29,13.44-16.53
			c3.11-7.23,4.67-15.91,4.67-26.04c0-15.25-3.42-27.07-10.27-35.47c-6.84-8.4-16.61-12.6-29.3-12.6c-8.24,0-15.27,1.89-21.12,5.68
			c-5.84,3.79-10.32,9.26-13.44,16.44c-3.12,7.18-4.67,15.83-4.67,25.96c0,15.14,3.45,26.96,10.35,35.47
			C3400.4,790.25,3410.03,794.51,3422.38,794.51z"/>
	</g>
</g>
<g>
	<g>
		<path class="st2" d="M1121.15,602.12c-6.58,0-12.01-1.73-16.28-5.18c-4.28-3.45-6.74-7.89-7.4-13.32
			c-0.66-5.43,1.15-10.93,5.43-16.53l116.42-156.37v20.72l-110-147.99c-4.28-5.92-6.17-11.67-5.67-17.26
			c0.49-5.59,2.88-10.11,7.15-13.57c4.27-3.45,9.53-5.18,15.79-5.18c5.26,0,9.94,1.23,14.06,3.7c4.11,2.47,8.3,6.66,12.58,12.58
			l95.7,131.21h-15.79l94.71-131.21c4.27-5.92,8.46-10.11,12.58-12.58c4.11-2.47,8.96-3.7,14.55-3.7c6.57,0,12,1.73,16.28,5.18
			c4.27,3.45,6.66,7.89,7.15,13.32c0.49,5.43-1.57,11.27-6.17,17.51l-110,147.99v-20.72l115.92,156.37
			c4.27,5.6,6.17,11.1,5.67,16.53c-0.49,5.43-2.88,9.87-7.15,13.32c-4.28,3.45-9.87,5.18-16.77,5.18c-4.93,0-9.54-1.32-13.81-3.95
			c-4.28-2.63-8.72-6.74-13.32-12.33l-101.62-139.11h18.75l-101.12,139.11c-4.28,5.6-8.63,9.7-13.07,12.33
			C1131.26,600.8,1126.41,602.12,1121.15,602.12z"/>
		<path class="st2" d="M1648.96,603.11c-35.19,0-65.28-7.23-90.27-21.7c-25-14.47-44.15-35.1-57.47-61.91
			c-13.32-26.8-19.98-58.46-19.98-94.96c0-27.29,3.78-51.87,11.35-73.75c7.56-21.87,18.5-40.61,32.8-56.24
			c14.31-15.62,31.89-27.54,52.78-35.76c20.88-8.22,44.47-12.33,70.79-12.33c19.4,0,38.06,2.64,55.99,7.89
			c17.92,5.26,33.46,12.83,46.62,22.69c5.59,3.62,9.29,7.98,11.1,13.07c1.8,5.1,2.13,9.95,0.99,14.55
			c-1.16,4.61-3.38,8.47-6.66,11.59c-3.29,3.13-7.48,4.86-12.58,5.18c-5.1,0.33-10.61-1.48-16.52-5.43
			c-10.85-8.22-22.86-14.31-36.01-18.25c-13.16-3.95-26.97-5.92-41.44-5.92c-25,0-46.04,5.18-63.14,15.54
			c-17.1,10.36-30.09,25.4-38.97,45.14s-13.32,43.74-13.32,72.02c0,28.29,4.44,52.37,13.32,72.27c8.88,19.9,21.87,35.02,38.97,45.38
			c17.1,10.36,38.15,15.54,63.14,15.54c14.47,0,28.36-2.05,41.68-6.17c13.32-4.11,25.9-10.27,37.74-18.5
			c5.92-3.62,11.26-5.26,16.03-4.93c4.76,0.33,8.79,1.97,12.08,4.93c3.28,2.96,5.5,6.66,6.66,11.1c1.15,4.44,0.99,9.05-0.49,13.81
			c-1.48,4.77-4.69,8.8-9.62,12.09c-13.49,10.85-29.44,19.08-47.85,24.66C1688.26,600.31,1669.02,603.11,1648.96,603.11z"/>
		<path class="st2" d="M1903.5,598.67c-8.88,0-15.71-2.38-20.47-7.15c-4.77-4.76-7.15-11.59-7.15-20.47V278.52
			c0-8.88,2.38-15.7,7.15-20.47c4.76-4.76,11.59-7.15,20.47-7.15h180.05c6.91,0,12.16,1.73,15.79,5.18
			c3.61,3.45,5.43,8.47,5.43,15.05c0,6.91-1.81,12.17-5.43,15.79c-3.62,3.62-8.88,5.43-15.79,5.43H1925.2v109.02h147.49
			c7.23,0,12.58,1.81,16.03,5.43c3.45,3.62,5.18,8.72,5.18,15.29c0,6.91-1.73,12.09-5.18,15.54s-8.8,5.18-16.03,5.18H1925.2v114.44
			h158.35c6.91,0,12.16,1.81,15.79,5.43c3.61,3.62,5.43,8.72,5.43,15.29c0,6.91-1.81,12.08-5.43,15.54
			c-3.62,3.45-8.88,5.18-15.79,5.18H1903.5z"/>
		<path class="st2" d="M2241.89,598.67c-8.22,0-14.64-2.3-19.24-6.91c-4.61-4.6-6.91-11.01-6.91-19.24V275.07
			c0-8.55,2.22-15.04,6.66-19.49c4.44-4.44,10.77-6.66,18.99-6.66c8.22,0,14.55,2.22,18.99,6.66c4.44,4.44,6.66,10.94,6.66,19.49
			v279.7h152.92c7.23,0,12.83,1.9,16.77,5.67c3.95,3.78,5.92,9.12,5.92,16.03s-1.97,12.33-5.92,16.28s-9.54,5.92-16.77,5.92H2241.89
			z"/>
		<path class="st2" d="M2563.01,602.12c-8.22,0-14.55-2.3-18.99-6.91s-6.66-11.01-6.66-19.24V277.04c0-8.55,2.3-15.04,6.91-19.48
			c4.6-4.44,11.01-6.66,19.24-6.66h117.9c37.49,0,66.42,9.29,86.82,27.87c20.39,18.58,30.58,44.64,30.58,78.19
			c0,33.88-10.2,60.1-30.58,78.68c-20.39,18.58-49.33,27.87-86.82,27.87h-92.74v112.47c0,8.22-2.14,14.64-6.41,19.24
			C2577.97,599.82,2571.56,602.12,2563.01,602.12z M2588.66,422.56H2674c24.66,0,43.32-5.5,55.99-16.53
			c12.66-11.01,18.99-27.38,18.99-49.08c0-21.37-6.33-37.57-18.99-48.59c-12.66-11.01-31.32-16.53-55.99-16.53h-85.34V422.56z"/>
		<path class="st2" d="M2901.41,602.12c-6.58,0-11.84-1.48-15.79-4.44s-6.25-6.91-6.91-11.84c-0.66-4.93,0.32-10.52,2.96-16.77
			l133.68-299.92c3.28-7.89,7.48-13.48,12.58-16.77c5.09-3.28,10.77-4.93,17.02-4.93c5.92,0,11.42,1.65,16.53,4.93
			c5.09,3.29,9.29,8.88,12.58,16.77l133.68,299.92c2.96,6.25,4.11,11.92,3.45,17.02c-0.66,5.1-2.8,9.05-6.41,11.84
			c-3.62,2.79-8.72,4.19-15.29,4.19c-7.24,0-13-1.81-17.27-5.43c-4.28-3.61-8.06-9.2-11.35-16.77l-34.53-79.91l23.18,13.81h-210.14
			l22.69-13.81l-34.04,79.91c-3.29,7.89-6.91,13.57-10.85,17.02S2907.98,602.12,2901.41,602.12z M3043.97,307.63l-74.49,176.6
			l-12.33-11.84h174.13l-11.35,11.84l-74.98-176.6H3043.97z"/>
		<path class="st2" d="M3424.78,602.12c-8.22,0-14.55-2.3-18.99-6.91c-4.44-4.6-6.66-11.18-6.66-19.73V419.11l11.35,32.56
			l-121.84-169.2c-3.62-4.93-5.26-10.11-4.93-15.54c0.32-5.43,2.54-10.03,6.66-13.81c4.11-3.78,9.62-5.67,16.53-5.67
			c5.26,0,10.11,1.32,14.55,3.95c4.44,2.64,8.63,6.74,12.58,12.33l97.67,135.65h-11.84l97.67-135.65
			c4.27-5.92,8.39-10.11,12.33-12.58c3.95-2.47,8.88-3.7,14.8-3.7c6.91,0,12.25,1.73,16.03,5.18c3.78,3.45,5.75,7.89,5.92,13.32
			c0.16,5.43-1.9,11.1-6.17,17.02l-120.86,168.71l10.36-32.56v156.37C3449.94,593.24,3441.56,602.12,3424.78,602.12z"/>
	</g>
</g>
<g>
	
		<linearGradient id="SVGID_1_" gradientUnits="userSpaceOnUse" x1="726.9235" y1="-598.7584" x2="336.0826" y2="-959.4103" gradientTransform="matrix(1 0 0 -1 0 -244.8696)">
		<stop  offset="0" style="stop-color:#7553FC"/>
		<stop  offset="1" style="stop-color:#5B7AF5"/>
	</linearGradient>
	<path class="st0" d="M562.89,80.43L562.89,80.43c234.62,0,424.82,190.2,424.82,424.82l0,0c0,234.62-190.2,424.82-424.82,424.82l0,0
		c-234.62,0-424.82-190.2-424.82-424.82l0,0C138.07,270.63,328.27,80.43,562.89,80.43z"/>
	<path class="st6" d="M671.6,322.07c-3.32,0.86-32.15,28.2-64.07,60.76c-41.41,42.23-57.9,61.26-57.52,66.4
		c0.88,12,39.04,99.81,43.37,99.81c2.22,0,16.02-12.76,30.65-28.36c14.64-15.6,63.41-65.76,108.39-111.47
		c44.98-45.71,81.78-84.54,81.78-86.3C814.2,319.72,683.59,318.95,671.6,322.07z M374.04,352.67c2.17,8.63,7.04,20.61,45.63,112.06
		c9,21.33,17.95,42.95,19.89,48.05c1.94,5.1,4.87,9.27,6.53,9.27c1.65,0,20.06-17.61,40.9-39.13
		c41.67-43.01,41.54-42.67,28.05-70.83c-6.42-13.42-14.14-17.29-110.06-55.35l-33.21-13.18L374.04,352.67z M418.54,573.49
		c-60.35,61.67-108.46,113.43-106.91,115.01c1.55,1.58,34.95,2.34,74.22,1.69l71.4-1.19l58.69-60.7
		c32.28-33.39,58.72-63.37,58.76-66.63c0.06-5.14-9.6-29.69-33.84-85.96c-3.4-7.89-7.61-14.33-9.38-14.33
		C529.71,461.36,478.89,511.82,418.54,573.49z M637.23,527.22c-21.27,22.2-38.63,41.88-38.57,43.74c0.06,1.85,4.19,11.67,9.18,21.82
		l9.08,18.45l63.93,26.23c55.94,22.95,72.65,28.79,72.65,25.36c0-0.48-11.45-28.18-25.45-61.55c-14-33.37-29.39-70.54-34.21-82.59
		C679.06,481.68,681.17,481.36,637.23,527.22z"/>
</g>
</svg>
