<svg width="196" height="42" viewBox="0 0 196 42" fill="none" xmlns="http://www.w3.org/2000/svg">
<path d="M20.9704 41.9407C32.552 41.9407 41.9407 32.552 41.9407 20.9704C41.9407 9.38876 32.552 0 20.9704 0C9.38876 0 0 9.38876 0 20.9704C0 32.552 9.38876 41.9407 20.9704 41.9407Z" fill="#30323D"/>
<path d="M20.9397 27.3993C20.9404 27.1026 21.0196 26.8114 21.1693 26.5553C21.319 26.2992 21.5339 26.0872 21.7921 25.9411C22.0503 25.7949 22.3425 25.7197 22.6392 25.7231C22.9358 25.7265 23.2263 25.8084 23.481 25.9605L31.6243 30.8281V26.6647L22.1646 20.9705L31.6243 15.2764V11.1128L23.481 15.9805C23.2265 16.1339 22.9358 16.217 22.6386 16.2211C22.3414 16.2251 22.0485 16.1501 21.7899 16.0037C21.5313 15.8573 21.3163 15.6447 21.1669 15.3878C21.0174 15.1309 20.9391 14.8388 20.9397 14.5416L33.7974 6.85754V15.5824C33.7988 15.996 33.6923 16.4028 33.4882 16.7625C33.2842 17.1223 32.9897 17.4225 32.634 17.6335L27.1235 20.9398L32.634 24.2767C32.9877 24.4899 33.2806 24.7906 33.4843 25.1499C33.6881 25.5091 33.7959 25.9148 33.7974 26.3278V35.0834L20.9397 27.3993Z" fill="white"/>
<path d="M9.24531 24.3071L14.7557 20.9702L9.24531 17.6639C8.89151 17.4508 8.59857 17.1501 8.3948 16.7908C8.19102 16.4315 8.08327 16.0258 8.08191 15.6128V6.88794L20.9396 14.572C20.9389 14.8687 20.8597 15.1599 20.7099 15.416C20.5602 15.6722 20.3454 15.8841 20.0872 16.0303C19.829 16.1764 19.5368 16.2516 19.2401 16.2482C18.9434 16.2448 18.653 16.1629 18.3982 16.0109L10.255 11.1433V15.3066L19.7146 21.0008L10.255 26.6949V30.8583L18.3982 25.9907C18.6527 25.8372 18.9435 25.7542 19.2406 25.7501C19.5378 25.746 19.8307 25.821 20.0894 25.9675C20.348 26.1139 20.563 26.3265 20.7124 26.5834C20.8618 26.8403 20.9402 27.1323 20.9396 27.4295L8.08191 35.1136V26.3582C8.08973 25.9465 8.20021 25.5433 8.40338 25.1851C8.60654 24.8269 8.89595 24.5251 9.24531 24.3071Z" fill="#FEC63E"/>
<path d="M48.3154 27.1807C47.9346 27.1807 47.5986 27.0463 47.3074 26.7775C47.0386 26.4863 46.9042 26.1503 46.9042 25.7695C46.9042 25.4111 47.005 25.0975 47.2066 24.8287L54.9683 15.2862L47.2738 5.81086C47.0722 5.54206 46.9714 5.22845 46.9714 4.87005C46.9714 4.44444 47.1058 4.09724 47.3746 3.82844C47.6658 3.53724 48.0242 3.39163 48.4498 3.39163C48.6962 3.39163 48.9314 3.44763 49.1554 3.55964C49.3794 3.67164 49.5586 3.81724 49.693 3.99644L56.7827 13.0013L63.8724 3.92924C64.1188 3.57084 64.4884 3.39163 64.9812 3.39163C65.3844 3.39163 65.7316 3.53724 66.0228 3.82844C66.314 4.09724 66.4596 4.43324 66.4596 4.83645C66.4596 5.15005 66.37 5.43006 66.1908 5.67646L58.4291 15.2526L66.1908 24.7951C66.3924 25.0191 66.4932 25.3103 66.4932 25.6687C66.4932 26.0943 66.3476 26.4527 66.0564 26.7439C65.7876 27.0351 65.4292 27.1807 64.9812 27.1807C64.4884 27.1807 64.0852 26.9679 63.7716 26.5423L56.5811 17.5038L49.4914 26.5759C49.1554 26.9791 48.7634 27.1807 48.3154 27.1807Z" fill="#FEC63E"/>
<path d="M80.6248 27.3487C78.3847 27.3487 76.3687 26.8671 74.5767 25.9039C72.8071 24.9183 71.4071 23.5182 70.3766 21.7038C69.3686 19.867 68.8646 17.7278 68.8646 15.2862C68.8646 12.8445 69.3686 10.7165 70.3766 8.90209C71.4071 7.06527 72.8071 5.66526 74.5767 4.70205C76.3687 3.71644 78.3847 3.22363 80.6248 3.22363C82.148 3.22363 83.5032 3.40283 84.6904 3.76124C85.9 4.11964 87.0984 4.63485 88.2856 5.30685C88.7784 5.57566 89.0248 6.00126 89.0248 6.58367C89.0248 6.91967 88.9016 7.22207 88.6552 7.49088C88.4088 7.73728 88.084 7.86048 87.6808 7.86048C87.4568 7.86048 87.2552 7.81568 87.076 7.72608C86.0904 7.21088 85.1272 6.81887 84.1864 6.55007C83.2456 6.28126 82.1592 6.14686 80.9272 6.14686C79.0007 6.14686 77.3543 6.55007 75.9879 7.35648C74.6439 8.14048 73.6247 9.2269 72.9303 10.6157C72.2583 11.9821 71.9223 13.5389 71.9223 15.2862C71.9223 17.0334 72.2583 18.6014 72.9303 19.9902C73.6247 21.3566 74.6439 22.443 75.9879 23.2494C77.3543 24.0335 79.0007 24.4255 80.9272 24.4255C82.1592 24.4255 83.2456 24.2911 84.1864 24.0223C85.1272 23.7535 86.0904 23.3614 87.076 22.8462C87.2552 22.7566 87.4568 22.7118 87.6808 22.7118C88.084 22.7118 88.4088 22.835 88.6552 23.0814C88.9016 23.3278 89.0248 23.6302 89.0248 23.9887C89.0248 24.5711 88.7784 24.9967 88.2856 25.2655C87.0984 25.9375 85.9 26.4527 84.6904 26.8111C83.5032 27.1695 82.148 27.3487 80.6248 27.3487Z" fill="#FEC63E"/>
<path d="M95.1506 27.0127C94.725 27.0127 94.3666 26.8671 94.0754 26.5759C93.7842 26.2847 93.6386 25.9263 93.6386 25.5007V5.10525C93.6386 4.67965 93.7842 4.32124 94.0754 4.03004C94.3666 3.71644 94.725 3.55964 95.1506 3.55964H108.624C109.028 3.55964 109.364 3.70524 109.632 3.99644C109.924 4.26524 110.069 4.60125 110.069 5.00445C110.069 5.40766 109.924 5.74366 109.632 6.01246C109.364 6.28126 109.028 6.41567 108.624 6.41567H96.6962V13.8413H107.415C107.818 13.8413 108.154 13.9869 108.423 14.2781C108.714 14.547 108.86 14.883 108.86 15.2862C108.86 15.6894 108.714 16.0254 108.423 16.2942C108.154 16.563 107.818 16.6974 107.415 16.6974H96.6962V24.1567H108.624C109.028 24.1567 109.364 24.3023 109.632 24.5935C109.924 24.8623 110.069 25.1983 110.069 25.6015C110.069 26.0047 109.924 26.3407 109.632 26.6095C109.364 26.8783 109.028 27.0127 108.624 27.0127H95.1506Z" fill="#FEC63E"/>
<path d="M117.182 27.0127C116.6 27.0127 116.096 26.8111 115.67 26.4079C115.267 25.9823 115.065 25.4783 115.065 24.8959V4.93725C115.065 4.51165 115.211 4.15324 115.502 3.86204C115.793 3.54844 116.152 3.39163 116.577 3.39163C117.003 3.39163 117.361 3.54844 117.653 3.86204C117.966 4.15324 118.123 4.51165 118.123 4.93725V23.9551H129.11C129.536 23.9551 129.894 24.1119 130.186 24.4255C130.499 24.7167 130.656 25.0751 130.656 25.5007C130.656 25.9263 130.499 26.2847 130.186 26.5759C129.894 26.8671 129.536 27.0127 129.11 27.0127H117.182Z" fill="#FEC63E"/>
<path d="M69.5712 39.4448C68.6334 39.4448 67.7546 39.2674 66.9349 38.9124C66.8463 38.8754 66.7724 38.8162 66.7134 38.7349C66.6543 38.6461 66.6248 38.5537 66.6248 38.4576C66.6248 38.3318 66.6654 38.2246 66.7466 38.1359C66.8352 38.0397 66.946 37.9917 67.0789 37.9917C67.1528 37.9917 67.2229 38.0064 67.2894 38.036C67.9688 38.3392 68.6962 38.4908 69.4715 38.4908C70.7639 38.4908 71.41 38.0656 71.41 37.2151C71.41 36.9933 71.3251 36.8084 71.1552 36.6605C70.9928 36.5126 70.7897 36.398 70.546 36.3166C70.3023 36.2279 69.9552 36.1243 69.5048 36.006C68.9066 35.8507 68.4229 35.7028 68.0537 35.5623C67.6845 35.4144 67.3669 35.1962 67.1011 34.9078C66.8352 34.6194 66.7023 34.2348 66.7023 33.7541C66.7023 33.3326 66.8131 32.9517 67.0346 32.6115C67.2561 32.264 67.5811 31.9903 68.0094 31.7907C68.4451 31.5836 68.9657 31.4801 69.5712 31.4801C70.3835 31.4801 71.1183 31.6021 71.7756 31.8461C71.9823 31.9201 72.0857 32.068 72.0857 32.2898C72.0857 32.4082 72.0451 32.5154 71.9639 32.6115C71.8826 32.7077 71.7756 32.7558 71.6426 32.7558C71.5983 32.7558 71.5392 32.741 71.4654 32.7114C70.8894 32.5117 70.2949 32.4119 69.682 32.4119C69.0986 32.4119 68.6223 32.5228 68.2531 32.7447C67.8912 32.9665 67.7103 33.2771 67.7103 33.6765C67.7103 33.9427 67.7952 34.1609 67.9651 34.331C68.1423 34.4937 68.3601 34.6231 68.6186 34.7192C68.8845 34.808 69.2426 34.9041 69.6931 35.0076C70.2765 35.1481 70.7454 35.2887 71.0999 35.4292C71.4617 35.5697 71.7682 35.7878 72.0192 36.0837C72.2777 36.3795 72.4069 36.7788 72.4069 37.2817C72.4069 37.6958 72.2888 38.0693 72.0525 38.4021C71.8162 38.7275 71.4839 38.9826 71.0555 39.1675C70.6272 39.3524 70.1325 39.4448 69.5712 39.4448Z" fill="#30323D"/>
<path d="M76.2862 39.4448C75.3853 39.4448 74.6801 39.1897 74.1705 38.6794C73.6684 38.1617 73.4173 37.437 73.4173 36.5052C73.4173 35.9801 73.5133 35.4957 73.7053 35.052C73.8973 34.6083 74.1927 34.2496 74.5914 33.976C74.9902 33.7024 75.4813 33.5655 76.0647 33.5655C76.6111 33.5655 77.0838 33.695 77.4825 33.9538C77.8813 34.2052 78.1841 34.5454 78.3908 34.9744C78.5976 35.3959 78.701 35.8581 78.701 36.361C78.701 36.5015 78.653 36.6198 78.557 36.716C78.4684 36.8121 78.3465 36.8602 78.1915 36.8602H74.4364C74.4954 37.3778 74.6874 37.7809 75.0124 38.0693C75.3373 38.3577 75.7914 38.5019 76.3748 38.5019C76.685 38.5019 76.9545 38.4724 77.1835 38.4132C77.4198 38.354 77.6487 38.269 77.8702 38.1581C77.9293 38.1285 77.9958 38.1137 78.0696 38.1137C78.1878 38.1137 78.2912 38.1544 78.3798 38.2357C78.4684 38.3171 78.5127 38.4206 78.5127 38.5463C78.5127 38.709 78.4167 38.8458 78.2247 38.9567C77.9367 39.1194 77.6524 39.2415 77.3718 39.3228C77.0911 39.4042 76.7293 39.4448 76.2862 39.4448ZM77.7041 36.0393C77.6819 35.6769 77.5859 35.3737 77.4161 35.1297C77.2536 34.8856 77.0505 34.7081 76.8068 34.5972C76.5631 34.4789 76.3158 34.4197 76.0647 34.4197C75.8136 34.4197 75.5662 34.4789 75.3225 34.5972C75.0788 34.7081 74.8757 34.8856 74.7133 35.1297C74.5508 35.3737 74.4585 35.6769 74.4364 36.0393H77.7041Z" fill="#30323D"/>
<path d="M82.6489 39.4448C82.1172 39.4448 81.6261 39.3265 81.1757 39.0899C80.7252 38.8532 80.3634 38.513 80.0901 38.0693C79.8243 37.6256 79.6914 37.1042 79.6914 36.5052C79.6914 35.9062 79.8243 35.3848 80.0901 34.9411C80.3634 34.4974 80.7252 34.1572 81.1757 33.9205C81.6261 33.6839 82.1172 33.5655 82.6489 33.5655C83.0403 33.5655 83.3763 33.6173 83.6569 33.7208C83.9449 33.817 84.2108 33.9427 84.4545 34.098C84.6021 34.1941 84.676 34.3236 84.676 34.4863C84.676 34.5972 84.6317 34.7007 84.5431 34.7969C84.4618 34.8856 84.3658 34.93 84.2551 34.93C84.1738 34.93 84.0926 34.9078 84.0114 34.8634C83.7677 34.7377 83.5572 34.649 83.38 34.5972C83.2101 34.538 82.996 34.5084 82.7375 34.5084C82.1024 34.5084 81.604 34.6933 81.2421 35.0631C80.8803 35.4255 80.6994 35.9062 80.6994 36.5052C80.6994 37.1042 80.8803 37.5886 81.2421 37.9584C81.604 38.3207 82.1024 38.5019 82.7375 38.5019C82.996 38.5019 83.2101 38.4761 83.38 38.4243C83.5572 38.3651 83.7677 38.2727 84.0114 38.147C84.0926 38.1026 84.1738 38.0804 84.2551 38.0804C84.3658 38.0804 84.4618 38.1285 84.5431 38.2246C84.6317 38.3134 84.676 38.4132 84.676 38.5241C84.676 38.6868 84.6021 38.8162 84.4545 38.9124C84.2108 39.0677 83.9449 39.1971 83.6569 39.3006C83.3763 39.3968 83.0403 39.4448 82.6489 39.4448Z" fill="#30323D"/>
<path d="M87.8684 39.4448C87.4623 39.4448 87.1078 39.3487 86.805 39.1564C86.5096 38.9641 86.2807 38.7016 86.1182 38.3688C85.9632 38.036 85.8856 37.67 85.8856 37.2706V34.1202C85.8856 33.9797 85.9336 33.8614 86.0296 33.7652C86.133 33.6691 86.2549 33.621 86.3952 33.621C86.5355 33.621 86.6536 33.6691 86.7496 33.7652C86.8456 33.8614 86.8936 33.9797 86.8936 34.1202V37.1597C86.8936 38.0619 87.2998 38.513 88.1121 38.513C88.4813 38.513 88.81 38.4169 89.098 38.2246C89.3933 38.0323 89.6703 37.7735 89.9287 37.4481V34.1202C89.9287 33.9797 89.9767 33.8614 90.0727 33.7652C90.1761 33.6691 90.298 33.621 90.4383 33.621C90.5786 33.621 90.6967 33.6691 90.7927 33.7652C90.8887 33.8614 90.9367 33.9797 90.9367 34.1202V38.8791C90.9367 39.0196 90.8887 39.1416 90.7927 39.2452C90.6967 39.3413 90.5786 39.3894 90.4383 39.3894C90.298 39.3894 90.1761 39.3413 90.0727 39.2452C89.9767 39.1416 89.9287 39.0196 89.9287 38.8791V38.4243C89.6481 38.7349 89.3453 38.9826 89.0204 39.1675C88.6955 39.3524 88.3115 39.4448 87.8684 39.4448Z" fill="#30323D"/>
<path d="M93.1895 39.3894C93.0492 39.3894 92.9311 39.3413 92.8351 39.2452C92.7391 39.149 92.6911 39.0307 92.6911 38.8902V34.1313C92.6911 33.9908 92.7391 33.8724 92.8351 33.7763C92.9311 33.6728 93.0492 33.621 93.1895 33.621C93.3298 33.621 93.448 33.6728 93.544 33.7763C93.6474 33.8724 93.6991 33.9908 93.6991 34.1313V34.6083C94.216 33.9131 94.7957 33.5655 95.4381 33.5655H95.4935C95.6338 33.5655 95.7483 33.6136 95.8369 33.7098C95.9329 33.8059 95.9809 33.9242 95.9809 34.0647C95.9809 34.2052 95.9329 34.3199 95.8369 34.4086C95.7409 34.4974 95.6191 34.5417 95.4714 34.5417H95.416C95.0615 34.5417 94.7366 34.6305 94.4412 34.808C94.1458 34.9781 93.8984 35.2147 93.6991 35.5179V38.8902C93.6991 39.0307 93.6474 39.149 93.544 39.2452C93.448 39.3413 93.3298 39.3894 93.1895 39.3894Z" fill="#30323D"/>
<path d="M99.2947 39.4448C98.3938 39.4448 97.6886 39.1897 97.179 38.6794C96.6769 38.1617 96.4258 37.437 96.4258 36.5052C96.4258 35.9801 96.5218 35.4957 96.7138 35.052C96.9058 34.6083 97.2012 34.2496 97.6 33.976C97.9987 33.7024 98.4898 33.5655 99.0732 33.5655C99.6197 33.5655 100.092 33.695 100.491 33.9538C100.89 34.2052 101.193 34.5454 101.399 34.9744C101.606 35.3959 101.71 35.8581 101.71 36.361C101.71 36.5015 101.662 36.6198 101.566 36.716C101.477 36.8121 101.355 36.8602 101.2 36.8602H97.4449C97.504 37.3778 97.696 37.7809 98.0209 38.0693C98.3458 38.3577 98.8 38.5019 99.3834 38.5019C99.6935 38.5019 99.9631 38.4724 100.192 38.4132C100.428 38.354 100.657 38.269 100.879 38.1581C100.938 38.1285 101.004 38.1137 101.078 38.1137C101.196 38.1137 101.3 38.1544 101.388 38.2357C101.477 38.3171 101.521 38.4206 101.521 38.5463C101.521 38.709 101.425 38.8458 101.233 38.9567C100.945 39.1194 100.661 39.2415 100.38 39.3228C100.1 39.4042 99.7378 39.4448 99.2947 39.4448ZM100.713 36.0393C100.69 35.6769 100.594 35.3737 100.425 35.1297C100.262 34.8856 100.059 34.7081 99.8154 34.5972C99.5717 34.4789 99.3243 34.4197 99.0732 34.4197C98.8221 34.4197 98.5747 34.4789 98.331 34.5972C98.0874 34.7081 97.8843 34.8856 97.7218 35.1297C97.5594 35.3737 97.467 35.6769 97.4449 36.0393H100.713Z" fill="#30323D"/>
<path d="M109.532 39.4448C108.793 39.4448 108.129 39.2858 107.538 38.9678C106.955 38.6424 106.493 38.1802 106.153 37.5812C105.821 36.9748 105.655 36.2685 105.655 35.4624C105.655 34.6564 105.821 33.9538 106.153 33.3548C106.493 32.7484 106.955 32.2861 107.538 31.9681C108.129 31.6428 108.793 31.4801 109.532 31.4801C110.034 31.4801 110.481 31.5392 110.872 31.6575C111.271 31.7759 111.666 31.946 112.057 32.1678C112.22 32.2566 112.301 32.3971 112.301 32.5894C112.301 32.7003 112.26 32.8001 112.179 32.8889C112.098 32.9702 111.991 33.0109 111.858 33.0109C111.784 33.0109 111.718 32.9961 111.659 32.9665C111.334 32.7964 111.016 32.667 110.706 32.5783C110.396 32.4895 110.038 32.4451 109.631 32.4451C108.996 32.4451 108.454 32.5783 108.003 32.8445C107.56 33.1033 107.224 33.462 106.995 33.9205C106.774 34.3716 106.663 34.8856 106.663 35.4624C106.663 36.0393 106.774 36.557 106.995 37.0155C107.224 37.4666 107.56 37.8253 108.003 38.0915C108.454 38.3503 108.996 38.4797 109.631 38.4797C110.038 38.4797 110.396 38.4354 110.706 38.3466C111.016 38.2579 111.334 38.1285 111.659 37.9584C111.718 37.9288 111.784 37.914 111.858 37.914C111.991 37.914 112.098 37.9547 112.179 38.036C112.26 38.1174 112.301 38.2172 112.301 38.3355C112.301 38.5278 112.22 38.6683 112.057 38.7571C111.666 38.9789 111.271 39.149 110.872 39.2674C110.481 39.3857 110.034 39.4448 109.532 39.4448Z" fill="#30323D"/>
<path d="M114.045 39.3894C113.905 39.3894 113.787 39.3413 113.691 39.2452C113.595 39.149 113.547 39.0307 113.547 38.8902V34.1313C113.547 33.9908 113.595 33.8724 113.691 33.7763C113.787 33.6728 113.905 33.621 114.045 33.621C114.186 33.621 114.304 33.6728 114.4 33.7763C114.503 33.8724 114.555 33.9908 114.555 34.1313V34.6083C115.072 33.9131 115.652 33.5655 116.294 33.5655H116.349C116.49 33.5655 116.604 33.6136 116.693 33.7098C116.789 33.8059 116.837 33.9242 116.837 34.0647C116.837 34.2052 116.789 34.3199 116.693 34.4086C116.597 34.4974 116.475 34.5417 116.327 34.5417H116.272C115.917 34.5417 115.592 34.6305 115.297 34.808C115.002 34.9781 114.754 35.2147 114.555 35.5179V38.8902C114.555 39.0307 114.503 39.149 114.4 39.2452C114.304 39.3413 114.186 39.3894 114.045 39.3894Z" fill="#30323D"/>
<path d="M119.05 41.9408C118.917 41.9408 118.803 41.8927 118.707 41.7966C118.618 41.7004 118.574 41.5858 118.574 41.4527C118.574 41.3935 118.585 41.3344 118.607 41.2752L119.327 39.4227L117.245 34.3421C117.215 34.2681 117.2 34.1978 117.2 34.1313C117.2 33.9908 117.248 33.8724 117.344 33.7763C117.44 33.6728 117.558 33.621 117.699 33.621C117.802 33.621 117.894 33.6506 117.976 33.7098C118.064 33.7689 118.127 33.8429 118.164 33.9316L119.87 38.1691L121.609 33.9538C121.705 33.7319 121.86 33.621 122.074 33.621C122.214 33.621 122.333 33.6728 122.429 33.7763C122.525 33.8724 122.573 33.9908 122.573 34.1313C122.573 34.1978 122.562 34.2607 122.539 34.3199L119.515 41.5969C119.412 41.8261 119.257 41.9408 119.05 41.9408Z" fill="#30323D"/>
<path d="M124.235 41.9408C124.095 41.9408 123.977 41.889 123.881 41.7855C123.785 41.6893 123.737 41.571 123.737 41.4305V34.1202C123.737 33.9797 123.785 33.8614 123.881 33.7652C123.977 33.6691 124.095 33.621 124.235 33.621C124.376 33.621 124.494 33.6691 124.59 33.7652C124.693 33.8614 124.745 33.9797 124.745 34.1202V34.4086C125.284 33.8466 125.915 33.5655 126.639 33.5655C127.097 33.5655 127.529 33.6839 127.935 33.9205C128.349 34.1498 128.681 34.49 128.932 34.9411C129.19 35.3848 129.32 35.9062 129.32 36.5052C129.32 37.1042 129.19 37.6293 128.932 38.0804C128.681 38.5241 128.349 38.8643 127.935 39.101C127.529 39.3302 127.097 39.4448 126.639 39.4448C125.915 39.4448 125.284 39.1638 124.745 38.6018V41.4305C124.745 41.5784 124.697 41.7004 124.601 41.7966C124.505 41.8927 124.383 41.9408 124.235 41.9408ZM126.495 38.5019C127.042 38.5019 127.481 38.3281 127.813 37.9806C128.146 37.633 128.312 37.1412 128.312 36.5052C128.312 35.8692 128.146 35.3774 127.813 35.0298C127.481 34.6822 127.042 34.5084 126.495 34.5084C126.155 34.5084 125.834 34.5861 125.531 34.7414C125.236 34.8893 124.974 35.089 124.745 35.3404V37.67C124.974 37.9214 125.236 38.1248 125.531 38.2801C125.834 38.428 126.155 38.5019 126.495 38.5019Z" fill="#30323D"/>
<path d="M132.631 39.4448C131.553 39.4448 131.014 38.9567 131.014 37.9806V34.5417H130.227C130.168 34.5417 130.117 34.5232 130.072 34.4863C130.035 34.4419 130.017 34.3901 130.017 34.331C130.017 34.257 130.05 34.1941 130.117 34.1424L131.623 32.667C131.69 32.6004 131.752 32.5672 131.811 32.5672C131.871 32.5672 131.919 32.5894 131.955 32.6337C132 32.6781 132.022 32.7299 132.022 32.789V33.6765H133.274C133.399 33.6765 133.503 33.7171 133.584 33.7985C133.665 33.8798 133.706 33.9834 133.706 34.1091C133.706 34.2274 133.665 34.331 133.584 34.4197C133.503 34.5011 133.399 34.5417 133.274 34.5417H132.022V37.8918C132.022 38.1802 132.088 38.3651 132.221 38.4465C132.362 38.5204 132.535 38.5574 132.742 38.5574C132.89 38.5574 133.037 38.5352 133.185 38.4908C133.215 38.4834 133.244 38.4761 133.274 38.4687C133.311 38.4613 133.355 38.4576 133.407 38.4576C133.51 38.4576 133.602 38.4982 133.683 38.5796C133.765 38.6535 133.805 38.746 133.805 38.8569C133.805 39.027 133.72 39.1564 133.551 39.2452C133.263 39.3783 132.956 39.4448 132.631 39.4448Z" fill="#30323D"/>
<path d="M137.328 39.4448C136.759 39.4448 136.261 39.3228 135.832 39.0788C135.404 38.8347 135.072 38.4908 134.835 38.0471C134.607 37.596 134.492 37.082 134.492 36.5052C134.492 35.9284 134.607 35.4181 134.835 34.9744C135.072 34.5232 135.404 34.1757 135.832 33.9316C136.261 33.6876 136.759 33.5655 137.328 33.5655C137.889 33.5655 138.384 33.6876 138.812 33.9316C139.24 34.1757 139.573 34.5232 139.809 34.9744C140.045 35.4181 140.164 35.9284 140.164 36.5052C140.164 37.082 140.045 37.596 139.809 38.0471C139.573 38.4908 139.24 38.8347 138.812 39.0788C138.384 39.3228 137.889 39.4448 137.328 39.4448ZM137.328 38.5241C137.631 38.5241 137.919 38.4539 138.192 38.3134C138.472 38.1728 138.701 37.951 138.879 37.6478C139.063 37.3446 139.156 36.96 139.156 36.4941C139.156 36.0356 139.063 35.6547 138.879 35.3515C138.701 35.0483 138.472 34.8301 138.192 34.697C137.919 34.5565 137.631 34.4863 137.328 34.4863C137.018 34.4863 136.722 34.5565 136.442 34.697C136.168 34.8301 135.943 35.0483 135.766 35.3515C135.589 35.6547 135.5 36.0356 135.5 36.4941C135.5 36.96 135.589 37.3446 135.766 37.6478C135.943 37.951 136.168 38.1728 136.442 38.3134C136.722 38.4539 137.018 38.5241 137.328 38.5241Z" fill="#30323D"/>
<path d="M146.745 39.3894C146.597 39.3894 146.464 39.3487 146.346 39.2674C146.236 39.1786 146.151 39.0529 146.092 38.8902L143.92 32.2122C143.898 32.1308 143.887 32.068 143.887 32.0236C143.88 31.8831 143.92 31.7685 144.009 31.6797C144.105 31.5836 144.227 31.5355 144.375 31.5355C144.493 31.5355 144.596 31.5725 144.685 31.6464C144.773 31.7204 144.836 31.8165 144.873 31.9349L146.734 38.0582L148.606 31.9571C148.643 31.8313 148.713 31.7315 148.816 31.6575C148.927 31.5762 149.049 31.5355 149.182 31.5355C149.315 31.5355 149.433 31.5762 149.536 31.6575C149.647 31.7315 149.721 31.8313 149.758 31.9571L151.63 38.0582L153.491 31.9349C153.528 31.8165 153.591 31.7204 153.679 31.6464C153.768 31.5725 153.871 31.5355 153.989 31.5355C154.137 31.5355 154.255 31.5836 154.344 31.6797C154.44 31.7685 154.484 31.8831 154.477 32.0236C154.477 32.068 154.466 32.1308 154.444 32.2122L152.272 38.8902C152.213 39.0529 152.125 39.1786 152.007 39.2674C151.896 39.3487 151.767 39.3894 151.619 39.3894C151.471 39.3894 151.335 39.345 151.209 39.2563C151.091 39.1601 151.01 39.0381 150.965 38.8902L149.182 33.2328L147.399 38.8902C147.354 39.0381 147.269 39.1601 147.144 39.2563C147.026 39.345 146.893 39.3894 146.745 39.3894Z" fill="#30323D"/>
<path d="M156.645 39.4448C156.32 39.4448 156.017 39.3783 155.736 39.2452C155.463 39.1121 155.245 38.9198 155.083 38.6683C154.92 38.4095 154.839 38.1137 154.839 37.7809C154.839 37.2336 155.053 36.7973 155.482 36.4719C155.917 36.1465 156.552 35.9838 157.387 35.9838H158.727V35.8951C158.727 35.407 158.605 35.0557 158.362 34.8412C158.125 34.6268 157.752 34.5195 157.243 34.5195C156.962 34.5195 156.711 34.5417 156.49 34.5861C156.275 34.6305 156.035 34.697 155.77 34.7858C155.71 34.8006 155.662 34.808 155.626 34.808C155.515 34.808 155.419 34.7673 155.338 34.6859C155.256 34.6046 155.216 34.5048 155.216 34.3864C155.216 34.1868 155.312 34.0462 155.504 33.9649C156.131 33.6987 156.77 33.5655 157.42 33.5655C157.93 33.5655 158.358 33.6691 158.705 33.8761C159.059 34.0832 159.318 34.3531 159.48 34.6859C159.65 35.0113 159.735 35.3663 159.735 35.7509V38.8902C159.735 39.0307 159.683 39.149 159.58 39.2452C159.484 39.3413 159.366 39.3894 159.226 39.3894C159.085 39.3894 158.967 39.3413 158.871 39.2452C158.775 39.149 158.727 39.0307 158.727 38.8902V38.6018C158.181 39.1638 157.486 39.4448 156.645 39.4448ZM157.021 38.5574C157.346 38.5574 157.66 38.4797 157.963 38.3244C158.266 38.1617 158.52 37.9621 158.727 37.7254V36.7936H157.52C156.405 36.7936 155.847 37.0857 155.847 37.67C155.847 37.9362 155.936 38.1507 156.113 38.3134C156.298 38.4761 156.6 38.5574 157.021 38.5574Z" fill="#30323D"/>
<path d="M161.923 39.3894C161.783 39.3894 161.665 39.3413 161.569 39.2452C161.473 39.149 161.425 39.0307 161.425 38.8902V31.6908C161.425 31.5503 161.473 31.432 161.569 31.3358C161.665 31.2323 161.783 31.1805 161.923 31.1805C162.071 31.1805 162.193 31.2286 162.289 31.3248C162.385 31.4209 162.433 31.5429 162.433 31.6908V38.8902C162.433 39.0307 162.381 39.149 162.277 39.2452C162.181 39.3413 162.063 39.3894 161.923 39.3894Z" fill="#30323D"/>
<path d="M164.681 39.3894C164.541 39.3894 164.423 39.3413 164.327 39.2452C164.231 39.149 164.183 39.0307 164.183 38.8902V31.6908C164.183 31.5503 164.231 31.432 164.327 31.3358C164.423 31.2323 164.541 31.1805 164.681 31.1805C164.829 31.1805 164.951 31.2286 165.047 31.3248C165.143 31.4209 165.191 31.5429 165.191 31.6908V38.8902C165.191 39.0307 165.139 39.149 165.036 39.2452C164.94 39.3413 164.822 39.3894 164.681 39.3894Z" fill="#30323D"/>
<path d="M169.467 39.4448C168.566 39.4448 167.861 39.1897 167.351 38.6794C166.849 38.1617 166.598 37.437 166.598 36.5052C166.598 35.9801 166.694 35.4957 166.886 35.052C167.078 34.6083 167.373 34.2496 167.772 33.976C168.171 33.7024 168.662 33.5655 169.245 33.5655C169.792 33.5655 170.265 33.695 170.663 33.9538C171.062 34.2052 171.365 34.5454 171.572 34.9744C171.778 35.3959 171.882 35.8581 171.882 36.361C171.882 36.5015 171.834 36.6198 171.738 36.716C171.649 36.8121 171.527 36.8602 171.372 36.8602H167.617C167.676 37.3778 167.868 37.7809 168.193 38.0693C168.518 38.3577 168.972 38.5019 169.556 38.5019C169.866 38.5019 170.135 38.4724 170.364 38.4132C170.601 38.354 170.829 38.269 171.051 38.1581C171.11 38.1285 171.177 38.1137 171.25 38.1137C171.369 38.1137 171.472 38.1544 171.561 38.2357C171.649 38.3171 171.693 38.4206 171.693 38.5463C171.693 38.709 171.597 38.8458 171.405 38.9567C171.117 39.1194 170.833 39.2415 170.553 39.3228C170.272 39.4042 169.91 39.4448 169.467 39.4448ZM170.885 36.0393C170.863 35.6769 170.767 35.3737 170.597 35.1297C170.434 34.8856 170.231 34.7081 169.988 34.5972C169.744 34.4789 169.497 34.4197 169.245 34.4197C168.994 34.4197 168.747 34.4789 168.503 34.5972C168.26 34.7081 168.057 34.8856 167.894 35.1297C167.732 35.3737 167.639 35.6769 167.617 36.0393H170.885Z" fill="#30323D"/>
<path d="M175.165 39.4448C174.087 39.4448 173.548 38.9567 173.548 37.9806V34.5417H172.761C172.702 34.5417 172.651 34.5232 172.606 34.4863C172.569 34.4419 172.551 34.3901 172.551 34.331C172.551 34.257 172.584 34.1941 172.651 34.1424L174.157 32.667C174.224 32.6004 174.286 32.5672 174.345 32.5672C174.404 32.5672 174.452 32.5894 174.489 32.6337C174.534 32.6781 174.556 32.7299 174.556 32.789V33.6765H175.808C175.933 33.6765 176.036 33.7171 176.118 33.7985C176.199 33.8798 176.24 33.9834 176.24 34.1091C176.24 34.2274 176.199 34.331 176.118 34.4197C176.036 34.5011 175.933 34.5417 175.808 34.5417H174.556V37.8918C174.556 38.1802 174.622 38.3651 174.755 38.4465C174.896 38.5204 175.069 38.5574 175.276 38.5574C175.424 38.5574 175.571 38.5352 175.719 38.4908C175.748 38.4834 175.778 38.4761 175.808 38.4687C175.844 38.4613 175.889 38.4576 175.94 38.4576C176.044 38.4576 176.136 38.4982 176.217 38.5796C176.299 38.6535 176.339 38.746 176.339 38.8569C176.339 39.027 176.254 39.1564 176.084 39.2452C175.796 39.3783 175.49 39.4448 175.165 39.4448Z" fill="#30323D"/>
<path d="M136.006 27.1807C135.58 27.1807 135.222 27.0351 134.931 26.7439C134.639 26.4526 134.494 26.0942 134.494 25.6686V5.10522C134.494 4.67962 134.639 4.32121 134.931 4.03001C135.222 3.7164 135.58 3.5596 136.006 3.5596H143.667C145.795 3.5596 147.531 3.91801 148.875 4.63481C150.219 5.35162 151.182 6.27003 151.764 7.39004C152.347 8.51005 152.638 9.71967 152.638 11.0189C152.638 12.3181 152.347 13.5277 151.764 14.6477C151.182 15.7677 150.219 16.6861 148.875 17.403C147.531 18.1198 145.795 18.4782 143.667 18.4782H137.551V25.6686C137.551 26.0942 137.395 26.4526 137.081 26.7439C136.79 27.0351 136.431 27.1807 136.006 27.1807ZM143.364 15.5885C145.649 15.5885 147.251 15.1517 148.169 14.2781C149.11 13.4045 149.58 12.3181 149.58 11.0189C149.58 9.71967 149.11 8.63326 148.169 7.75965C147.251 6.88604 145.649 6.44923 143.364 6.44923H137.551V15.5885H143.364Z" fill="#30323D"/>
<path d="M155.525 27.1807C155.077 27.1807 154.708 27.0351 154.416 26.7439C154.148 26.4526 154.013 26.0942 154.013 25.6686C154.013 25.4894 154.069 25.2654 154.181 24.9966L162.749 4.76921C162.929 4.36601 163.175 4.04121 163.489 3.7948C163.825 3.526 164.228 3.3916 164.698 3.3916H165.034C165.505 3.3916 165.897 3.526 166.21 3.7948C166.546 4.04121 166.804 4.36601 166.983 4.76921L175.551 24.9966C175.663 25.2654 175.719 25.4894 175.719 25.6686C175.719 26.0942 175.573 26.4526 175.282 26.7439C175.013 27.0351 174.655 27.1807 174.207 27.1807C173.893 27.1807 173.602 27.1023 173.333 26.9455C173.087 26.7663 172.897 26.531 172.762 26.2398L170.578 20.9982H159.154L156.97 26.2398C156.836 26.531 156.634 26.7663 156.365 26.9455C156.119 27.1023 155.839 27.1807 155.525 27.1807ZM160.33 18.2094H169.402L164.866 7.28924L160.33 18.2094Z" fill="#30323D"/>
<path d="M186.153 27.1807C185.727 27.1807 185.358 27.0351 185.044 26.7439C184.753 26.4526 184.607 26.0942 184.607 25.6686V17.1005L176.577 5.84443C176.397 5.55322 176.308 5.25082 176.308 4.93722C176.308 4.51161 176.442 4.15321 176.711 3.86201C177.002 3.5484 177.361 3.3916 177.786 3.3916C178.346 3.3916 178.794 3.6492 179.13 4.16441L186.153 14.3789L193.175 4.16441C193.511 3.6492 193.959 3.3916 194.519 3.3916C194.945 3.3916 195.303 3.5484 195.594 3.86201C195.886 4.15321 196.02 4.51161 195.998 4.93722C195.998 5.25082 195.908 5.55322 195.729 5.84443L187.665 17.1005V25.6686C187.665 26.0942 187.519 26.4526 187.228 26.7439C186.937 27.0351 186.578 27.1807 186.153 27.1807Z" fill="#30323D"/>
</svg>
