<svg width="196" height="42" viewBox="0 0 196 42" fill="none" xmlns="http://www.w3.org/2000/svg">
<path d="M20.95 41.9C32.5204 41.9 41.9 32.5204 41.9 20.95C41.9 9.37964 32.5204 0 20.95 0C9.37964 0 0 9.37964 0 20.95C0 32.5204 9.37964 41.9 20.95 41.9Z" fill="black"/>
<path d="M20.9195 27.3727C20.9202 27.0763 20.9993 26.7854 21.1489 26.5295C21.2985 26.2736 21.5131 26.0619 21.7711 25.9159C22.029 25.7698 22.321 25.6947 22.6173 25.6981C22.9137 25.7015 23.2039 25.7833 23.4584 25.9352L31.5937 30.7981V26.6388L22.1433 20.9502L31.5937 15.2616V11.1021L23.4584 15.965C23.2041 16.1183 22.9136 16.2012 22.6167 16.2053C22.3199 16.2094 22.0273 16.1344 21.7689 15.9881C21.5105 15.8419 21.2957 15.6295 21.1464 15.3728C20.9972 15.1162 20.9189 14.8244 20.9195 14.5275V14.5275L33.7647 6.85089V15.5673C33.7662 15.9804 33.6597 16.3869 33.4559 16.7463C33.252 17.1057 32.9578 17.4056 32.6024 17.6164L27.0973 20.9195L32.6024 24.2531C32.9558 24.4661 33.2484 24.7666 33.4519 25.1255C33.6555 25.4844 33.7632 25.8897 33.7647 26.3023V35.0493L20.9195 27.3727Z" fill="white"/>
<path d="M9.23649 24.2829L14.7416 20.9493L9.23649 17.6462C8.88303 17.4333 8.59038 17.1329 8.3868 16.7739C8.18322 16.415 8.07558 16.0097 8.07422 15.597V6.88068L20.9194 14.5573C20.9187 14.8537 20.8396 15.1446 20.69 15.4005C20.5404 15.6564 20.3258 15.8681 20.0679 16.0141C19.8099 16.1601 19.518 16.2353 19.2216 16.2319C18.9252 16.2285 18.635 16.1467 18.3805 15.9947L10.2452 11.1319V15.2912L19.6956 20.9798L10.2452 26.6684V30.8278L18.3805 25.9649C18.6348 25.8115 18.9252 25.7286 19.2221 25.7245C19.519 25.7204 19.8116 25.7954 20.07 25.9417C20.3284 26.088 20.5432 26.3003 20.6925 26.557C20.8417 26.8137 20.9201 27.1054 20.9194 27.4023V27.4023L8.07422 35.0789V26.3321C8.08203 25.9207 8.19241 25.5179 8.39537 25.16C8.59834 24.8022 8.88747 24.5007 9.23649 24.2829V24.2829Z" fill="#DEA127"/>
<path d="M48.2684 27.1543C47.8879 27.1543 47.5523 27.02 47.2613 26.7514C46.9928 26.4605 46.8585 26.1248 46.8585 25.7444C46.8585 25.3863 46.9592 25.0731 47.1606 24.8045L54.9148 15.2713L47.2278 5.80517C47.0264 5.53663 46.9257 5.22333 46.9257 4.86528C46.9257 4.44009 47.0599 4.09322 47.3285 3.82468C47.6194 3.53376 47.9774 3.3883 48.4026 3.3883C48.6488 3.3883 48.8838 3.44424 49.1076 3.55614C49.3313 3.66803 49.5104 3.81349 49.6446 3.99251L56.7274 12.9887L63.8102 3.92538C64.0564 3.56733 64.4256 3.3883 64.918 3.3883C65.3208 3.3883 65.6676 3.53376 65.9586 3.82468C66.2495 4.09322 66.3949 4.4289 66.3949 4.83171C66.3949 5.14501 66.3054 5.42474 66.1264 5.6709L58.3723 15.2377L66.1264 24.7709C66.3278 24.9947 66.4285 25.2856 66.4285 25.6437C66.4285 26.0689 66.283 26.4269 65.9921 26.7179C65.7236 27.0088 65.3655 27.1543 64.918 27.1543C64.4256 27.1543 64.0228 26.9417 63.7095 26.5165L56.526 17.4867L49.4432 26.55C49.1076 26.9528 48.7159 27.1543 48.2684 27.1543Z" fill="#DEA027"/>
<path d="M80.5464 27.3221C78.3085 27.3221 76.2944 26.841 74.5042 25.8787C72.7363 24.894 71.3376 23.4954 70.3082 21.6827C69.3012 19.8477 68.7977 17.7105 68.7977 15.2713C68.7977 12.832 69.3012 10.7061 70.3082 8.8934C71.3376 7.05837 72.7363 5.65971 74.5042 4.69744C76.2944 3.71279 78.3085 3.22046 80.5464 3.22046C82.0681 3.22046 83.422 3.39949 84.6081 3.75754C85.8165 4.1156 87.0137 4.6303 88.1998 5.30166C88.6921 5.5702 88.9383 5.99539 88.9383 6.57723C88.9383 6.91291 88.8152 7.21502 88.569 7.48356C88.3229 7.72972 87.9984 7.8528 87.5956 7.8528C87.3718 7.8528 87.1704 7.80805 86.9914 7.71853C86.0067 7.20383 85.0444 6.81221 84.1045 6.54366C83.1646 6.27512 82.0793 6.14085 80.8485 6.14085C78.9239 6.14085 77.2791 6.54366 75.914 7.34929C74.5713 8.13254 73.5531 9.21789 72.8593 10.6054C72.188 11.9704 71.8523 13.5258 71.8523 15.2713C71.8523 17.0168 72.188 18.5833 72.8593 19.9708C73.5531 21.3358 74.5713 22.4212 75.914 23.2268C77.2791 24.0101 78.9239 24.4017 80.8485 24.4017C82.0793 24.4017 83.1646 24.2674 84.1045 23.9989C85.0444 23.7303 86.0067 23.3387 86.9914 22.824C87.1704 22.7345 87.3718 22.6897 87.5956 22.6897C87.9984 22.6897 88.3229 22.8128 88.569 23.059C88.8152 23.3052 88.9383 23.6073 88.9383 23.9653C88.9383 24.5472 88.6921 24.9723 88.1998 25.2409C87.0137 25.9122 85.8165 26.427 84.6081 26.785C83.422 27.1431 82.0681 27.3221 80.5464 27.3221Z" fill="#DEA027"/>
<path d="M95.0581 26.9864C94.6329 26.9864 94.2749 26.841 93.9839 26.55C93.693 26.2591 93.5476 25.9011 93.5476 25.4759V5.10025C93.5476 4.67506 93.693 4.317 93.9839 4.02608C94.2749 3.71279 94.6329 3.55614 95.0581 3.55614H108.519C108.922 3.55614 109.257 3.7016 109.526 3.99251C109.817 4.26106 109.962 4.59673 109.962 4.99955C109.962 5.40236 109.817 5.73804 109.526 6.00658C109.257 6.27512 108.922 6.40939 108.519 6.40939H96.6022V13.8279H107.31C107.713 13.8279 108.049 13.9733 108.317 14.2642C108.608 14.5328 108.754 14.8685 108.754 15.2713C108.754 15.6741 108.608 16.0098 108.317 16.2783C108.049 16.5468 107.713 16.6811 107.31 16.6811H96.6022V24.1332H108.519C108.922 24.1332 109.257 24.2786 109.526 24.5695C109.817 24.8381 109.962 25.1738 109.962 25.5766C109.962 25.9794 109.817 26.3151 109.526 26.5836C109.257 26.8521 108.922 26.9864 108.519 26.9864H95.0581Z" fill="#DEA027"/>
<path d="M117.068 26.9864C116.486 26.9864 115.983 26.785 115.558 26.3822C115.155 25.957 114.954 25.4535 114.954 24.8716V4.93241C114.954 4.50722 115.099 4.14916 115.39 3.85825C115.681 3.54495 116.039 3.3883 116.464 3.3883C116.889 3.3883 117.247 3.54495 117.538 3.85825C117.852 4.14916 118.008 4.50722 118.008 4.93241V23.9317H128.985C129.41 23.9317 129.768 24.0884 130.059 24.4017C130.372 24.6926 130.529 25.0507 130.529 25.4759C130.529 25.9011 130.372 26.2591 130.059 26.55C129.768 26.841 129.41 26.9864 128.985 26.9864H117.068Z" fill="#DEA027"/>
<path d="M49.1251 36.7156C48.4271 36.7156 47.773 36.5835 47.163 36.3193C47.097 36.2918 47.0421 36.2477 46.9981 36.1872C46.9541 36.1211 46.9321 36.0523 46.9321 35.9808C46.9321 35.8872 46.9624 35.8074 47.0228 35.7414C47.0888 35.6698 47.1712 35.634 47.2701 35.634C47.3251 35.634 47.3773 35.645 47.4268 35.667C47.9324 35.8927 48.4738 36.0056 49.0509 36.0056C50.0127 36.0056 50.4937 35.6891 50.4937 35.0561C50.4937 34.891 50.4305 34.7534 50.304 34.6433C50.1831 34.5332 50.032 34.4479 49.8506 34.3873C49.6692 34.3213 49.4109 34.2442 49.0756 34.1562C48.6305 34.0406 48.2705 33.9305 47.9956 33.8259C47.7208 33.7158 47.4845 33.5535 47.2866 33.3388C47.0888 33.1241 46.9898 32.8379 46.9898 32.4801C46.9898 32.1664 47.0723 31.8829 47.2372 31.6298C47.4021 31.3711 47.6439 31.1674 47.9627 31.0188C48.2869 30.8647 48.6744 30.7876 49.1251 30.7876C49.7297 30.7876 50.2766 30.8784 50.7657 31.0601C50.9196 31.1151 50.9966 31.2252 50.9966 31.3903C50.9966 31.4784 50.9663 31.5582 50.9059 31.6298C50.8454 31.7013 50.7657 31.7371 50.6668 31.7371C50.6338 31.7371 50.5898 31.7261 50.5349 31.7041C50.1062 31.5554 49.6637 31.4811 49.2076 31.4811C48.7734 31.4811 48.4188 31.5637 48.144 31.7288C47.8747 31.894 47.7401 32.1251 47.7401 32.4223C47.7401 32.6205 47.8033 32.7829 47.9297 32.9095C48.0616 33.0306 48.2237 33.1269 48.4161 33.1984C48.614 33.2645 48.8805 33.336 49.2158 33.4131C49.65 33.5177 49.999 33.6223 50.2628 33.7268C50.5321 33.8314 50.7602 33.9938 50.9471 34.214C51.1395 34.4341 51.2357 34.7313 51.2357 35.1056C51.2357 35.4139 51.1477 35.6918 50.9718 35.9395C50.796 36.1817 50.5486 36.3716 50.2298 36.5092C49.9111 36.6468 49.5428 36.7156 49.1251 36.7156Z" fill="white"/>
<path d="M54.1229 36.7156C53.4524 36.7156 52.9275 36.5257 52.5482 36.1459C52.1745 35.7606 51.9876 35.2212 51.9876 34.5277C51.9876 34.1369 52.0591 33.7764 52.202 33.4461C52.3449 33.1159 52.5647 32.8489 52.8615 32.6453C53.1583 32.4416 53.5238 32.3398 53.958 32.3398C54.3647 32.3398 54.7165 32.4361 55.0133 32.6288C55.3101 32.8159 55.5354 33.0691 55.6893 33.3883C55.8432 33.7021 55.9201 34.0461 55.9201 34.4204C55.9201 34.5249 55.8844 34.613 55.813 34.6846C55.747 34.7561 55.6563 34.7919 55.5409 34.7919H52.7461C52.7901 35.1772 52.933 35.4772 53.1748 35.6918C53.4166 35.9065 53.7546 36.0138 54.1888 36.0138C54.4197 36.0138 54.6203 35.9918 54.7907 35.9478C54.9666 35.9037 55.1369 35.8404 55.3018 35.7579C55.3458 35.7359 55.3953 35.7248 55.4502 35.7248C55.5382 35.7248 55.6151 35.7551 55.6811 35.8157C55.747 35.8762 55.78 35.9533 55.78 36.0468C55.78 36.1679 55.7085 36.2698 55.5656 36.3523C55.3513 36.4734 55.1397 36.5642 54.9308 36.6248C54.722 36.6853 54.4527 36.7156 54.1229 36.7156ZM55.1782 34.1809C55.1617 33.9112 55.0902 33.6856 54.9638 33.5039C54.8429 33.3223 54.6917 33.1902 54.5104 33.1076C54.329 33.0196 54.1449 32.9755 53.958 32.9755C53.7711 32.9755 53.587 33.0196 53.4056 33.1076C53.2243 33.1902 53.0731 33.3223 52.9522 33.5039C52.8313 33.6856 52.7626 33.9112 52.7461 34.1809H55.1782Z" fill="white"/>
<path d="M58.8585 36.7156C58.4627 36.7156 58.0972 36.6275 57.762 36.4514C57.4267 36.2753 57.1574 36.0221 56.954 35.6918C56.7562 35.3616 56.6572 34.9735 56.6572 34.5277C56.6572 34.0819 56.7562 33.6938 56.954 33.3636C57.1574 33.0333 57.4267 32.7801 57.762 32.604C58.0972 32.4279 58.4627 32.3398 58.8585 32.3398C59.1498 32.3398 59.3998 32.3783 59.6087 32.4554C59.823 32.5269 60.0209 32.6205 60.2023 32.7361C60.3122 32.8076 60.3672 32.904 60.3672 33.0251C60.3672 33.1076 60.3342 33.1847 60.2682 33.2562C60.2078 33.3223 60.1363 33.3553 60.0539 33.3553C59.9934 33.3553 59.933 33.3388 59.8725 33.3058C59.6911 33.2122 59.5345 33.1461 59.4026 33.1076C59.2762 33.0636 59.1168 33.0416 58.9244 33.0416C58.4517 33.0416 58.0808 33.1792 57.8114 33.4544C57.5421 33.7241 57.4075 34.0819 57.4075 34.5277C57.4075 34.9735 57.5421 35.334 57.8114 35.6093C58.0808 35.879 58.4517 36.0138 58.9244 36.0138C59.1168 36.0138 59.2762 35.9945 59.4026 35.956C59.5345 35.912 59.6911 35.8432 59.8725 35.7496C59.933 35.7166 59.9934 35.7001 60.0539 35.7001C60.1363 35.7001 60.2078 35.7359 60.2682 35.8074C60.3342 35.8735 60.3672 35.9478 60.3672 36.0303C60.3672 36.1514 60.3122 36.2477 60.2023 36.3193C60.0209 36.4349 59.823 36.5312 59.6087 36.6083C59.3998 36.6798 59.1498 36.7156 58.8585 36.7156Z" fill="white"/>
<path d="M62.7432 36.7156C62.4409 36.7156 62.1771 36.644 61.9518 36.5009C61.7319 36.3578 61.5615 36.1624 61.4406 35.9147C61.3252 35.667 61.2675 35.3946 61.2675 35.0974V32.7526C61.2675 32.648 61.3032 32.56 61.3747 32.4884C61.4516 32.4168 61.5423 32.3811 61.6467 32.3811C61.7511 32.3811 61.8391 32.4168 61.9105 32.4884C61.982 32.56 62.0177 32.648 62.0177 32.7526V35.0148C62.0177 35.6863 62.32 36.0221 62.9246 36.0221C63.1994 36.0221 63.444 35.9505 63.6583 35.8074C63.8782 35.6643 64.0843 35.4717 64.2766 35.2295V32.7526C64.2766 32.648 64.3124 32.56 64.3838 32.4884C64.4608 32.4168 64.5515 32.3811 64.6559 32.3811C64.7603 32.3811 64.8482 32.4168 64.9197 32.4884C64.9911 32.56 65.0269 32.648 65.0269 32.7526V36.2945C65.0269 36.3991 64.9911 36.4899 64.9197 36.567C64.8482 36.6385 64.7603 36.6743 64.6559 36.6743C64.5515 36.6743 64.4608 36.6385 64.3838 36.567C64.3124 36.4899 64.2766 36.3991 64.2766 36.2945V35.956C64.0678 36.1872 63.8424 36.3716 63.6006 36.5092C63.3588 36.6468 63.073 36.7156 62.7432 36.7156Z" fill="white"/>
<path d="M66.7036 36.6743C66.5991 36.6743 66.5112 36.6385 66.4397 36.567C66.3683 36.4954 66.3326 36.4074 66.3326 36.3028V32.7609C66.3326 32.6563 66.3683 32.5682 66.4397 32.4967C66.5112 32.4196 66.5991 32.3811 66.7036 32.3811C66.808 32.3811 66.8959 32.4196 66.9674 32.4967C67.0443 32.5682 67.0828 32.6563 67.0828 32.7609V33.1159C67.4675 32.5985 67.899 32.3398 68.3771 32.3398H68.4184C68.5228 32.3398 68.608 32.3756 68.6739 32.4471C68.7454 32.5187 68.7811 32.6067 68.7811 32.7113C68.7811 32.8159 68.7454 32.9012 68.6739 32.9673C68.6025 33.0333 68.5118 33.0663 68.4019 33.0663H68.3607C68.0968 33.0663 67.855 33.1324 67.6352 33.2645C67.4153 33.3911 67.2312 33.5672 67.0828 33.7929V36.3028C67.0828 36.4074 67.0443 36.4954 66.9674 36.567C66.8959 36.6385 66.808 36.6743 66.7036 36.6743Z" fill="white"/>
<path d="M71.2475 36.7156C70.577 36.7156 70.0521 36.5257 69.6729 36.1459C69.2991 35.7606 69.1122 35.2212 69.1122 34.5277C69.1122 34.1369 69.1837 33.7764 69.3266 33.4461C69.4695 33.1159 69.6893 32.8489 69.9861 32.6453C70.2829 32.4416 70.6484 32.3398 71.0826 32.3398C71.4893 32.3398 71.8411 32.4361 72.1379 32.6288C72.4347 32.8159 72.66 33.0691 72.8139 33.3883C72.9678 33.7021 73.0448 34.0461 73.0448 34.4204C73.0448 34.5249 73.009 34.613 72.9376 34.6846C72.8716 34.7561 72.781 34.7919 72.6655 34.7919H69.8707C69.9147 35.1772 70.0576 35.4772 70.2994 35.6918C70.5413 35.9065 70.8793 36.0138 71.3135 36.0138C71.5443 36.0138 71.7449 35.9918 71.9153 35.9478C72.0912 35.9037 72.2616 35.8404 72.4264 35.7579C72.4704 35.7359 72.5199 35.7248 72.5748 35.7248C72.6628 35.7248 72.7397 35.7551 72.8057 35.8157C72.8716 35.8762 72.9046 35.9533 72.9046 36.0468C72.9046 36.1679 72.8332 36.2698 72.6903 36.3523C72.4759 36.4734 72.2643 36.5642 72.0555 36.6248C71.8466 36.6853 71.5773 36.7156 71.2475 36.7156ZM72.3028 34.1809C72.2863 33.9112 72.2148 33.6856 72.0884 33.5039C71.9675 33.3223 71.8164 33.1902 71.635 33.1076C71.4536 33.0196 71.2695 32.9755 71.0826 32.9755C70.8958 32.9755 70.7116 33.0196 70.5303 33.1076C70.3489 33.1902 70.1977 33.3223 70.0768 33.5039C69.9559 33.6856 69.8872 33.9112 69.8707 34.1809H72.3028Z" fill="white"/>
<path d="M78.8667 36.7156C78.317 36.7156 77.8224 36.5973 77.3827 36.3606C76.9485 36.1184 76.605 35.7744 76.3521 35.3285C76.1048 34.8772 75.9812 34.3516 75.9812 33.7516C75.9812 33.1517 76.1048 32.6288 76.3521 32.1829C76.605 31.7316 76.9485 31.3876 77.3827 31.1509C77.8224 30.9087 78.317 30.7876 78.8667 30.7876C79.2404 30.7876 79.5729 30.8316 79.8642 30.9197C80.161 31.0078 80.4551 31.1344 80.7464 31.2995C80.8673 31.3656 80.9277 31.4701 80.9277 31.6132C80.9277 31.6958 80.8975 31.7701 80.837 31.8362C80.7766 31.8967 80.6969 31.927 80.598 31.927C80.543 31.927 80.4935 31.916 80.4496 31.894C80.2077 31.7674 79.9714 31.671 79.7406 31.605C79.5097 31.5389 79.2431 31.5059 78.9409 31.5059C78.4682 31.5059 78.0642 31.605 77.7289 31.8031C77.3992 31.9958 77.1491 32.2627 76.9787 32.604C76.8138 32.9397 76.7314 33.3223 76.7314 33.7516C76.7314 34.1809 76.8138 34.5662 76.9787 34.9075C77.1491 35.2432 77.3992 35.5102 77.7289 35.7083C78.0642 35.901 78.4682 35.9973 78.9409 35.9973C79.2431 35.9973 79.5097 35.9643 79.7406 35.8982C79.9714 35.8322 80.2077 35.7359 80.4496 35.6093C80.4935 35.5872 80.543 35.5762 80.598 35.5762C80.6969 35.5762 80.7766 35.6065 80.837 35.667C80.8975 35.7276 80.9277 35.8019 80.9277 35.89C80.9277 36.0331 80.8673 36.1377 80.7464 36.2037C80.4551 36.3688 80.161 36.4954 79.8642 36.5835C79.5729 36.6716 79.2404 36.7156 78.8667 36.7156Z" fill="white"/>
<path d="M82.226 36.6743C82.1216 36.6743 82.0336 36.6385 81.9622 36.567C81.8907 36.4954 81.855 36.4074 81.855 36.3028V32.7609C81.855 32.6563 81.8907 32.5682 81.9622 32.4967C82.0336 32.4196 82.1216 32.3811 82.226 32.3811C82.3304 32.3811 82.4184 32.4196 82.4898 32.4967C82.5668 32.5682 82.6053 32.6563 82.6053 32.7609V33.1159C82.99 32.5985 83.4214 32.3398 83.8996 32.3398H83.9408C84.0453 32.3398 84.1304 32.3756 84.1964 32.4471C84.2679 32.5187 84.3036 32.6067 84.3036 32.7113C84.3036 32.8159 84.2679 32.9012 84.1964 32.9673C84.125 33.0333 84.0343 33.0663 83.9243 33.0663H83.8831C83.6193 33.0663 83.3775 33.1324 83.1576 33.2645C82.9378 33.3911 82.7536 33.5672 82.6053 33.7929V36.3028C82.6053 36.4074 82.5668 36.4954 82.4898 36.567C82.4184 36.6385 82.3304 36.6743 82.226 36.6743Z" fill="white"/>
<path d="M85.9509 38.5732C85.852 38.5732 85.7668 38.5375 85.6953 38.4659C85.6294 38.3944 85.5964 38.309 85.5964 38.21C85.5964 38.1659 85.6046 38.1219 85.6211 38.0779L86.157 36.6991L84.6071 32.9177C84.5851 32.8627 84.5741 32.8104 84.5741 32.7609C84.5741 32.6563 84.6098 32.5682 84.6813 32.4967C84.7527 32.4196 84.8407 32.3811 84.9451 32.3811C85.022 32.3811 85.0907 32.4031 85.1512 32.4471C85.2171 32.4912 85.2639 32.5462 85.2913 32.6122L86.561 35.7661L87.8553 32.6288C87.9268 32.4636 88.0422 32.3811 88.2016 32.3811C88.306 32.3811 88.394 32.4196 88.4654 32.4967C88.5369 32.5682 88.5726 32.6563 88.5726 32.7609C88.5726 32.8104 88.5643 32.8572 88.5478 32.9012L86.2972 38.3173C86.2202 38.4879 86.1048 38.5732 85.9509 38.5732Z" fill="white"/>
<path d="M89.8101 38.5732C89.7057 38.5732 89.6178 38.5347 89.5463 38.4577C89.4749 38.3861 89.4391 38.298 89.4391 38.1935V32.7526C89.4391 32.648 89.4749 32.56 89.5463 32.4884C89.6178 32.4168 89.7057 32.3811 89.8101 32.3811C89.9145 32.3811 90.0025 32.4168 90.0739 32.4884C90.1509 32.56 90.1894 32.648 90.1894 32.7526V32.9673C90.5906 32.5489 91.0605 32.3398 91.5991 32.3398C91.9399 32.3398 92.2614 32.4279 92.5637 32.604C92.8715 32.7746 93.1188 33.0278 93.3057 33.3636C93.4981 33.6938 93.5943 34.0819 93.5943 34.5277C93.5943 34.9735 93.4981 35.3643 93.3057 35.7001C93.1188 36.0303 92.8715 36.2835 92.5637 36.4596C92.2614 36.6303 91.9399 36.7156 91.5991 36.7156C91.0605 36.7156 90.5906 36.5064 90.1894 36.0881V38.1935C90.1894 38.3035 90.1536 38.3944 90.0822 38.4659C90.0107 38.5375 89.92 38.5732 89.8101 38.5732ZM91.492 36.0138C91.8987 36.0138 92.2257 35.8845 92.473 35.6258C92.7204 35.3671 92.844 35.001 92.844 34.5277C92.844 34.0543 92.7204 33.6883 92.473 33.4296C92.2257 33.1709 91.8987 33.0416 91.492 33.0416C91.2391 33.0416 91 33.0994 90.7747 33.2149C90.5549 33.325 90.3597 33.4736 90.1894 33.6608V35.3946C90.3597 35.5817 90.5549 35.7331 90.7747 35.8487C91 35.9588 91.2391 36.0138 91.492 36.0138Z" fill="white"/>
<path d="M96.0589 36.7156C95.2565 36.7156 94.8552 36.3523 94.8552 35.6258V33.0663H94.2699C94.2259 33.0663 94.1875 33.0526 94.1545 33.0251C94.127 32.992 94.1133 32.9535 94.1133 32.9095C94.1133 32.8544 94.138 32.8076 94.1875 32.7691L95.3087 31.671C95.3581 31.6215 95.4049 31.5967 95.4488 31.5967C95.4928 31.5967 95.5285 31.6132 95.556 31.6463C95.589 31.6793 95.6055 31.7178 95.6055 31.7619V32.4223H96.5371C96.6305 32.4223 96.7075 32.4526 96.7679 32.5132C96.8284 32.5737 96.8586 32.6508 96.8586 32.7443C96.8586 32.8324 96.8284 32.9095 96.7679 32.9755C96.7075 33.0361 96.6305 33.0663 96.5371 33.0663H95.6055V35.5597C95.6055 35.7744 95.6549 35.912 95.7539 35.9725C95.8583 36.0276 95.9875 36.0551 96.1414 36.0551C96.2513 36.0551 96.3612 36.0386 96.4711 36.0056C96.4931 36.0001 96.5151 35.9945 96.5371 35.989C96.5646 35.9835 96.5975 35.9808 96.636 35.9808C96.713 35.9808 96.7817 36.0111 96.8421 36.0716C96.9026 36.1266 96.9328 36.1954 96.9328 36.278C96.9328 36.4046 96.8696 36.5009 96.7432 36.567C96.5288 36.6661 96.3007 36.7156 96.0589 36.7156Z" fill="white"/>
<path d="M99.5545 36.7156C99.1313 36.7156 98.7603 36.6248 98.4415 36.4431C98.1227 36.2615 97.8754 36.0056 97.6995 35.6753C97.5291 35.3396 97.444 34.957 97.444 34.5277C97.444 34.0984 97.5291 33.7186 97.6995 33.3883C97.8754 33.0526 98.1227 32.7939 98.4415 32.6122C98.7603 32.4306 99.1313 32.3398 99.5545 32.3398C99.9722 32.3398 100.34 32.4306 100.659 32.6122C100.978 32.7939 101.225 33.0526 101.401 33.3883C101.577 33.7186 101.665 34.0984 101.665 34.5277C101.665 34.957 101.577 35.3396 101.401 35.6753C101.225 36.0056 100.978 36.2615 100.659 36.4431C100.34 36.6248 99.9722 36.7156 99.5545 36.7156ZM99.5545 36.0303C99.7798 36.0303 99.9942 35.978 100.198 35.8735C100.406 35.7689 100.577 35.6038 100.709 35.3781C100.846 35.1524 100.915 34.8662 100.915 34.5194C100.915 34.1782 100.846 33.8947 100.709 33.669C100.577 33.4434 100.406 33.281 100.198 33.1819C99.9942 33.0773 99.7798 33.0251 99.5545 33.0251C99.3236 33.0251 99.1038 33.0773 98.8949 33.1819C98.6916 33.281 98.524 33.4434 98.392 33.669C98.2601 33.8947 98.1942 34.1782 98.1942 34.5194C98.1942 34.8662 98.2601 35.1524 98.392 35.3781C98.524 35.6038 98.6916 35.7689 98.8949 35.8735C99.1038 35.978 99.3236 36.0303 99.5545 36.0303Z" fill="white"/>
<path d="M106.563 36.6743C106.454 36.6743 106.355 36.644 106.267 36.5835C106.184 36.5174 106.121 36.4239 106.077 36.3028L104.461 31.3325C104.445 31.272 104.436 31.2252 104.436 31.1922C104.431 31.0876 104.461 31.0023 104.527 30.9362C104.599 30.8647 104.689 30.8289 104.799 30.8289C104.887 30.8289 104.964 30.8564 105.03 30.9115C105.096 30.9665 105.143 31.0381 105.17 31.1261L106.555 35.6836L107.949 31.1426C107.976 31.0491 108.028 30.9748 108.105 30.9197C108.188 30.8592 108.278 30.8289 108.377 30.8289C108.476 30.8289 108.564 30.8592 108.641 30.9197C108.723 30.9748 108.778 31.0491 108.806 31.1426L110.199 35.6836L111.584 31.1261C111.612 31.0381 111.658 30.9665 111.724 30.9115C111.79 30.8564 111.867 30.8289 111.955 30.8289C112.065 30.8289 112.153 30.8647 112.219 30.9362C112.291 31.0023 112.324 31.0876 112.318 31.1922C112.318 31.2252 112.31 31.272 112.293 31.3325L110.677 36.3028C110.633 36.4239 110.567 36.5174 110.48 36.5835C110.397 36.644 110.301 36.6743 110.191 36.6743C110.081 36.6743 109.979 36.6413 109.886 36.5752C109.798 36.5037 109.738 36.4129 109.705 36.3028L108.377 32.0921L107.05 36.3028C107.017 36.4129 106.954 36.5037 106.86 36.5752C106.772 36.6413 106.673 36.6743 106.563 36.6743Z" fill="white"/>
<path d="M113.931 36.7156C113.69 36.7156 113.464 36.6661 113.255 36.567C113.052 36.4679 112.89 36.3248 112.769 36.1377C112.648 35.945 112.588 35.7248 112.588 35.4772C112.588 35.0698 112.747 34.7451 113.066 34.5029C113.39 34.2607 113.863 34.1396 114.484 34.1396H115.481V34.0736C115.481 33.7103 115.391 33.4489 115.209 33.2893C115.033 33.1296 114.756 33.0498 114.377 33.0498C114.168 33.0498 113.981 33.0663 113.816 33.0994C113.657 33.1324 113.478 33.1819 113.28 33.248C113.236 33.259 113.2 33.2645 113.173 33.2645C113.091 33.2645 113.019 33.2342 112.959 33.1737C112.898 33.1131 112.868 33.0388 112.868 32.9507C112.868 32.8021 112.939 32.6976 113.082 32.637C113.549 32.4389 114.025 32.3398 114.509 32.3398C114.888 32.3398 115.207 32.4168 115.465 32.571C115.729 32.7251 115.921 32.926 116.042 33.1737C116.168 33.4158 116.232 33.68 116.232 33.9663V36.3028C116.232 36.4074 116.193 36.4954 116.116 36.567C116.045 36.6385 115.957 36.6743 115.852 36.6743C115.748 36.6743 115.66 36.6385 115.589 36.567C115.517 36.4954 115.481 36.4074 115.481 36.3028V36.0881C115.075 36.5064 114.558 36.7156 113.931 36.7156ZM114.212 36.0551C114.454 36.0551 114.687 35.9973 114.913 35.8817C115.138 35.7606 115.327 35.612 115.481 35.4359V34.7424H114.583C113.753 34.7424 113.338 34.9598 113.338 35.3946C113.338 35.5927 113.404 35.7524 113.536 35.8735C113.673 35.9945 113.898 36.0551 114.212 36.0551Z" fill="white"/>
<path d="M117.86 36.6743C117.756 36.6743 117.668 36.6385 117.596 36.567C117.525 36.4954 117.489 36.4074 117.489 36.3028V30.9445C117.489 30.8399 117.525 30.7518 117.596 30.6803C117.668 30.6032 117.756 30.5647 117.86 30.5647C117.97 30.5647 118.061 30.6005 118.132 30.672C118.204 30.7436 118.239 30.8344 118.239 30.9445V36.3028C118.239 36.4074 118.201 36.4954 118.124 36.567C118.052 36.6385 117.964 36.6743 117.86 36.6743Z" fill="white"/>
<path d="M119.913 36.6743C119.809 36.6743 119.721 36.6385 119.649 36.567C119.578 36.4954 119.542 36.4074 119.542 36.3028V30.9445C119.542 30.8399 119.578 30.7518 119.649 30.6803C119.721 30.6032 119.809 30.5647 119.913 30.5647C120.023 30.5647 120.114 30.6005 120.185 30.672C120.257 30.7436 120.292 30.8344 120.292 30.9445V36.3028C120.292 36.4074 120.254 36.4954 120.177 36.567C120.105 36.6385 120.017 36.6743 119.913 36.6743Z" fill="white"/>
<path d="M123.475 36.7156C122.804 36.7156 122.279 36.5257 121.9 36.1459C121.526 35.7606 121.34 35.2212 121.34 34.5277C121.34 34.1369 121.411 33.7764 121.554 33.4461C121.697 33.1159 121.917 32.8489 122.213 32.6453C122.51 32.4416 122.876 32.3398 123.31 32.3398C123.717 32.3398 124.068 32.4361 124.365 32.6288C124.662 32.8159 124.887 33.0691 125.041 33.3883C125.195 33.7021 125.272 34.0461 125.272 34.4204C125.272 34.5249 125.236 34.613 125.165 34.6846C125.099 34.7561 125.008 34.7919 124.893 34.7919H122.098C122.142 35.1772 122.285 35.4772 122.527 35.6918C122.769 35.9065 123.107 36.0138 123.541 36.0138C123.772 36.0138 123.972 35.9918 124.143 35.9478C124.318 35.9037 124.489 35.8404 124.654 35.7579C124.698 35.7359 124.747 35.7248 124.802 35.7248C124.89 35.7248 124.967 35.7551 125.033 35.8157C125.099 35.8762 125.132 35.9533 125.132 36.0468C125.132 36.1679 125.06 36.2698 124.918 36.3523C124.703 36.4734 124.492 36.5642 124.283 36.6248C124.074 36.6853 123.805 36.7156 123.475 36.7156ZM124.53 34.1809C124.514 33.9112 124.442 33.6856 124.316 33.5039C124.195 33.3223 124.044 33.1902 123.862 33.1076C123.681 33.0196 123.497 32.9755 123.31 32.9755C123.123 32.9755 122.939 33.0196 122.758 33.1076C122.576 33.1902 122.425 33.3223 122.304 33.5039C122.183 33.6856 122.114 33.9112 122.098 34.1809H124.53Z" fill="white"/>
<path d="M127.716 36.7156C126.913 36.7156 126.512 36.3523 126.512 35.6258V33.0663H125.927C125.883 33.0663 125.844 33.0526 125.811 33.0251C125.784 32.992 125.77 32.9535 125.77 32.9095C125.77 32.8544 125.795 32.8076 125.844 32.7691L126.965 31.671C127.015 31.6215 127.062 31.5967 127.106 31.5967C127.15 31.5967 127.185 31.6132 127.213 31.6463C127.246 31.6793 127.262 31.7178 127.262 31.7619V32.4223H128.194C128.287 32.4223 128.364 32.4526 128.425 32.5132C128.485 32.5737 128.515 32.6508 128.515 32.7443C128.515 32.8324 128.485 32.9095 128.425 32.9755C128.364 33.0361 128.287 33.0663 128.194 33.0663H127.262V35.5597C127.262 35.7744 127.312 35.912 127.411 35.9725C127.515 36.0276 127.644 36.0551 127.798 36.0551C127.908 36.0551 128.018 36.0386 128.128 36.0056C128.15 36.0001 128.172 35.9945 128.194 35.989C128.221 35.9835 128.254 35.9808 128.293 35.9808C128.37 35.9808 128.438 36.0111 128.499 36.0716C128.559 36.1266 128.59 36.1954 128.59 36.278C128.59 36.4046 128.526 36.5009 128.4 36.567C128.186 36.6661 127.958 36.7156 127.716 36.7156Z" fill="white"/>
<path d="M133.508 36.7156C133.046 36.7156 132.664 36.6358 132.362 36.4762C132.06 36.311 131.837 36.0991 131.694 35.8404C131.557 35.5817 131.488 35.3065 131.488 35.0148C131.488 34.6405 131.584 34.3213 131.777 34.0571C131.975 33.7874 132.189 33.5782 132.42 33.4296C132.255 33.2315 132.129 33.0416 132.041 32.8599C131.958 32.6783 131.917 32.4691 131.917 32.2325C131.917 31.9683 131.977 31.7261 132.098 31.5059C132.225 31.2857 132.403 31.1124 132.634 30.9858C132.871 30.8537 133.145 30.7876 133.459 30.7876C133.827 30.7876 134.192 30.9087 134.555 31.1509C134.594 31.1729 134.627 31.2087 134.654 31.2582C134.687 31.3023 134.704 31.349 134.704 31.3986C134.704 31.4756 134.676 31.5444 134.621 31.605C134.566 31.66 134.497 31.6875 134.415 31.6875C134.371 31.6875 134.322 31.6738 134.267 31.6463C134.003 31.5032 133.745 31.4316 133.492 31.4316C133.217 31.4316 133 31.5087 132.84 31.6628C132.686 31.8114 132.61 31.9875 132.61 32.1912C132.61 32.3508 132.634 32.4912 132.684 32.6122C132.739 32.7333 132.818 32.8517 132.923 32.9673C133.027 33.0828 133.198 33.2507 133.434 33.4709L135.157 35.0974C135.234 34.9873 135.325 34.8194 135.429 34.5937C135.457 34.5332 135.498 34.4837 135.553 34.4451C135.613 34.4066 135.679 34.3873 135.751 34.3873C135.85 34.3873 135.932 34.4204 135.998 34.4864C136.064 34.547 136.097 34.6268 136.097 34.7258C136.097 34.7809 136.083 34.8359 136.056 34.891C135.946 35.1276 135.814 35.3533 135.66 35.568L136.212 36.0964C136.256 36.1349 136.289 36.1734 136.311 36.212C136.333 36.2505 136.344 36.3 136.344 36.3606C136.344 36.4541 136.314 36.534 136.254 36.6C136.193 36.6661 136.111 36.6991 136.006 36.6991C135.907 36.6991 135.822 36.6661 135.751 36.6L135.198 36.0716C134.962 36.2698 134.701 36.4266 134.415 36.5422C134.129 36.6578 133.827 36.7156 133.508 36.7156ZM133.442 36.0799C133.909 36.0799 134.333 35.9257 134.712 35.6175L132.873 33.892C132.686 34.0131 132.527 34.1699 132.395 34.3626C132.263 34.5552 132.197 34.7809 132.197 35.0396C132.197 35.3423 132.315 35.5927 132.552 35.7909C132.794 35.9835 133.09 36.0799 133.442 36.0799Z" fill="white"/>
<path d="M140.254 36.6743C140.149 36.6743 140.061 36.6385 139.99 36.567C139.918 36.4954 139.883 36.4074 139.883 36.3028V31.3738C139.883 31.2252 139.935 31.0986 140.039 30.994C140.144 30.8839 140.27 30.8289 140.418 30.8289H140.69C140.8 30.8289 140.899 30.8619 140.987 30.928C141.081 30.994 141.149 31.0766 141.193 31.1757L143.065 35.8487L144.936 31.1757C144.98 31.0766 145.046 30.994 145.134 30.928C145.228 30.8619 145.329 30.8289 145.439 30.8289H145.711C145.86 30.8289 145.986 30.8839 146.091 30.994C146.195 31.0986 146.247 31.2252 146.247 31.3738V36.3028C146.247 36.4074 146.211 36.4954 146.14 36.567C146.069 36.6385 145.981 36.6743 145.876 36.6743C145.772 36.6743 145.681 36.6385 145.604 36.567C145.533 36.4954 145.497 36.4074 145.497 36.3028V31.6132L143.592 36.3275C143.549 36.4321 143.477 36.5174 143.378 36.5835C143.285 36.644 143.18 36.6743 143.065 36.6743C142.949 36.6743 142.842 36.644 142.743 36.5835C142.65 36.5174 142.581 36.4321 142.537 36.3275L140.633 31.6132V36.3028C140.633 36.4074 140.594 36.4954 140.517 36.567C140.446 36.6385 140.358 36.6743 140.254 36.6743Z" fill="white"/>
<path d="M149.464 36.7156C148.793 36.7156 148.268 36.5257 147.889 36.1459C147.515 35.7606 147.328 35.2212 147.328 34.5277C147.328 34.1369 147.4 33.7764 147.543 33.4461C147.686 33.1159 147.905 32.8489 148.202 32.6453C148.499 32.4416 148.865 32.3398 149.299 32.3398C149.705 32.3398 150.057 32.4361 150.354 32.6288C150.651 32.8159 150.876 33.0691 151.03 33.3883C151.184 33.7021 151.261 34.0461 151.261 34.4204C151.261 34.5249 151.225 34.613 151.154 34.6846C151.088 34.7561 150.997 34.7919 150.882 34.7919H148.087C148.131 35.1772 148.274 35.4772 148.516 35.6918C148.757 35.9065 149.095 36.0138 149.53 36.0138C149.76 36.0138 149.961 35.9918 150.131 35.9478C150.307 35.9037 150.478 35.8404 150.643 35.7579C150.687 35.7359 150.736 35.7248 150.791 35.7248C150.879 35.7248 150.956 35.7551 151.022 35.8157C151.088 35.8762 151.121 35.9533 151.121 36.0468C151.121 36.1679 151.049 36.2698 150.906 36.3523C150.692 36.4734 150.48 36.5642 150.272 36.6248C150.063 36.6853 149.793 36.7156 149.464 36.7156ZM150.519 34.1809C150.502 33.9112 150.431 33.6856 150.305 33.5039C150.184 33.3223 150.033 33.1902 149.851 33.1076C149.67 33.0196 149.486 32.9755 149.299 32.9755C149.112 32.9755 148.928 33.0196 148.746 33.1076C148.565 33.1902 148.414 33.3223 148.293 33.5039C148.172 33.6856 148.103 33.9112 148.087 34.1809H150.519Z" fill="white"/>
<path d="M152.625 36.6743C152.52 36.6743 152.432 36.6385 152.361 36.567C152.289 36.4954 152.254 36.4074 152.254 36.3028V32.7609C152.254 32.6563 152.289 32.5682 152.361 32.4967C152.432 32.4196 152.52 32.3811 152.625 32.3811C152.729 32.3811 152.817 32.4196 152.888 32.4967C152.965 32.5682 153.004 32.6563 153.004 32.7609V33.1159C153.389 32.5985 153.82 32.3398 154.298 32.3398H154.339C154.444 32.3398 154.529 32.3756 154.595 32.4471C154.666 32.5187 154.702 32.6067 154.702 32.7113C154.702 32.8159 154.666 32.9012 154.595 32.9673C154.523 33.0333 154.433 33.0663 154.323 33.0663H154.282C154.018 33.0663 153.776 33.1324 153.556 33.2645C153.336 33.3911 153.152 33.5672 153.004 33.7929V36.3028C153.004 36.4074 152.965 36.4954 152.888 36.567C152.817 36.6385 152.729 36.6743 152.625 36.6743Z" fill="white"/>
<path d="M157.234 36.7156C156.839 36.7156 156.473 36.6275 156.138 36.4514C155.803 36.2753 155.533 36.0221 155.33 35.6918C155.132 35.3616 155.033 34.9735 155.033 34.5277C155.033 34.0819 155.132 33.6938 155.33 33.3636C155.533 33.0333 155.803 32.7801 156.138 32.604C156.473 32.4279 156.839 32.3398 157.234 32.3398C157.526 32.3398 157.776 32.3783 157.985 32.4554C158.199 32.5269 158.397 32.6205 158.578 32.7361C158.688 32.8076 158.743 32.904 158.743 33.0251C158.743 33.1076 158.71 33.1847 158.644 33.2562C158.584 33.3223 158.512 33.3553 158.43 33.3553C158.369 33.3553 158.309 33.3388 158.249 33.3058C158.067 33.2122 157.911 33.1461 157.779 33.1076C157.652 33.0636 157.493 33.0416 157.3 33.0416C156.828 33.0416 156.457 33.1792 156.187 33.4544C155.918 33.7241 155.783 34.0819 155.783 34.5277C155.783 34.9735 155.918 35.334 156.187 35.6093C156.457 35.879 156.828 36.0138 157.3 36.0138C157.493 36.0138 157.652 35.9945 157.779 35.956C157.911 35.912 158.067 35.8432 158.249 35.7496C158.309 35.7166 158.369 35.7001 158.43 35.7001C158.512 35.7001 158.584 35.7359 158.644 35.8074C158.71 35.8735 158.743 35.9478 158.743 36.0303C158.743 36.1514 158.688 36.2477 158.578 36.3193C158.397 36.4349 158.199 36.5312 157.985 36.6083C157.776 36.6798 157.526 36.7156 157.234 36.7156Z" fill="white"/>
<path d="M160.056 36.6743C159.951 36.6743 159.863 36.6385 159.792 36.567C159.72 36.4954 159.685 36.4074 159.685 36.3028V30.9445C159.685 30.8399 159.72 30.7518 159.792 30.6803C159.863 30.6032 159.951 30.5647 160.056 30.5647C160.16 30.5647 160.248 30.6032 160.32 30.6803C160.396 30.7518 160.435 30.8399 160.435 30.9445V33.0994C160.644 32.8682 160.869 32.6838 161.111 32.5462C161.353 32.4086 161.639 32.3398 161.968 32.3398C162.271 32.3398 162.532 32.4113 162.752 32.5544C162.977 32.6976 163.147 32.893 163.263 33.1406C163.384 33.3883 163.444 33.6608 163.444 33.958V36.3028C163.444 36.4074 163.406 36.4954 163.329 36.567C163.257 36.6385 163.169 36.6743 163.065 36.6743C162.96 36.6743 162.872 36.6385 162.801 36.567C162.73 36.4954 162.694 36.4074 162.694 36.3028V34.0406C162.694 33.3691 162.392 33.0333 161.787 33.0333C161.512 33.0333 161.265 33.1049 161.045 33.248C160.831 33.3911 160.627 33.5837 160.435 33.8259V36.3028C160.435 36.4074 160.396 36.4954 160.32 36.567C160.248 36.6385 160.16 36.6743 160.056 36.6743Z" fill="white"/>
<path d="M165.78 36.7156C165.538 36.7156 165.313 36.6661 165.104 36.567C164.901 36.4679 164.739 36.3248 164.618 36.1377C164.497 35.945 164.437 35.7248 164.437 35.4772C164.437 35.0698 164.596 34.7451 164.915 34.5029C165.239 34.2607 165.712 34.1396 166.333 34.1396H167.33V34.0736C167.33 33.7103 167.24 33.4489 167.058 33.2893C166.882 33.1296 166.605 33.0498 166.226 33.0498C166.017 33.0498 165.83 33.0663 165.665 33.0994C165.506 33.1324 165.327 33.1819 165.129 33.248C165.085 33.259 165.049 33.2645 165.022 33.2645C164.939 33.2645 164.868 33.2342 164.807 33.1737C164.747 33.1131 164.717 33.0388 164.717 32.9507C164.717 32.8021 164.788 32.6976 164.931 32.637C165.398 32.4389 165.874 32.3398 166.357 32.3398C166.737 32.3398 167.055 32.4168 167.314 32.571C167.578 32.7251 167.77 32.926 167.891 33.1737C168.017 33.4158 168.08 33.68 168.08 33.9663V36.3028C168.08 36.4074 168.042 36.4954 167.965 36.567C167.894 36.6385 167.806 36.6743 167.701 36.6743C167.597 36.6743 167.509 36.6385 167.437 36.567C167.366 36.4954 167.33 36.4074 167.33 36.3028V36.0881C166.924 36.5064 166.407 36.7156 165.78 36.7156ZM166.061 36.0551C166.302 36.0551 166.536 35.9973 166.761 35.8817C166.987 35.7606 167.176 35.612 167.33 35.4359V34.7424H166.432C165.602 34.7424 165.187 34.9598 165.187 35.3946C165.187 35.5927 165.253 35.7524 165.385 35.8735C165.522 35.9945 165.747 36.0551 166.061 36.0551Z" fill="white"/>
<path d="M169.709 36.6743C169.604 36.6743 169.517 36.6385 169.445 36.567C169.374 36.4954 169.338 36.4074 169.338 36.3028V32.7609C169.338 32.6563 169.374 32.5682 169.445 32.4967C169.517 32.4196 169.604 32.3811 169.709 32.3811C169.813 32.3811 169.901 32.4196 169.973 32.4967C170.05 32.5682 170.088 32.6563 170.088 32.7609V33.0994C170.297 32.8682 170.522 32.6838 170.764 32.5462C171.006 32.4086 171.292 32.3398 171.622 32.3398C171.924 32.3398 172.185 32.4113 172.405 32.5544C172.63 32.6976 172.801 32.893 172.916 33.1406C173.037 33.3883 173.097 33.6608 173.097 33.958V36.3028C173.097 36.4074 173.059 36.4954 172.982 36.567C172.91 36.6385 172.823 36.6743 172.718 36.6743C172.614 36.6743 172.526 36.6385 172.454 36.567C172.383 36.4954 172.347 36.4074 172.347 36.3028V34.0406C172.347 33.3691 172.045 33.0333 171.44 33.0333C171.165 33.0333 170.918 33.1049 170.698 33.248C170.484 33.3911 170.281 33.5837 170.088 33.8259V36.3028C170.088 36.4074 170.05 36.4954 169.973 36.567C169.901 36.6385 169.813 36.6743 169.709 36.6743Z" fill="white"/>
<path d="M175.716 36.7156C174.914 36.7156 174.513 36.3523 174.513 35.6258V33.0663H173.927C173.883 33.0663 173.845 33.0526 173.812 33.0251C173.784 32.992 173.771 32.9535 173.771 32.9095C173.771 32.8544 173.795 32.8076 173.845 32.7691L174.966 31.671C175.015 31.6215 175.062 31.5967 175.106 31.5967C175.15 31.5967 175.186 31.6132 175.213 31.6463C175.246 31.6793 175.263 31.7178 175.263 31.7619V32.4223H176.194C176.288 32.4223 176.365 32.4526 176.425 32.5132C176.486 32.5737 176.516 32.6508 176.516 32.7443C176.516 32.8324 176.486 32.9095 176.425 32.9755C176.365 33.0361 176.288 33.0663 176.194 33.0663H175.263V35.5597C175.263 35.7744 175.312 35.912 175.411 35.9725C175.516 36.0276 175.645 36.0551 175.799 36.0551C175.909 36.0551 176.018 36.0386 176.128 36.0056C176.15 36.0001 176.172 35.9945 176.194 35.989C176.222 35.9835 176.255 35.9808 176.293 35.9808C176.37 35.9808 176.439 36.0111 176.499 36.0716C176.56 36.1266 176.59 36.1954 176.59 36.278C176.59 36.4046 176.527 36.5009 176.4 36.567C176.186 36.6661 175.958 36.7156 175.716 36.7156Z" fill="white"/>
<path d="M180.074 36.6743C179.97 36.6743 179.882 36.6385 179.81 36.567C179.739 36.4954 179.703 36.4074 179.703 36.3028V31.25C179.703 31.1454 179.739 31.0573 179.81 30.9858C179.882 30.9087 179.97 30.8702 180.074 30.8702H181.954C182.476 30.8702 182.902 30.9582 183.232 31.1344C183.561 31.3105 183.798 31.5362 183.941 31.8114C184.084 32.0866 184.155 32.3838 184.155 32.7031C184.155 33.0223 184.084 33.3195 183.941 33.5947C183.798 33.8699 183.561 34.0956 183.232 34.2717C182.902 34.4479 182.476 34.5359 181.954 34.5359H180.453V36.3028C180.453 36.4074 180.415 36.4954 180.338 36.567C180.266 36.6385 180.179 36.6743 180.074 36.6743ZM181.88 33.8259C182.44 33.8259 182.833 33.7186 183.059 33.5039C183.289 33.2893 183.405 33.0223 183.405 32.7031C183.405 32.3838 183.289 32.1169 183.059 31.9022C182.833 31.6875 182.44 31.5802 181.88 31.5802H180.453V33.8259H181.88Z" fill="white"/>
<path d="M187.79 36.7156C187.213 36.7156 186.707 36.589 186.273 36.3358C185.839 36.0826 185.503 35.7331 185.267 35.2873C185.031 34.8414 184.907 34.3295 184.896 33.7516C184.907 33.1737 185.031 32.6618 185.267 32.2159C185.503 31.7701 185.839 31.4206 186.273 31.1674C186.707 30.9142 187.213 30.7876 187.79 30.7876C188.367 30.7876 188.87 30.9142 189.298 31.1674C189.733 31.4206 190.068 31.7729 190.304 32.2242C190.546 32.67 190.673 33.1792 190.684 33.7516C190.673 34.324 190.546 34.8359 190.304 35.2873C190.068 35.7331 189.733 36.0826 189.298 36.3358C188.87 36.589 188.367 36.7156 187.79 36.7156ZM187.79 36.0138C188.229 36.0138 188.611 35.9147 188.936 35.7166C189.26 35.5184 189.507 35.2487 189.678 34.9075C189.848 34.5662 189.933 34.1809 189.933 33.7516C189.933 33.3223 189.848 32.937 189.678 32.5957C189.507 32.2545 189.26 31.9848 188.936 31.7866C188.611 31.5885 188.229 31.4894 187.79 31.4894C187.345 31.4894 186.96 31.5885 186.636 31.7866C186.317 31.9848 186.072 32.2545 185.902 32.5957C185.731 32.937 185.646 33.3223 185.646 33.7516C185.646 34.1809 185.731 34.5662 185.902 34.9075C186.072 35.2487 186.317 35.5184 186.636 35.7166C186.96 35.9147 187.345 36.0138 187.79 36.0138Z" fill="white"/>
<path d="M193.746 36.7156C193.048 36.7156 192.394 36.5835 191.784 36.3193C191.718 36.2918 191.663 36.2477 191.619 36.1872C191.575 36.1211 191.553 36.0523 191.553 35.9808C191.553 35.8872 191.584 35.8074 191.644 35.7414C191.71 35.6698 191.793 35.634 191.891 35.634C191.946 35.634 191.999 35.645 192.048 35.667C192.554 35.8927 193.095 36.0056 193.672 36.0056C194.634 36.0056 195.115 35.6891 195.115 35.0561C195.115 34.891 195.052 34.7534 194.925 34.6433C194.804 34.5332 194.653 34.4479 194.472 34.3873C194.291 34.3213 194.032 34.2442 193.697 34.1562C193.252 34.0406 192.892 33.9305 192.617 33.8259C192.342 33.7158 192.106 33.5535 191.908 33.3388C191.71 33.1241 191.611 32.8379 191.611 32.4801C191.611 32.1664 191.694 31.8829 191.859 31.6298C192.023 31.3711 192.265 31.1674 192.584 31.0188C192.908 30.8647 193.296 30.7876 193.746 30.7876C194.351 30.7876 194.898 30.8784 195.387 31.0601C195.541 31.1151 195.618 31.2252 195.618 31.3903C195.618 31.4784 195.588 31.5582 195.527 31.6298C195.467 31.7013 195.387 31.7371 195.288 31.7371C195.255 31.7371 195.211 31.7261 195.156 31.7041C194.728 31.5554 194.285 31.4811 193.829 31.4811C193.395 31.4811 193.04 31.5637 192.765 31.7288C192.496 31.894 192.361 32.1251 192.361 32.4223C192.361 32.6205 192.425 32.7829 192.551 32.9095C192.683 33.0306 192.845 33.1269 193.037 33.1984C193.235 33.2645 193.502 33.336 193.837 33.4131C194.271 33.5177 194.62 33.6223 194.884 33.7268C195.153 33.8314 195.382 33.9938 195.568 34.214C195.761 34.4341 195.857 34.7313 195.857 35.1056C195.857 35.4139 195.769 35.6918 195.593 35.9395C195.417 36.1817 195.17 36.3716 194.851 36.5092C194.532 36.6468 194.164 36.7156 193.746 36.7156Z" fill="white"/>
<path d="M135.874 27.1543C135.449 27.1543 135.09 27.0088 134.8 26.7179C134.509 26.427 134.363 26.0689 134.363 25.6437V5.10026C134.363 4.67507 134.509 4.31701 134.8 4.02609C135.09 3.71279 135.449 3.55614 135.874 3.55614H143.527C145.653 3.55614 147.387 3.9142 148.73 4.63031C150.073 5.34642 151.035 6.26394 151.617 7.38286C152.199 8.50179 152.49 9.71023 152.49 11.0082C152.49 12.3061 152.199 13.5146 151.617 14.6335C151.035 15.7524 150.073 16.6699 148.73 17.3861C147.387 18.1022 145.653 18.4602 143.527 18.4602H137.418V25.6437C137.418 26.0689 137.261 26.427 136.948 26.7179C136.657 27.0088 136.299 27.1543 135.874 27.1543ZM143.225 15.5734C145.508 15.5734 147.108 15.137 148.025 14.2643C148.965 13.3915 149.435 12.3061 149.435 11.0082C149.435 9.71023 148.965 8.62487 148.025 7.75211C147.108 6.87935 145.508 6.44297 143.225 6.44297H137.418V15.5734H143.225Z" fill="white"/>
<path d="M155.374 27.1543C154.927 27.1543 154.557 27.0088 154.266 26.7179C153.998 26.427 153.864 26.0689 153.864 25.6437C153.864 25.4647 153.92 25.2409 154.031 24.9724L162.591 4.76458C162.77 4.36177 163.016 4.03728 163.33 3.79112C163.665 3.52258 164.068 3.38831 164.538 3.38831H164.874C165.344 3.38831 165.735 3.52258 166.049 3.79112C166.384 4.03728 166.642 4.36177 166.821 4.76458L175.381 24.9724C175.492 25.2409 175.548 25.4647 175.548 25.6437C175.548 26.0689 175.403 26.427 175.112 26.7179C174.843 27.0088 174.485 27.1543 174.038 27.1543C173.725 27.1543 173.434 27.0759 173.165 26.9193C172.919 26.7403 172.729 26.5053 172.594 26.2144L170.413 20.9778H159L156.818 26.2144C156.683 26.5053 156.482 26.7403 156.213 26.9193C155.967 27.0759 155.687 27.1543 155.374 27.1543ZM160.174 18.1917H169.238L164.706 7.28216L160.174 18.1917Z" fill="white"/>
<path d="M185.972 27.1543C185.547 27.1543 185.178 27.0088 184.864 26.7179C184.573 26.427 184.428 26.0689 184.428 25.6437V17.0839L176.405 5.83875C176.226 5.54783 176.137 5.24572 176.137 4.93242C176.137 4.50723 176.271 4.14917 176.539 3.85825C176.83 3.54496 177.188 3.38831 177.614 3.38831C178.173 3.38831 178.621 3.64566 178.956 4.16036L185.972 14.365L192.988 4.16036C193.323 3.64566 193.771 3.38831 194.33 3.38831C194.756 3.38831 195.114 3.54496 195.405 3.85825C195.695 4.14917 195.83 4.50723 195.807 4.93242C195.807 5.24572 195.718 5.54783 195.539 5.83875L187.483 17.0839V25.6437C187.483 26.0689 187.337 26.427 187.046 26.7179C186.755 27.0088 186.397 27.1543 185.972 27.1543Z" fill="white"/>
</svg>
